<?xml version="1.0" standalone="no"?>
<!DOCTYPE svg PUBLIC "-//W3C//DTD SVG 1.1//EN" "http://www.w3.org/Graphics/SVG/1.1/DTD/svg11.dtd" >
<svg xmlns="http://www.w3.org/2000/svg" xmlns:xlink="http://www.w3.org/1999/xlink" version="1.1">
<metadata>
Created by FontForge 20161116 at Thu Nov 15 16:24:29 2007
 By Jimmy Wärting
URW Software, Copyright 1994 by URW
</metadata>
<defs>
<font id="BodoniSevITC-Bold" horiz-adv-x="562" >
  <font-face 
    font-family="Bodoni Seventytwo ITC"
    font-weight="700"
    font-stretch="normal"
    units-per-em="1000"
    panose-1="2 0 5 6 9 0 0 2 0 3"
    ascent="800"
    descent="-200"
    x-height="433"
    cap-height="692"
    bbox="-165 -272 1123 923"
    underline-thickness="66"
    underline-position="-127"
    unicode-range="U+0020-FB02"
  />
<missing-glyph horiz-adv-x="151" 
 />
    <glyph glyph-name="fi" unicode="fi" horiz-adv-x="560" 
d="M268 433q57 0 91.5 0.5t57 2t37 5t29.5 8.5q1 -9 2 -15t1.5 -12t1 -15t0.5 -24l1 -127v-188q0 -21 1 -32t6.5 -16t17.5 -6t34 -1q11 0 11 -7t-8 -7l-132 2l-92 -2q-5 -1 -9.5 -1h-7.5q-11 0 -11 7q0 5 3.5 6t20.5 1q10 0 16.5 2t9.5 7t4 14t1 25v298q0 19 -0.5 30t-3 17
t-7 8t-11.5 3q-9 1 -28 1t-50 -2h-18l-20 1v-353q0 -23 1 -31t3 -11q2 -1 10 -3.5t10 -2.5l23 1q3 0 6.5 -3t3.5 -6q0 -8 -13 -8h-7.5t-8.5 1q-25 2 -35.5 2.5t-23.5 0.5t-35.5 -0.5t-46 -1t-42.5 -1t-25 -0.5h-14q-12 0 -12 7q0 5 6.5 6.5t27.5 2.5q13 0 20.5 1t11 5.5
t4 13t0.5 25.5v354h-53q-15 0 -15 9q0 3 1 5t6 3t16 1h31h14v21q0 75 26 133t73 85q55 32 144 32q72 0 114.5 -24.5t42.5 -66.5q0 -27 -17 -44.5t-43 -17.5q-28 0 -46.5 15.5t-18.5 38.5q0 12 4.5 20t21.5 30q5 5 5 12q0 25 -58 25q-69 0 -94 -42q-11 -17 -14.5 -44
t-3.5 -82v-91h52z" />
    <glyph glyph-name="fl" unicode="fl" horiz-adv-x="558" 
d="M80 454q0 61 21 117.5t55 87.5q49 45 122 45q31 0 53.5 -7t41.5 -21q36 5 66.5 12.5t50.5 15.5q0 -13 -0.5 -29.5t-0.5 -52.5v-99.5v-169.5v-249q0 -34 0.5 -52t2.5 -26.5t6.5 -10t13.5 -1.5l37 1q11 0 11 -8q0 -5 -5.5 -6.5t-30.5 -1.5q-11 0 -25.5 0.5t-32.5 1.5
q-14 1 -23 1h-12h-23t-30 -0.5t-26.5 -1t-14.5 -0.5q-8 -1 -14 -1h-8q-11 0 -14.5 1.5t-3.5 5.5q0 8 14 8l22 -1q7 0 11 2t6.5 8.5t3 20t0.5 36.5v469q-3 -1 -5.5 -1h-4.5q-23 0 -39.5 15.5t-16.5 38.5q0 11 3.5 21t11.5 23q5 8 7 12t2 9q0 11 -8 17.5t-20 6.5
q-30 0 -51 -41q-10 -20 -13.5 -46.5t-3.5 -79.5v-91h15h24h32q12 0 12 -8q0 -6 -8.5 -8t-36.5 -2h-10t-28 1v-353q0 -22 1 -30.5t3 -11.5q2 -2 10.5 -4t13.5 -2l23 1q5 0 8.5 -2.5t3.5 -6.5q0 -8 -13 -8h-7t-9 1q-22 2 -37 2.5t-28 0.5t-35.5 -0.5t-46 -1t-42.5 -1t-25 -0.5
h-14q-12 0 -12 7q0 5 6.5 6.5t27.5 2.5q13 0 20.5 1t11 5.5t4 13t0.5 25.5v354h-53q-15 0 -15 9q0 3 1 5t6 3t16 1h31h14v21z" />
    <glyph glyph-name=".notdef" horiz-adv-x="151" 
 />
    <glyph glyph-name=".null" horiz-adv-x="0" 
 />
    <glyph glyph-name="nonmarkingreturn" horiz-adv-x="151" 
 />
    <glyph glyph-name="space" unicode=" " horiz-adv-x="151" 
 />
    <glyph glyph-name="Atilde" unicode="&#xc3;" horiz-adv-x="678" 
d="M282 874q8 0 15.5 -1.5t20.5 -6.5t34 -15t56 -26q9 -4 19.5 -7t15.5 -3q8 0 13 7.5t12 30.5q3 11 9 11q5 0 5 -5q0 -3 -1.5 -10t-4 -16t-5.5 -18.5t-6 -15.5q-16 -42 -55 -42q-9 0 -15 1t-18.5 5.5t-34.5 14.5t-62 28q-11 5 -22 8t-18 3q-8 0 -14.5 -5.5t-6.5 -13.5
q0 -13 14 -23q8 -5 8 -11t-5 -6t-10.5 4.5t-10 11t-7.5 14.5t-3 15q0 13 6.5 26t17.5 23t24.5 16t28.5 6zM282 482q-7 -17 -12.5 -30.5t-11 -28t-11.5 -31.5t-14 -41q-9 -27 -15 -44t-9.5 -28t-6.5 -18.5t-6 -16.5h22t22 1h56h21.5t49.5 -1q-4 7 -7 19q-19 54 -33 94.5
t-25 68.5q-4 10 -7 19.5t-7 18.5zM356 222l-78 1h-46.5t-42.5 -1q-4 -10 -7.5 -18.5t-7 -18.5t-8 -22.5t-11.5 -30.5l-22 -65q-5 -15 -5 -24q0 -17 22 -22q4 -1 7 -1.5t7.5 -0.5t12.5 -0.5t22 -1.5q14 0 14 -9t-18 -9l-105 1h-60q-5 -1 -8 -1h-5q-14 0 -14 10q0 5 4 6t27 2
q20 1 31.5 3.5t20 12t16 29t19.5 54.5l28 74t27 74q12 31 27 73t31.5 87.5t33 90.5t29.5 82q7 17 13 34t12 35q5 15 9.5 24.5t7.5 9.5q4 0 8 -9t14 -37q7 -20 17.5 -49t30 -80.5t50.5 -132.5t78 -204q11 -28 20.5 -54t19.5 -52q8 -23 14.5 -35.5t16 -19t24.5 -7.5t41 -1
q12 0 12 -9q0 -8 -7.5 -9.5t-38.5 -1.5h-21.5t-23.5 1q-43 1 -70.5 1.5t-31.5 0.5h-26t-32 -1q-20 -1 -39 -1.5t-29 -0.5q-27 0 -27 10q0 6 10 8t47 3q22 1 29.5 3.5t7.5 10.5v3.5t-1.5 5.5t-4 11.5t-6.5 21.5q-5 17 -10.5 33t-10.5 32q-3 11 -6 20t-5.5 18t-6 19t-8.5 24
h-18z" />
    <glyph glyph-name="Aring" unicode="&#xc5;" horiz-adv-x="678" 
d="M342 883q-23 0 -39 -18t-16 -43q0 -24 16.5 -41t39.5 -17q25 0 41 17t16 43q0 25 -16.5 42t-41.5 17zM345 913q18 0 33.5 -7t27.5 -19.5t19 -28.5t7 -34q0 -38 -26 -64t-63 -26q-18 0 -34 7t-28 19t-19 28.5t-7 34.5q0 38 26.5 64t63.5 26zM282 482q-7 -17 -12.5 -30.5
t-11 -28t-11.5 -31.5t-14 -41q-9 -27 -15 -44t-9.5 -28t-6.5 -18.5t-6 -16.5h22t22 1h56h21.5t49.5 -1q-4 7 -7 19q-19 54 -33 94.5t-25 68.5q-4 10 -7 19.5t-7 18.5zM356 222l-78 1h-46.5t-42.5 -1q-4 -10 -7.5 -18.5t-7 -18.5t-8 -22.5t-11.5 -30.5l-22 -65q-5 -15 -5 -24
q0 -17 22 -22q4 -1 7 -1.5t7.5 -0.5t12.5 -0.5t22 -1.5q14 0 14 -9t-18 -9l-105 1h-60q-5 -1 -8 -1h-5q-14 0 -14 10q0 5 4 6t27 2q20 1 31.5 3.5t20 12t16 29t19.5 54.5l28 74t27 74q12 31 27 73t31.5 87.5t33 90.5t29.5 82q7 17 13 34t12 35q5 15 9.5 24.5t7.5 9.5
q4 0 8 -9t14 -37q7 -20 17.5 -49t30 -80.5t50.5 -132.5t78 -204q11 -28 20.5 -54t19.5 -52q8 -23 14.5 -35.5t16 -19t24.5 -7.5t41 -1q12 0 12 -9q0 -8 -7.5 -9.5t-38.5 -1.5h-21.5t-23.5 1q-43 1 -70.5 1.5t-31.5 0.5h-26t-32 -1q-20 -1 -39 -1.5t-29 -0.5q-27 0 -27 10
q0 6 10 8t47 3q22 1 29.5 3.5t7.5 10.5v3.5t-1.5 5.5t-4 11.5t-6.5 21.5q-5 17 -10.5 33t-10.5 32q-3 11 -6 20t-5.5 18t-6 19t-8.5 24h-18z" />
    <glyph glyph-name="Edieresis" unicode="&#xcb;" horiz-adv-x="595" 
d="M399 871q24 0 42 -18t18 -43q0 -26 -17.5 -43.5t-43.5 -17.5q-25 0 -43 18.5t-18 43.5q0 24 18 42t44 18zM223 871q25 0 42.5 -18t17.5 -43q0 -26 -17.5 -43.5t-43.5 -17.5q-25 0 -43 18.5t-18 43.5q0 24 18.5 42t43.5 18zM242 375q55 0 87.5 2.5t50.5 13t26 30.5t13 55
q3 23 6 30t9 7q9 0 9 -18v-6t-0.5 -10t-1 -20.5t-1.5 -37.5q-1 -7 -1 -20.5v-30.5q0 -47 0.5 -80t1.5 -50q1 -5 1 -8.5v-6.5q0 -12 -9 -12q-4 0 -6 0.5t-3.5 4t-2.5 11t-3 21.5q-5 36 -10.5 57t-17 32t-30.5 14t-50 3h-68v-337l64 1q53 0 84 0.5t50 3.5t31 8.5t27 14.5
q12 10 20.5 20t14.5 23.5t10.5 33.5t9.5 51q3 15 10 15q8 0 8 -15q0 -1 -0.5 -15.5t-0.5 -31.5v-46q-1 -30 -1.5 -46t-0.5 -24.5v-11.5v-7q-11 0 -40.5 1t-70 1.5t-88 1.5t-95 1.5t-91.5 1t-77 0.5l-84 -2q-18 0 -18 8q0 3 0.5 4.5t4 2.5t10.5 1.5t20 1.5q23 2 36 9t15 18
q1 4 1.5 10t0.5 19v54v453v45t-1 21q-1 17 -10.5 22.5t-36.5 5.5q-21 0 -26 1.5t-5 7.5t5.5 8t22.5 2h15.5h14t18.5 0.5t28 0.5q20 0 57.5 0.5t81 1t87 0.5h75.5l68 -1q17 0 27 1t27 3q4 -47 6 -74t3 -35t1.5 -18.5t1.5 -20t1.5 -17t0.5 -8.5q0 -10 -10 -10q-5 0 -8 5.5
t-5 20.5q-10 69 -56 100.5t-137 31.5h-14.5t-16 -0.5t-25 -1t-40.5 -1.5v-295z" />
    <glyph glyph-name="Eacute" unicode="&#xc9;" horiz-adv-x="595" 
d="M440 894q-6 -6 -9 -8q-16 -14 -40.5 -36t-57.5 -51q-14 -11 -26.5 -23t-24.5 -23q-20 -18 -24 -18t-4 4q0 1 0.5 3t3.5 9.5t9.5 24t18.5 46.5q3 8 10 26.5t17 46.5q21 -1 45.5 -1h47.5h34zM242 375q55 0 87.5 2.5t50.5 13t26 30.5t13 55q3 23 6 30t9 7q9 0 9 -18v-6
t-0.5 -10t-1 -20.5t-1.5 -37.5q-1 -7 -1 -20.5v-30.5q0 -47 0.5 -80t1.5 -50q1 -5 1 -8.5v-6.5q0 -12 -9 -12q-4 0 -6 0.5t-3.5 4t-2.5 11t-3 21.5q-5 36 -10.5 57t-17 32t-30.5 14t-50 3h-68v-337l64 1q53 0 84 0.5t50 3.5t31 8.5t27 14.5q12 10 20.5 20t14.5 23.5
t10.5 33.5t9.5 51q3 15 10 15q8 0 8 -15q0 -1 -0.5 -15.5t-0.5 -31.5v-46q-1 -30 -1.5 -46t-0.5 -24.5v-11.5v-7q-11 0 -40.5 1t-70 1.5t-88 1.5t-95 1.5t-91.5 1t-77 0.5l-84 -2q-18 0 -18 8q0 3 0.5 4.5t4 2.5t10.5 1.5t20 1.5q23 2 36 9t15 18q1 4 1.5 10t0.5 19v54v453
v45t-1 21q-1 17 -10.5 22.5t-36.5 5.5q-21 0 -26 1.5t-5 7.5t5.5 8t22.5 2h15.5h14t18.5 0.5t28 0.5q20 0 57.5 0.5t81 1t87 0.5h75.5l68 -1q17 0 27 1t27 3q4 -47 6 -74t3 -35t1.5 -18.5t1.5 -20t1.5 -17t0.5 -8.5q0 -10 -10 -10q-5 0 -8 5.5t-5 20.5q-10 69 -56 100.5
t-137 31.5h-14.5t-16 -0.5t-25 -1t-40.5 -1.5v-295z" />
    <glyph glyph-name="Egrave" unicode="&#xc8;" horiz-adv-x="595" 
d="M206 894h47.5t44.5 1q14 -39 26.5 -71t22.5 -58l8 -20q2 -4 2 -7q0 -4 -4 -4q-6 0 -24 18q-26 24 -63 57t-86 76q-3 2 -9 8h35zM242 375q55 0 87.5 2.5t50.5 13t26 30.5t13 55q3 23 6 30t9 7q9 0 9 -18v-6t-0.5 -10t-1 -20.5t-1.5 -37.5q-1 -7 -1 -20.5v-30.5
q0 -47 0.5 -80t1.5 -50q1 -5 1 -8.5v-6.5q0 -12 -9 -12q-4 0 -6 0.5t-3.5 4t-2.5 11t-3 21.5q-5 36 -10.5 57t-17 32t-30.5 14t-50 3h-68v-337l64 1q53 0 84 0.5t50 3.5t31 8.5t27 14.5q12 10 20.5 20t14.5 23.5t10.5 33.5t9.5 51q3 15 10 15q8 0 8 -15q0 -1 -0.5 -15.5
t-0.5 -31.5v-46q-1 -30 -1.5 -46t-0.5 -24.5v-11.5v-7q-11 0 -40.5 1t-70 1.5t-88 1.5t-95 1.5t-91.5 1t-77 0.5l-84 -2q-18 0 -18 8q0 3 0.5 4.5t4 2.5t10.5 1.5t20 1.5q23 2 36 9t15 18q1 4 1.5 10t0.5 19v54v453v45t-1 21q-1 17 -10.5 22.5t-36.5 5.5q-21 0 -26 1.5
t-5 7.5t5.5 8t22.5 2h15.5h14t18.5 0.5t28 0.5q20 0 57.5 0.5t81 1t87 0.5h75.5l68 -1q17 0 27 1t27 3q4 -47 6 -74t3 -35t1.5 -18.5t1.5 -20t1.5 -17t0.5 -8.5q0 -10 -10 -10q-5 0 -8 5.5t-5 20.5q-10 69 -56 100.5t-137 31.5h-14.5t-16 -0.5t-25 -1t-40.5 -1.5v-295z" />
    <glyph glyph-name="Ecircumflex" unicode="&#xca;" horiz-adv-x="595" 
d="M350 741q-23 25 -43.5 53t-28.5 47q-12 -18 -19.5 -29.5t-13 -19t-10.5 -13.5t-12 -13q-15 -16 -22 -21.5t-12 -5.5q-6 0 -6 5q0 2 1.5 3.5l11.5 11.5q47 42 93 136q10 18 13.5 23t7.5 5q5 0 11 -11q30 -52 62.5 -97.5t58.5 -73.5h-92zM242 375q55 0 87.5 2.5t50.5 13
t26 30.5t13 55q3 23 6 30t9 7q9 0 9 -18v-6t-0.5 -10t-1 -20.5t-1.5 -37.5q-1 -7 -1 -20.5v-30.5q0 -47 0.5 -80t1.5 -50q1 -5 1 -8.5v-6.5q0 -12 -9 -12q-4 0 -6 0.5t-3.5 4t-2.5 11t-3 21.5q-5 36 -10.5 57t-17 32t-30.5 14t-50 3h-68v-337l64 1q53 0 84 0.5t50 3.5
t31 8.5t27 14.5q12 10 20.5 20t14.5 23.5t10.5 33.5t9.5 51q3 15 10 15q8 0 8 -15q0 -1 -0.5 -15.5t-0.5 -31.5v-46q-1 -30 -1.5 -46t-0.5 -24.5v-11.5v-7q-11 0 -40.5 1t-70 1.5t-88 1.5t-95 1.5t-91.5 1t-77 0.5l-84 -2q-18 0 -18 8q0 3 0.5 4.5t4 2.5t10.5 1.5t20 1.5
q23 2 36 9t15 18q1 4 1.5 10t0.5 19v54v453v45t-1 21q-1 17 -10.5 22.5t-36.5 5.5q-21 0 -26 1.5t-5 7.5t5.5 8t22.5 2h15.5h14t18.5 0.5t28 0.5q20 0 57.5 0.5t81 1t87 0.5h75.5l68 -1q17 0 27 1t27 3q4 -47 6 -74t3 -35t1.5 -18.5t1.5 -20t1.5 -17t0.5 -8.5q0 -10 -10 -10
q-5 0 -8 5.5t-5 20.5q-10 69 -56 100.5t-137 31.5h-14.5t-16 -0.5t-25 -1t-40.5 -1.5v-295z" />
    <glyph glyph-name="Idieresis" unicode="&#xcf;" horiz-adv-x="336" 
d="M258 878q27 0 46.5 -20t19.5 -47q0 -29 -19.5 -48.5t-48.5 -19.5q-27 0 -47 20t-20 48t20 47.5t49 19.5zM83 878q27 0 46.5 -20t19.5 -47q0 -29 -19.5 -48.5t-48.5 -19.5q-27 0 -47 20t-20 48t20 47.5t49 19.5zM92 596q-1 23 -1 36.5v17.5q0 14 -10.5 19.5t-39.5 5.5
q-18 0 -23 1t-5 6q0 7 3.5 8t26.5 1h7.5t28.5 -1h9h11.5t21 -0.5t37.5 -0.5h51q23 0 45.5 0.5t41.5 2.5h10q13 0 13 -8q0 -6 -4.5 -7t-30.5 -3q-17 -1 -25.5 -4t-12.5 -9l-3 -19v-35v-530q0 -21 1 -33t8 -17.5t22 -7.5t43 -4q9 0 9 -8t-13 -8h-5t-8 1q-8 0 -21.5 0.5t-29 1
t-30 1t-22.5 0.5q-21 0 -50.5 -0.5t-81.5 -2.5q-14 -1 -24.5 -1h-18.5q-15 0 -15 9q0 3 0.5 4t5 2t13 1.5t25.5 0.5q15 3 23.5 6t12.5 12.5t4.5 28t0.5 52.5v481z" />
    <glyph glyph-name="Iacute" unicode="&#xcd;" horiz-adv-x="336" 
d="M323 894q-6 -6 -9 -8q-16 -14 -40.5 -36t-57.5 -51q-14 -11 -26.5 -23t-24.5 -23q-20 -18 -24 -18t-4 4q0 1 0.5 3t3.5 9.5t9.5 24t18.5 46.5q3 8 10 26.5t17 46.5q21 -1 45.5 -1h47.5h34zM92 596q-1 23 -1 36.5v17.5q0 14 -10.5 19.5t-39.5 5.5q-18 0 -23 1t-5 6
q0 7 3.5 8t26.5 1h7.5t28.5 -1h9h11.5t21 -0.5t37.5 -0.5h51q23 0 45.5 0.5t41.5 2.5h10q13 0 13 -8q0 -6 -4.5 -7t-30.5 -3q-17 -1 -25.5 -4t-12.5 -9l-3 -19v-35v-530q0 -21 1 -33t8 -17.5t22 -7.5t43 -4q9 0 9 -8t-13 -8h-5t-8 1q-8 0 -21.5 0.5t-29 1t-30 1t-22.5 0.5
q-21 0 -50.5 -0.5t-81.5 -2.5q-14 -1 -24.5 -1h-18.5q-15 0 -15 9q0 3 0.5 4t5 2t13 1.5t25.5 0.5q15 3 23.5 6t12.5 12.5t4.5 28t0.5 52.5v481z" />
    <glyph glyph-name="Igrave" unicode="&#xcc;" horiz-adv-x="336" 
d="M53 894h47.5t44.5 1q14 -39 26.5 -71t22.5 -58l8 -20q2 -4 2 -7q0 -4 -4 -4q-6 0 -24 18q-26 24 -63 57t-86 76q-3 2 -9 8h35zM92 596q-1 23 -1 36.5v17.5q0 14 -10.5 19.5t-39.5 5.5q-18 0 -23 1t-5 6q0 7 3.5 8t26.5 1h7.5t28.5 -1h9h11.5t21 -0.5t37.5 -0.5h51
q23 0 45.5 0.5t41.5 2.5h10q13 0 13 -8q0 -6 -4.5 -7t-30.5 -3q-17 -1 -25.5 -4t-12.5 -9l-3 -19v-35v-530q0 -21 1 -33t8 -17.5t22 -7.5t43 -4q9 0 9 -8t-13 -8h-5t-8 1q-8 0 -21.5 0.5t-29 1t-30 1t-22.5 0.5q-21 0 -50.5 -0.5t-81.5 -2.5q-14 -1 -24.5 -1h-18.5
q-15 0 -15 9q0 3 0.5 4t5 2t13 1.5t25.5 0.5q15 3 23.5 6t12.5 12.5t4.5 28t0.5 52.5v481z" />
    <glyph glyph-name="Icircumflex" unicode="&#xce;" horiz-adv-x="336" 
d="M206 741q-23 25 -43.5 53t-28.5 47q-12 -18 -19.5 -29.5t-13 -19t-10.5 -13.5t-12 -13q-15 -16 -22 -21.5t-12 -5.5q-6 0 -6 5q0 2 1.5 3.5l11.5 11.5q47 42 93 136q10 18 13.5 23t7.5 5q5 0 11 -11q30 -52 62.5 -97.5t58.5 -73.5h-92zM92 596q-1 23 -1 36.5v17.5
q0 14 -10.5 19.5t-39.5 5.5q-18 0 -23 1t-5 6q0 7 3.5 8t26.5 1h7.5t28.5 -1h9h11.5t21 -0.5t37.5 -0.5h51q23 0 45.5 0.5t41.5 2.5h10q13 0 13 -8q0 -6 -4.5 -7t-30.5 -3q-17 -1 -25.5 -4t-12.5 -9l-3 -19v-35v-530q0 -21 1 -33t8 -17.5t22 -7.5t43 -4q9 0 9 -8t-13 -8h-5
t-8 1q-8 0 -21.5 0.5t-29 1t-30 1t-22.5 0.5q-21 0 -50.5 -0.5t-81.5 -2.5q-14 -1 -24.5 -1h-18.5q-15 0 -15 9q0 3 0.5 4t5 2t13 1.5t25.5 0.5q15 3 23.5 6t12.5 12.5t4.5 28t0.5 52.5v481z" />
    <glyph glyph-name="Ntilde" unicode="&#xd1;" horiz-adv-x="660" 
d="M284 874q8 0 15.5 -1.5t20.5 -6.5t34 -15t56 -26q9 -4 19.5 -7t15.5 -3q8 0 13 7.5t12 30.5q3 11 9 11q5 0 5 -5q0 -3 -1.5 -10t-4 -16t-5.5 -18.5t-6 -15.5q-16 -42 -55 -42q-9 0 -15 1t-18.5 5.5t-34.5 14.5t-62 28q-11 5 -22 8t-18 3q-8 0 -14.5 -5.5t-6.5 -13.5
q0 -13 14 -23q8 -5 8 -11t-5 -6t-10.5 4.5t-10 11t-7.5 14.5t-3 15q0 13 6.5 26t17.5 23t24.5 16t28.5 6zM99 516q0 37 -1.5 60.5t-5 38.5t-11 24t-19.5 17q-8 5 -14 8t-14.5 5t-21 2.5t-32.5 1.5q-16 0 -16 9t14 9q5 0 17 -0.5t26 -1.5t28 -1h26h30t34 0.5t32 1t24 0.5
q92 -118 179 -230t172 -221v396q0 24 -8 31.5t-34 6.5l-22 1l-21 1q-12 0 -12 7q0 8 18 8h22q11 1 20 1h23h78t40 -1t15 -3t2 -6q0 -3 -1 -4.5t-6.5 -2t-18 -1t-35.5 -1.5q-27 -1 -31 -11q-1 -2 -1.5 -5t-1 -10t-0.5 -18.5v-30.5l1 -116v-64.5v-48v-39.5v-39t0.5 -47.5
t0.5 -64.5v-170q0 -17 -7 -17q-4 0 -23 20.5t-50.5 57.5t-72.5 88t-89 111.5t-100.5 128.5t-105.5 138v-74q0 -24 0.5 -39.5t0.5 -26v-18v-16.5v-311q0 -13 2.5 -18t10.5 -8t22.5 -5.5t26.5 -2.5q25 0 31.5 -2t6.5 -7q0 -8 -15 -8h-6t-9 1q-23 1 -43.5 1.5t-31.5 0.5h-5h-14
t-27.5 -0.5t-45.5 -1.5q-8 -1 -14.5 -1h-9.5q-15 0 -15 8q0 5 7 6.5t37 3.5t42 5t17 11q2 3 3 5t1.5 9t0.5 20.5v37.5v411z" />
    <glyph glyph-name="Odieresis" unicode="&#xd6;" horiz-adv-x="710" 
d="M451 871q24 0 42 -18t18 -43q0 -26 -17.5 -43.5t-43.5 -17.5q-25 0 -43 18.5t-18 43.5q0 24 18 42t44 18zM275 871q25 0 42.5 -18t17.5 -43q0 -26 -17.5 -43.5t-43.5 -17.5q-25 0 -43 18.5t-18 43.5q0 24 18.5 42t43.5 18zM357 685q-34 0 -61.5 -22.5t-47 -64.5t-30 -101
t-10.5 -132q0 -103 18.5 -184.5t53.5 -132.5q15 -22 37.5 -33t49.5 -11q65 0 93 63q20 47 31 116.5t11 145.5q0 45 -3.5 88.5t-9.5 81.5t-14.5 70t-19.5 54q-31 62 -98 62zM361 702q67 0 125 -27.5t101 -75.5t67 -113t24 -141q0 -75 -25 -140t-68.5 -113.5t-102.5 -76
t-127 -27.5q-66 0 -125 28t-103 77t-69.5 114t-25.5 139q0 76 25 141t69.5 113t104.5 75t130 27z" />
    <glyph glyph-name="Oacute" unicode="&#xd3;" horiz-adv-x="710" 
d="M522 894q-6 -6 -9 -8q-16 -14 -40.5 -36t-57.5 -51q-14 -11 -26.5 -23t-24.5 -23q-20 -18 -24 -18t-4 4q0 1 0.5 3t3.5 9.5t9.5 24t18.5 46.5q3 8 10 26.5t17 46.5q21 -1 45.5 -1h47.5h34zM357 685q-34 0 -61.5 -22.5t-47 -64.5t-30 -101t-10.5 -132q0 -103 18.5 -184.5
t53.5 -132.5q15 -22 37.5 -33t49.5 -11q65 0 93 63q20 47 31 116.5t11 145.5q0 45 -3.5 88.5t-9.5 81.5t-14.5 70t-19.5 54q-31 62 -98 62zM361 702q67 0 125 -27.5t101 -75.5t67 -113t24 -141q0 -75 -25 -140t-68.5 -113.5t-102.5 -76t-127 -27.5q-66 0 -125 28t-103 77
t-69.5 114t-25.5 139q0 76 25 141t69.5 113t104.5 75t130 27z" />
    <glyph glyph-name="Ograve" unicode="&#xd2;" horiz-adv-x="710" 
d="M240 894h47.5t44.5 1q14 -39 26.5 -71t22.5 -58l8 -20q2 -4 2 -7q0 -4 -4 -4q-6 0 -24 18q-26 24 -63 57t-86 76q-3 2 -9 8h35zM357 685q-34 0 -61.5 -22.5t-47 -64.5t-30 -101t-10.5 -132q0 -103 18.5 -184.5t53.5 -132.5q15 -22 37.5 -33t49.5 -11q65 0 93 63
q20 47 31 116.5t11 145.5q0 45 -3.5 88.5t-9.5 81.5t-14.5 70t-19.5 54q-31 62 -98 62zM361 702q67 0 125 -27.5t101 -75.5t67 -113t24 -141q0 -75 -25 -140t-68.5 -113.5t-102.5 -76t-127 -27.5q-66 0 -125 28t-103 77t-69.5 114t-25.5 139q0 76 25 141t69.5 113t104.5 75
t130 27z" />
    <glyph glyph-name="Ocircumflex" unicode="&#xd4;" horiz-adv-x="710" 
d="M417 741q-23 25 -43.5 53t-28.5 47q-12 -18 -19.5 -29.5t-13 -19t-10.5 -13.5t-12 -13q-15 -16 -22 -21.5t-12 -5.5q-6 0 -6 5q0 2 1.5 3.5l11.5 11.5q47 42 93 136q10 18 13.5 23t7.5 5q5 0 11 -11q30 -52 62.5 -97.5t58.5 -73.5h-92zM357 685q-34 0 -61.5 -22.5
t-47 -64.5t-30 -101t-10.5 -132q0 -103 18.5 -184.5t53.5 -132.5q15 -22 37.5 -33t49.5 -11q65 0 93 63q20 47 31 116.5t11 145.5q0 45 -3.5 88.5t-9.5 81.5t-14.5 70t-19.5 54q-31 62 -98 62zM361 702q67 0 125 -27.5t101 -75.5t67 -113t24 -141q0 -75 -25 -140
t-68.5 -113.5t-102.5 -76t-127 -27.5q-66 0 -125 28t-103 77t-69.5 114t-25.5 139q0 76 25 141t69.5 113t104.5 75t130 27z" />
    <glyph glyph-name="Otilde" unicode="&#xd5;" horiz-adv-x="710" 
d="M312 874q8 0 15.5 -1.5t20.5 -6.5t34 -15t56 -26q9 -4 19.5 -7t15.5 -3q8 0 13 7.5t12 30.5q3 11 9 11q5 0 5 -5q0 -3 -1.5 -10t-4 -16t-5.5 -18.5t-6 -15.5q-16 -42 -55 -42q-9 0 -15 1t-18.5 5.5t-34.5 14.5t-62 28q-11 5 -22 8t-18 3q-8 0 -14.5 -5.5t-6.5 -13.5
q0 -13 14 -23q8 -5 8 -11t-5 -6t-10.5 4.5t-10 11t-7.5 14.5t-3 15q0 13 6.5 26t17.5 23t24.5 16t28.5 6zM357 685q-34 0 -61.5 -22.5t-47 -64.5t-30 -101t-10.5 -132q0 -103 18.5 -184.5t53.5 -132.5q15 -22 37.5 -33t49.5 -11q65 0 93 63q20 47 31 116.5t11 145.5
q0 45 -3.5 88.5t-9.5 81.5t-14.5 70t-19.5 54q-31 62 -98 62zM361 702q67 0 125 -27.5t101 -75.5t67 -113t24 -141q0 -75 -25 -140t-68.5 -113.5t-102.5 -76t-127 -27.5q-66 0 -125 28t-103 77t-69.5 114t-25.5 139q0 76 25 141t69.5 113t104.5 75t130 27z" />
    <glyph glyph-name="Udieresis" unicode="&#xdc;" horiz-adv-x="624" 
d="M439 871q24 0 42 -18t18 -43q0 -26 -17.5 -43.5t-43.5 -17.5q-25 0 -43 18.5t-18 43.5q0 24 18 42t44 18zM263 871q25 0 42.5 -18t17.5 -43q0 -26 -17.5 -43.5t-43.5 -17.5q-25 0 -43 18.5t-18 43.5q0 24 18.5 42t43.5 18zM542 219q0 -236 -226 -236q-57 0 -103 18
t-77 53q-48 52 -48 188v384q0 16 -1.5 25t-8.5 14t-21.5 7t-41.5 4q-11 0 -11 8q0 9 18 9h8.5t14.5 -1l62 -1h84h46.5t24.5 0.5t19 0.5h21q17 0 17 -10q0 -5 -7 -7t-24 -2q-26 0 -35.5 -3.5t-11.5 -12.5q-1 -3 -1.5 -7.5t-0.5 -13.5v-99v-275q0 -48 1.5 -80.5t6 -54.5
t12.5 -36t20 -26q36 -36 97 -36q68 0 100 44q22 29 30.5 71t8.5 119v292v38q1 12 1 23v17q0 23 -11 31t-43 9q-21 0 -28.5 2.5t-7.5 9.5q0 8 14 8q5 0 17 -0.5t28 -1.5q11 -1 21.5 -1h21.5h17.5t30.5 1h24q17 0 24 -2t7 -7t-5.5 -6.5t-28.5 -2.5t-34.5 -4t-16.5 -10
q-2 -3 -2.5 -6.5l-1.5 -10.5v-66v-357z" />
    <glyph glyph-name="Uacute" unicode="&#xda;" horiz-adv-x="624" 
d="M498 894q-6 -6 -9 -8q-16 -14 -40.5 -36t-57.5 -51q-14 -11 -26.5 -23t-24.5 -23q-20 -18 -24 -18t-4 4q0 1 0.5 3t3.5 9.5t9.5 24t18.5 46.5q3 8 10 26.5t17 46.5q21 -1 45.5 -1h47.5h34zM542 219q0 -236 -226 -236q-57 0 -103 18t-77 53q-48 52 -48 188v384
q0 16 -1.5 25t-8.5 14t-21.5 7t-41.5 4q-11 0 -11 8q0 9 18 9h8.5t14.5 -1l62 -1h84h46.5t24.5 0.5t19 0.5h21q17 0 17 -10q0 -5 -7 -7t-24 -2q-26 0 -35.5 -3.5t-11.5 -12.5q-1 -3 -1.5 -7.5t-0.5 -13.5v-99v-275q0 -48 1.5 -80.5t6 -54.5t12.5 -36t20 -26q36 -36 97 -36
q68 0 100 44q22 29 30.5 71t8.5 119v292v38q1 12 1 23v17q0 23 -11 31t-43 9q-21 0 -28.5 2.5t-7.5 9.5q0 8 14 8q5 0 17 -0.5t28 -1.5q11 -1 21.5 -1h21.5h17.5t30.5 1h24q17 0 24 -2t7 -7t-5.5 -6.5t-28.5 -2.5t-34.5 -4t-16.5 -10q-2 -3 -2.5 -6.5l-1.5 -10.5v-66v-357z
" />
    <glyph glyph-name="Ugrave" unicode="&#xd9;" horiz-adv-x="624" 
d="M234 894h47.5t44.5 1q14 -39 26.5 -71t22.5 -58l8 -20q2 -4 2 -7q0 -4 -4 -4q-6 0 -24 18q-26 24 -63 57t-86 76q-3 2 -9 8h35zM542 219q0 -236 -226 -236q-57 0 -103 18t-77 53q-48 52 -48 188v384q0 16 -1.5 25t-8.5 14t-21.5 7t-41.5 4q-11 0 -11 8q0 9 18 9h8.5
t14.5 -1l62 -1h84h46.5t24.5 0.5t19 0.5h21q17 0 17 -10q0 -5 -7 -7t-24 -2q-26 0 -35.5 -3.5t-11.5 -12.5q-1 -3 -1.5 -7.5t-0.5 -13.5v-99v-275q0 -48 1.5 -80.5t6 -54.5t12.5 -36t20 -26q36 -36 97 -36q68 0 100 44q22 29 30.5 71t8.5 119v292v38q1 12 1 23v17
q0 23 -11 31t-43 9q-21 0 -28.5 2.5t-7.5 9.5q0 8 14 8q5 0 17 -0.5t28 -1.5q11 -1 21.5 -1h21.5h17.5t30.5 1h24q17 0 24 -2t7 -7t-5.5 -6.5t-28.5 -2.5t-34.5 -4t-16.5 -10q-2 -3 -2.5 -6.5l-1.5 -10.5v-66v-357z" />
    <glyph glyph-name="Ucircumflex" unicode="&#xdb;" horiz-adv-x="624" 
d="M380 741q-23 25 -43.5 53t-28.5 47q-12 -18 -19.5 -29.5t-13 -19t-10.5 -13.5t-12 -13q-15 -16 -22 -21.5t-12 -5.5q-6 0 -6 5q0 2 1.5 3.5l11.5 11.5q47 42 93 136q10 18 13.5 23t7.5 5q5 0 11 -11q30 -52 62.5 -97.5t58.5 -73.5h-92zM542 219q0 -236 -226 -236
q-57 0 -103 18t-77 53q-48 52 -48 188v384q0 16 -1.5 25t-8.5 14t-21.5 7t-41.5 4q-11 0 -11 8q0 9 18 9h8.5t14.5 -1l62 -1h84h46.5t24.5 0.5t19 0.5h21q17 0 17 -10q0 -5 -7 -7t-24 -2q-26 0 -35.5 -3.5t-11.5 -12.5q-1 -3 -1.5 -7.5t-0.5 -13.5v-99v-275q0 -48 1.5 -80.5
t6 -54.5t12.5 -36t20 -26q36 -36 97 -36q68 0 100 44q22 29 30.5 71t8.5 119v292v38q1 12 1 23v17q0 23 -11 31t-43 9q-21 0 -28.5 2.5t-7.5 9.5q0 8 14 8q5 0 17 -0.5t28 -1.5q11 -1 21.5 -1h21.5h17.5t30.5 1h24q17 0 24 -2t7 -7t-5.5 -6.5t-28.5 -2.5t-34.5 -4t-16.5 -10
q-2 -3 -2.5 -6.5l-1.5 -10.5v-66v-357z" />
    <glyph glyph-name="Ydieresis" unicode="&#x178;" horiz-adv-x="548" 
d="M406 871q24 0 42 -18t18 -43q0 -26 -17.5 -43.5t-43.5 -17.5q-25 0 -43 18.5t-18 43.5q0 24 18 42t44 18zM230 871q25 0 42.5 -18t17.5 -43q0 -26 -17.5 -43.5t-43.5 -17.5q-25 0 -43 18.5t-18 43.5q0 24 18.5 42t43.5 18zM253 692q13 1 21 1h10q20 0 20 -8q0 -6 -5 -7
t-35 -2q-32 -2 -43.5 -7t-11.5 -17q0 -8 1 -14t6 -18.5t16 -35t31 -62.5q26 -53 40 -81.5t22 -44t12 -22.5t10 -16q18 32 38 73.5t50 108.5q16 36 25 55.5t13 30t4.5 15.5t0.5 11q0 22 -29 22q-29 -1 -36.5 0.5t-7.5 8.5q0 10 19 10l28 -1h28.5h19.5t19 -0.5t28 -0.5h38
q23 0 23 -10q0 -8 -13 -8q-20 -1 -32 -2t-19.5 -2.5t-11.5 -4t-8 -5.5q-5 -1 -26 -42.5t-50 -106.5q-10 -24 -20.5 -47t-21.5 -45q-18 -35 -27.5 -55t-14 -36t-5 -33t-0.5 -46v-156l1 -45q1 -17 15 -22.5t57 -6.5q22 0 22 -10q0 -8 -19 -8h-10.5h-12.5t-22.5 0.5t-41.5 1.5
l-80 1q-6 0 -26.5 -0.5t-49.5 -1.5l-63 -1q-16 0 -16 8t14 8q33 1 54 4.5t24 8.5q6 6 7 32v68v169q-8 22 -16.5 42t-19 43t-25.5 51.5t-37 69.5q-24 45 -43.5 81t-30.5 59q-9 18 -21 24.5t-36 6.5h-11q-3 -1 -6 -1h-4q-20 0 -20 11q0 5 4 7t17 2h2.5h6t13 -0.5l25.5 -1.5
l118 -1h11.5h11t16 0.5t27.5 0.5h59z" />
    <glyph glyph-name="adieresis" unicode="&#xe4;" horiz-adv-x="445" 
d="M312 636q24 0 42 -18t18 -43q0 -26 -17.5 -43.5t-43.5 -17.5q-25 0 -43 18.5t-18 43.5t18 42.5t44 17.5zM137 636q24 0 41.5 -18t17.5 -43q0 -26 -17.5 -43.5t-43.5 -17.5q-25 0 -43 18.5t-18 43.5q0 24 18.5 42t44.5 18zM255 221q-51 -10 -74 -36t-23 -74q0 -32 13 -51
t35 -19q27 0 38 29.5t11 101.5v49zM255 255q-1 40 -1.5 61.5t-1 33.5t-2 18.5t-3.5 14.5q-14 50 -71 50q-33 0 -52 -18q-9 -9 -15 -19.5t-6 -18.5q0 -6 4.5 -8.5t19.5 -3.5q16 -2 26 -14t10 -30q0 -23 -14.5 -37t-37.5 -14q-29 0 -47.5 17.5t-18.5 44.5q0 44 43 78
q23 19 49.5 27t63.5 8q97 0 135 -29q12 -9 20.5 -19.5t13.5 -23.5t7 -31t2 -42v-171q0 -30 1.5 -49.5t4.5 -31t9 -15.5t15 -4q16 0 42 24q5 5 8 5q5 0 5 -5q0 -8 -16 -22q-23 -21 -47.5 -30t-58.5 -9q-42 0 -60 16.5t-24 61.5q-45 -82 -123 -82q-43 0 -69.5 27t-26.5 70
q0 61 55 99.5t161 49.5v21z" />
    <glyph glyph-name="aacute" unicode="&#xe1;" horiz-adv-x="445" 
d="M363 659h28l-9 -8l-39 -35l-59 -52l-34 -30l-17 -16q-20 -18 -24 -18t-4 4q0 1 0.5 3t3.5 9.5t9.5 24t18.5 46.5q3 8 9.5 24t17.5 48h99zM255 221q-51 -10 -74 -36t-23 -74q0 -32 13 -51t35 -19q27 0 38 29.5t11 101.5v49zM255 255q-1 40 -1.5 61.5t-1 33.5t-2 18.5
t-3.5 14.5q-14 50 -71 50q-33 0 -52 -18q-9 -9 -15 -19.5t-6 -18.5q0 -6 4.5 -8.5t19.5 -3.5q16 -2 26 -14t10 -30q0 -23 -14.5 -37t-37.5 -14q-29 0 -47.5 17.5t-18.5 44.5q0 44 43 78q23 19 49.5 27t63.5 8q97 0 135 -29q12 -9 20.5 -19.5t13.5 -23.5t7 -31t2 -42v-171
q0 -30 1.5 -49.5t4.5 -31t9 -15.5t15 -4q16 0 42 24q5 5 8 5q5 0 5 -5q0 -8 -16 -22q-23 -21 -47.5 -30t-58.5 -9q-42 0 -60 16.5t-24 61.5q-45 -82 -123 -82q-43 0 -69.5 27t-26.5 70q0 61 55 99.5t161 49.5v21z" />
    <glyph glyph-name="agrave" unicode="&#xe0;" horiz-adv-x="445" 
d="M110 659h94q14 -38 26 -70t23 -58l8 -20q2 -4 2 -7q0 -4 -4 -4q-5 0 -24 18q-5 5 -11.5 10.5t-16.5 14.5l-25 22.5t-37 33.5q-15 13 -29.5 25.5t-29.5 26.5q-3 2 -9 8h33zM255 221q-51 -10 -74 -36t-23 -74q0 -32 13 -51t35 -19q27 0 38 29.5t11 101.5v49zM255 255
q-1 40 -1.5 61.5t-1 33.5t-2 18.5t-3.5 14.5q-14 50 -71 50q-33 0 -52 -18q-9 -9 -15 -19.5t-6 -18.5q0 -6 4.5 -8.5t19.5 -3.5q16 -2 26 -14t10 -30q0 -23 -14.5 -37t-37.5 -14q-29 0 -47.5 17.5t-18.5 44.5q0 44 43 78q23 19 49.5 27t63.5 8q97 0 135 -29
q12 -9 20.5 -19.5t13.5 -23.5t7 -31t2 -42v-171q0 -30 1.5 -49.5t4.5 -31t9 -15.5t15 -4q16 0 42 24q5 5 8 5q5 0 5 -5q0 -8 -16 -22q-23 -21 -47.5 -30t-58.5 -9q-42 0 -60 16.5t-24 61.5q-45 -82 -123 -82q-43 0 -69.5 27t-26.5 70q0 61 55 99.5t161 49.5v21z" />
    <glyph glyph-name="acircumflex" unicode="&#xe2;" horiz-adv-x="445" 
d="M278 506q-24 26 -43.5 53t-28.5 46q-12 -18 -19.5 -29t-13 -18.5t-10.5 -13.5t-12 -13q-15 -16 -22 -21.5t-12 -5.5q-6 0 -6 4q0 2 1.5 4t11.5 12q23 20 46.5 55t46.5 80q10 18 13.5 23t7.5 5q5 0 11 -11q31 -52 63 -96.5t58 -73.5h-92zM255 221q-51 -10 -74 -36t-23 -74
q0 -32 13 -51t35 -19q27 0 38 29.5t11 101.5v49zM255 255q-1 40 -1.5 61.5t-1 33.5t-2 18.5t-3.5 14.5q-14 50 -71 50q-33 0 -52 -18q-9 -9 -15 -19.5t-6 -18.5q0 -6 4.5 -8.5t19.5 -3.5q16 -2 26 -14t10 -30q0 -23 -14.5 -37t-37.5 -14q-29 0 -47.5 17.5t-18.5 44.5
q0 44 43 78q23 19 49.5 27t63.5 8q97 0 135 -29q12 -9 20.5 -19.5t13.5 -23.5t7 -31t2 -42v-171q0 -30 1.5 -49.5t4.5 -31t9 -15.5t15 -4q16 0 42 24q5 5 8 5q5 0 5 -5q0 -8 -16 -22q-23 -21 -47.5 -30t-58.5 -9q-42 0 -60 16.5t-24 61.5q-45 -82 -123 -82q-43 0 -69.5 27
t-26.5 70q0 61 55 99.5t161 49.5v21z" />
    <glyph glyph-name="atilde" unicode="&#xe3;" horiz-adv-x="445" 
d="M176 638q8 0 15.5 -1.5t20.5 -6.5t34 -14.5t56 -25.5q9 -4 19.5 -7t15.5 -3q8 0 13 7.5t12 30.5q3 11 9 11q5 0 5 -5q0 -3 -1.5 -10t-4 -16t-5.5 -18.5t-6 -15.5q-16 -42 -55 -42q-9 0 -15 0.5t-18.5 5t-34.5 14.5t-62 28q-11 5 -22 8t-18 3q-8 0 -14.5 -5.5t-6.5 -13.5
q0 -12 14 -22q8 -7 8 -12t-6 -5q-9 0 -19.5 15t-10.5 29q0 13 6.5 26t17.5 23t24.5 16t28.5 6zM255 221q-51 -10 -74 -36t-23 -74q0 -32 13 -51t35 -19q27 0 38 29.5t11 101.5v49zM255 255q-1 40 -1.5 61.5t-1 33.5t-2 18.5t-3.5 14.5q-14 50 -71 50q-33 0 -52 -18
q-9 -9 -15 -19.5t-6 -18.5q0 -6 4.5 -8.5t19.5 -3.5q16 -2 26 -14t10 -30q0 -23 -14.5 -37t-37.5 -14q-29 0 -47.5 17.5t-18.5 44.5q0 44 43 78q23 19 49.5 27t63.5 8q97 0 135 -29q12 -9 20.5 -19.5t13.5 -23.5t7 -31t2 -42v-171q0 -30 1.5 -49.5t4.5 -31t9 -15.5t15 -4
q16 0 42 24q5 5 8 5q5 0 5 -5q0 -8 -16 -22q-23 -21 -47.5 -30t-58.5 -9q-42 0 -60 16.5t-24 61.5q-45 -82 -123 -82q-43 0 -69.5 27t-26.5 70q0 61 55 99.5t161 49.5v21z" />
    <glyph glyph-name="aring" unicode="&#xe5;" horiz-adv-x="445" 
d="M229 647q-23 0 -39 -17.5t-16 -42.5q0 -24 16.5 -41t39.5 -17q25 0 41 16.5t16 42.5t-16.5 42.5t-41.5 16.5zM232 677q18 0 33.5 -7t27.5 -19.5t19 -28.5t7 -34q0 -37 -26 -63t-63 -26q-18 0 -34 7t-28 19t-19 28.5t-7 34.5q0 37 26.5 63t63.5 26zM255 221
q-51 -10 -74 -36t-23 -74q0 -32 13 -51t35 -19q27 0 38 29.5t11 101.5v49zM255 255q-1 40 -1.5 61.5t-1 33.5t-2 18.5t-3.5 14.5q-14 50 -71 50q-33 0 -52 -18q-9 -9 -15 -19.5t-6 -18.5q0 -6 4.5 -8.5t19.5 -3.5q16 -2 26 -14t10 -30q0 -23 -14.5 -37t-37.5 -14
q-29 0 -47.5 17.5t-18.5 44.5q0 44 43 78q23 19 49.5 27t63.5 8q97 0 135 -29q12 -9 20.5 -19.5t13.5 -23.5t7 -31t2 -42v-171q0 -30 1.5 -49.5t4.5 -31t9 -15.5t15 -4q16 0 42 24q5 5 8 5q5 0 5 -5q0 -8 -16 -22q-23 -21 -47.5 -30t-58.5 -9q-42 0 -60 16.5t-24 61.5
q-45 -82 -123 -82q-43 0 -69.5 27t-26.5 70q0 61 55 99.5t161 49.5v21z" />
    <glyph glyph-name="edieresis" unicode="&#xeb;" horiz-adv-x="440" 
d="M343 636q24 0 42 -18t18 -43q0 -26 -17.5 -43.5t-43.5 -17.5q-25 0 -43 18.5t-18 43.5t18 42.5t44 17.5zM168 636q24 0 41.5 -18t17.5 -43q0 -26 -17.5 -43.5t-43.5 -17.5q-25 0 -43 18.5t-18 43.5q0 24 18.5 42t44.5 18zM178 296q16 1 35 1h53h18.5t16.5 -1
q1 77 -11 107t-42 30q-61 0 -70 -137zM424 284q-18 -2 -60 -2.5t-125 -0.5q-14 0 -22.5 -0.5t-15 -0.5t-12 -0.5t-13.5 -0.5q-2 -18 -2.5 -31t-0.5 -30q0 -61 11.5 -100.5t37.5 -65.5q13 -13 32.5 -21t38.5 -8q35 0 67.5 24t49.5 62q8 19 13 19q4 0 4 -6q0 -10 -7.5 -26.5
t-18.5 -31.5q-27 -38 -64.5 -57.5t-81.5 -19.5q-50 0 -92.5 17t-73.5 47t-48 72t-17 92q0 49 16.5 91t46 72.5t70 48t87.5 17.5q95 0 142 -57q19 -23 27.5 -45.5t10.5 -57.5z" />
    <glyph glyph-name="eacute" unicode="&#xe9;" horiz-adv-x="440" 
d="M376 659h28l-9 -8l-39 -35l-59 -52l-34 -30l-17 -16q-20 -18 -24 -18t-4 4q0 1 0.5 3t3.5 9.5t9.5 24t18.5 46.5q3 8 9.5 24t17.5 48h99zM178 296q16 1 35 1h53h18.5t16.5 -1q1 77 -11 107t-42 30q-61 0 -70 -137zM424 284q-18 -2 -60 -2.5t-125 -0.5q-14 0 -22.5 -0.5
t-15 -0.5t-12 -0.5t-13.5 -0.5q-2 -18 -2.5 -31t-0.5 -30q0 -61 11.5 -100.5t37.5 -65.5q13 -13 32.5 -21t38.5 -8q35 0 67.5 24t49.5 62q8 19 13 19q4 0 4 -6q0 -10 -7.5 -26.5t-18.5 -31.5q-27 -38 -64.5 -57.5t-81.5 -19.5q-50 0 -92.5 17t-73.5 47t-48 72t-17 92
q0 49 16.5 91t46 72.5t70 48t87.5 17.5q95 0 142 -57q19 -23 27.5 -45.5t10.5 -57.5z" />
    <glyph glyph-name="egrave" unicode="&#xe8;" horiz-adv-x="440" 
d="M114 659h94q14 -38 26 -70t23 -58l8 -20q2 -4 2 -7q0 -4 -4 -4q-5 0 -24 18q-5 5 -11.5 10.5t-16.5 14.5l-25 22.5t-37 33.5q-15 13 -29.5 25.5t-29.5 26.5q-3 2 -9 8h33zM178 296q16 1 35 1h53h18.5t16.5 -1q1 77 -11 107t-42 30q-61 0 -70 -137zM424 284
q-18 -2 -60 -2.5t-125 -0.5q-14 0 -22.5 -0.5t-15 -0.5t-12 -0.5t-13.5 -0.5q-2 -18 -2.5 -31t-0.5 -30q0 -61 11.5 -100.5t37.5 -65.5q13 -13 32.5 -21t38.5 -8q35 0 67.5 24t49.5 62q8 19 13 19q4 0 4 -6q0 -10 -7.5 -26.5t-18.5 -31.5q-27 -38 -64.5 -57.5t-81.5 -19.5
q-50 0 -92.5 17t-73.5 47t-48 72t-17 92q0 49 16.5 91t46 72.5t70 48t87.5 17.5q95 0 142 -57q19 -23 27.5 -45.5t10.5 -57.5z" />
    <glyph glyph-name="ecircumflex" unicode="&#xea;" horiz-adv-x="440" 
d="M294 506q-24 26 -43.5 53t-28.5 46q-12 -18 -19.5 -29t-13 -18.5t-10.5 -13.5t-12 -13q-15 -16 -22 -21.5t-12 -5.5q-6 0 -6 4q0 2 1.5 4t11.5 12q23 20 46.5 55t46.5 80q10 18 13.5 23t7.5 5q5 0 11 -11q31 -52 63 -96.5t58 -73.5h-92zM178 296q16 1 35 1h53h18.5
t16.5 -1q1 77 -11 107t-42 30q-61 0 -70 -137zM424 284q-18 -2 -60 -2.5t-125 -0.5q-14 0 -22.5 -0.5t-15 -0.5t-12 -0.5t-13.5 -0.5q-2 -18 -2.5 -31t-0.5 -30q0 -61 11.5 -100.5t37.5 -65.5q13 -13 32.5 -21t38.5 -8q35 0 67.5 24t49.5 62q8 19 13 19q4 0 4 -6
q0 -10 -7.5 -26.5t-18.5 -31.5q-27 -38 -64.5 -57.5t-81.5 -19.5q-50 0 -92.5 17t-73.5 47t-48 72t-17 92q0 49 16.5 91t46 72.5t70 48t87.5 17.5q95 0 142 -57q19 -23 27.5 -45.5t10.5 -57.5z" />
    <glyph glyph-name="idieresis" unicode="&#xef;" horiz-adv-x="291" 
d="M235 642q26 0 46 -20t20 -47q0 -29 -19.5 -48.5t-48.5 -19.5q-27 0 -47 20t-20 48q0 27 20.5 47t48.5 20zM60 642q27 0 46.5 -20t19.5 -47q0 -29 -19.5 -48.5t-48.5 -19.5q-27 0 -47 20t-20 48q0 27 20.5 47t48.5 20zM85 347q0 19 -1 29.5t-5.5 16t-14 6.5t-25.5 1
q-21 0 -24.5 1t-3.5 7q0 7 15 7q31 0 56 2t46.5 5.5t42 10t43.5 16.5q1 -9 2 -14.5t1.5 -11.5t1 -15t0.5 -25l1 -127v-188q0 -21 1 -32t6.5 -16t17.5 -6t34 -1q11 0 11 -7t-9 -7l-133 2l-96 -2q-8 -1 -15 -1h-9q-12 0 -12 8q0 5 3 5.5t20 1.5q17 0 26 1.5t13.5 6t5.5 13.5
t1 26v287z" />
    <glyph glyph-name="iacute" unicode="&#xed;" horiz-adv-x="291" 
d="M283 659h28l-9 -8l-39 -35l-59 -52l-34 -30l-17 -16q-20 -18 -24 -18t-4 4q0 1 0.5 3t3.5 9.5t9.5 24t18.5 46.5q3 8 9.5 24t17.5 48h99zM85 347q0 19 -1 29.5t-5.5 16t-14 6.5t-25.5 1q-21 0 -24.5 1t-3.5 7q0 7 15 7q31 0 56 2t46.5 5.5t42 10t43.5 16.5q1 -9 2 -14.5
t1.5 -11.5t1 -15t0.5 -25l1 -127v-188q0 -21 1 -32t6.5 -16t17.5 -6t34 -1q11 0 11 -7t-9 -7l-133 2l-96 -2q-8 -1 -15 -1h-9q-12 0 -12 8q0 5 3 5.5t20 1.5q17 0 26 1.5t13.5 6t5.5 13.5t1 26v287z" />
    <glyph glyph-name="igrave" unicode="&#xec;" horiz-adv-x="291" 
d="M40 659h94q14 -38 26 -70t23 -58l8 -20q2 -4 2 -7q0 -4 -4 -4q-5 0 -24 18q-5 5 -11.5 10.5t-16.5 14.5l-25 22.5t-37 33.5q-15 13 -29.5 25.5t-29.5 26.5q-3 2 -9 8h33zM85 347q0 19 -1 29.5t-5.5 16t-14 6.5t-25.5 1q-21 0 -24.5 1t-3.5 7q0 7 15 7q31 0 56 2t46.5 5.5
t42 10t43.5 16.5q1 -9 2 -14.5t1.5 -11.5t1 -15t0.5 -25l1 -127v-188q0 -21 1 -32t6.5 -16t17.5 -6t34 -1q11 0 11 -7t-9 -7l-133 2l-96 -2q-8 -1 -15 -1h-9q-12 0 -12 8q0 5 3 5.5t20 1.5q17 0 26 1.5t13.5 6t5.5 13.5t1 26v287z" />
    <glyph glyph-name="icircumflex" unicode="&#xee;" horiz-adv-x="291" 
d="M183 506q-24 26 -43.5 53t-28.5 46q-12 -18 -19.5 -29t-13 -18.5t-10.5 -13.5t-12 -13q-15 -16 -22 -21.5t-12 -5.5q-6 0 -6 4q0 2 1.5 4t11.5 12q23 20 46.5 55t46.5 80q10 18 13.5 23t7.5 5q5 0 11 -11q31 -52 63 -96.5t58 -73.5h-92zM85 347q0 19 -1 29.5t-5.5 16
t-14 6.5t-25.5 1q-21 0 -24.5 1t-3.5 7q0 7 15 7q31 0 56 2t46.5 5.5t42 10t43.5 16.5q1 -9 2 -14.5t1.5 -11.5t1 -15t0.5 -25l1 -127v-188q0 -21 1 -32t6.5 -16t17.5 -6t34 -1q11 0 11 -7t-9 -7l-133 2l-96 -2q-8 -1 -15 -1h-9q-12 0 -12 8q0 5 3 5.5t20 1.5q17 0 26 1.5
t13.5 6t5.5 13.5t1 26v287z" />
    <glyph glyph-name="ntilde" unicode="&#xf1;" horiz-adv-x="543" 
d="M232 638q8 0 15.5 -1.5t20.5 -6.5t34 -14.5t56 -25.5q9 -4 19.5 -7t15.5 -3q8 0 13 7.5t12 30.5q3 11 9 11q5 0 5 -5q0 -3 -1.5 -10t-4 -16t-5.5 -18.5t-6 -15.5q-16 -42 -55 -42q-9 0 -15 0.5t-18.5 5t-34.5 14.5t-62 28q-11 5 -22 8t-18 3q-8 0 -14.5 -5.5t-6.5 -13.5
q0 -12 14 -22q8 -7 8 -12t-6 -5q-9 0 -19.5 15t-10.5 29q0 13 6.5 26t17.5 23t24.5 16t28.5 6zM22 383q-16 0 -16 7q0 8 12 8q60 3 101.5 13.5t77.5 33.5q8 4 11 4q8 0 8 -16v-30.5t-1 -26.5q29 38 59.5 53.5t76.5 15.5q86 0 112 -60q5 -13 8.5 -25t5 -31.5t2 -49.5t0.5 -78
v-145q0 -15 0.5 -23.5t4 -12.5t11 -5t20.5 -1q19 0 24 -1.5t5 -6.5t-4 -6.5t-21 -1.5h-12h-14t-25 0.5t-45 1.5h-32l-86 -1q-14 0 -14 8q0 7 12 7h8q13 0 20 1t10.5 5.5t4 15t0.5 29.5v193q0 35 -0.5 57t-2 35.5t-4.5 21t-7 14.5q-11 18 -43 18q-31 0 -51 -19t-20 -48v-73
v-189l1 -41q2 -12 8.5 -15t32.5 -5q8 0 8 -6q0 -3 -1 -4.5t-6 -2.5t-17 -1h-33h-29.5h-17t-11.5 -0.5t-13 -0.5q-13 0 -28.5 -0.5l-31 -1t-29.5 -0.5h-23q-12 0 -12 7q0 5 5 6.5t25 1.5q14 0 24 3.5t12 8.5l3 14v30v200v56v29.5t-0.5 11.5t-1.5 4q-3 15 -27 15h-8.5
t-14.5 -1h-11z" />
    <glyph glyph-name="odieresis" unicode="&#xf6;" horiz-adv-x="508" 
d="M350 636q24 0 42 -18t18 -43q0 -26 -17.5 -43.5t-43.5 -17.5q-25 0 -43 18.5t-18 43.5t18 42.5t44 17.5zM175 636q24 0 41.5 -18t17.5 -43q0 -26 -17.5 -43.5t-43.5 -17.5q-25 0 -43 18.5t-18 43.5q0 24 18.5 42t44.5 18zM255 432q-39 0 -61 -53t-22 -148q0 -28 2 -56
t5.5 -53t8 -45t10.5 -32q11 -24 24.5 -34t34.5 -10q48 0 62 56q3 9 5.5 27.5t4.5 40t3 44.5t1 42q0 25 -1.5 51.5t-3.5 49.5t-5.5 41t-6.5 28q-20 51 -61 51zM258 445q46 0 87.5 -18.5t72 -50t48.5 -74t18 -90.5q0 -107 -84 -173q-67 -52 -145 -52q-47 0 -89 18t-73.5 49
t-50 72.5t-18.5 87.5q0 48 18.5 90t50 73.5t74 49.5t91.5 18z" />
    <glyph glyph-name="oacute" unicode="&#xf3;" horiz-adv-x="508" 
d="M386 659h28l-9 -8l-39 -35l-59 -52l-34 -30l-17 -16q-20 -18 -24 -18t-4 4q0 1 0.5 3t3.5 9.5t9.5 24t18.5 46.5q3 8 9.5 24t17.5 48h99zM255 432q-39 0 -61 -53t-22 -148q0 -28 2 -56t5.5 -53t8 -45t10.5 -32q11 -24 24.5 -34t34.5 -10q48 0 62 56q3 9 5.5 27.5t4.5 40
t3 44.5t1 42q0 25 -1.5 51.5t-3.5 49.5t-5.5 41t-6.5 28q-20 51 -61 51zM258 445q46 0 87.5 -18.5t72 -50t48.5 -74t18 -90.5q0 -107 -84 -173q-67 -52 -145 -52q-47 0 -89 18t-73.5 49t-50 72.5t-18.5 87.5q0 48 18.5 90t50 73.5t74 49.5t91.5 18z" />
    <glyph glyph-name="ograve" unicode="&#xf2;" horiz-adv-x="508" 
d="M136 659h94q14 -38 26 -70t23 -58l8 -20q2 -4 2 -7q0 -4 -4 -4q-5 0 -24 18q-5 5 -11.5 10.5t-16.5 14.5l-25 22.5t-37 33.5q-15 13 -29.5 25.5t-29.5 26.5q-3 2 -9 8h33zM255 432q-39 0 -61 -53t-22 -148q0 -28 2 -56t5.5 -53t8 -45t10.5 -32q11 -24 24.5 -34t34.5 -10
q48 0 62 56q3 9 5.5 27.5t4.5 40t3 44.5t1 42q0 25 -1.5 51.5t-3.5 49.5t-5.5 41t-6.5 28q-20 51 -61 51zM258 445q46 0 87.5 -18.5t72 -50t48.5 -74t18 -90.5q0 -107 -84 -173q-67 -52 -145 -52q-47 0 -89 18t-73.5 49t-50 72.5t-18.5 87.5q0 48 18.5 90t50 73.5t74 49.5
t91.5 18z" />
    <glyph glyph-name="ocircumflex" unicode="&#xf4;" horiz-adv-x="508" 
d="M322 506q-24 26 -43.5 53t-28.5 46q-12 -18 -19.5 -29t-13 -18.5t-10.5 -13.5t-12 -13q-15 -16 -22 -21.5t-12 -5.5q-6 0 -6 4q0 2 1.5 4t11.5 12q23 20 46.5 55t46.5 80q10 18 13.5 23t7.5 5q5 0 11 -11q31 -52 63 -96.5t58 -73.5h-92zM255 432q-39 0 -61 -53t-22 -148
q0 -28 2 -56t5.5 -53t8 -45t10.5 -32q11 -24 24.5 -34t34.5 -10q48 0 62 56q3 9 5.5 27.5t4.5 40t3 44.5t1 42q0 25 -1.5 51.5t-3.5 49.5t-5.5 41t-6.5 28q-20 51 -61 51zM258 445q46 0 87.5 -18.5t72 -50t48.5 -74t18 -90.5q0 -107 -84 -173q-67 -52 -145 -52q-47 0 -89 18
t-73.5 49t-50 72.5t-18.5 87.5q0 48 18.5 90t50 73.5t74 49.5t91.5 18z" />
    <glyph glyph-name="otilde" unicode="&#xf5;" horiz-adv-x="508" 
d="M205 638q8 0 15.5 -1.5t20.5 -6.5t34 -14.5t56 -25.5q9 -4 19.5 -7t15.5 -3q8 0 13 7.5t12 30.5q3 11 9 11q5 0 5 -5q0 -3 -1.5 -10t-4 -16t-5.5 -18.5t-6 -15.5q-16 -42 -55 -42q-9 0 -15 0.5t-18.5 5t-34.5 14.5t-62 28q-11 5 -22 8t-18 3q-8 0 -14.5 -5.5t-6.5 -13.5
q0 -12 14 -22q8 -7 8 -12t-6 -5q-9 0 -19.5 15t-10.5 29q0 13 6.5 26t17.5 23t24.5 16t28.5 6zM255 432q-39 0 -61 -53t-22 -148q0 -28 2 -56t5.5 -53t8 -45t10.5 -32q11 -24 24.5 -34t34.5 -10q48 0 62 56q3 9 5.5 27.5t4.5 40t3 44.5t1 42q0 25 -1.5 51.5t-3.5 49.5
t-5.5 41t-6.5 28q-20 51 -61 51zM258 445q46 0 87.5 -18.5t72 -50t48.5 -74t18 -90.5q0 -107 -84 -173q-67 -52 -145 -52q-47 0 -89 18t-73.5 49t-50 72.5t-18.5 87.5q0 48 18.5 90t50 73.5t74 49.5t91.5 18z" />
    <glyph glyph-name="udieresis" unicode="&#xfc;" horiz-adv-x="543" 
d="M361 636q24 0 42 -18t18 -43q0 -26 -17.5 -43.5t-43.5 -17.5q-25 0 -43 18.5t-18 43.5t18 42.5t44 17.5zM186 636q24 0 41.5 -18t17.5 -43q0 -26 -17.5 -43.5t-43.5 -17.5q-25 0 -43 18.5t-18 43.5q0 24 18.5 42t44.5 18zM472 109q0 -24 0.5 -36.5t2 -19t5 -8.5t9.5 -3
q8 -2 17 -2h37q13 0 13 -8q0 -5 -3 -7t-14 -2q-45 -2 -75 -4t-50.5 -5.5t-34 -9t-26.5 -14.5q-5 -4 -11 -4q-4 0 -4 8v10t1 12q1 7 1 12v9v6.5t-1 9.5q-35 -37 -65.5 -51.5t-71.5 -14.5q-65 0 -104 42q-14 15 -19 36.5t-5 59.5v71v29.5v29.5t0.5 47.5t0.5 82.5q0 11 -1.5 17
t-6 9.5t-12.5 4.5t-23 2q-16 1 -21 2t-5 6q0 8 14 8h11q21 -2 45.5 -2.5t41.5 -0.5h10h11t19 0.5t35 1.5h19v-108q-1 -47 -1.5 -73t-1 -39.5t-0.5 -19v-12.5q0 -32 0.5 -53.5t2 -36.5t4 -24t6.5 -16q13 -27 43 -27q15 0 31.5 10t30.5 27q4 6 6.5 10.5t3.5 12.5t1.5 21
t0.5 35v172q0 38 -0.5 60.5t-1.5 27.5q-2 12 -6.5 15t-18.5 4h-28q-14 0 -14 8q0 2 1 3.5t6 2t16 0.5h31h27h25t36.5 0.5t60.5 0.5q0 -14 -0.5 -26.5t-0.5 -26v-30.5v-39v-203z" />
    <glyph glyph-name="uacute" unicode="&#xfa;" horiz-adv-x="543" 
d="M397 659h28l-9 -8l-39 -35l-59 -52l-34 -30l-17 -16q-20 -18 -24 -18t-4 4q0 1 0.5 3t3.5 9.5t9.5 24t18.5 46.5q3 8 9.5 24t17.5 48h99zM472 109q0 -24 0.5 -36.5t2 -19t5 -8.5t9.5 -3q8 -2 17 -2h37q13 0 13 -8q0 -5 -3 -7t-14 -2q-45 -2 -75 -4t-50.5 -5.5t-34 -9
t-26.5 -14.5q-5 -4 -11 -4q-4 0 -4 8v10t1 12q1 7 1 12v9v6.5t-1 9.5q-35 -37 -65.5 -51.5t-71.5 -14.5q-65 0 -104 42q-14 15 -19 36.5t-5 59.5v71v29.5v29.5t0.5 47.5t0.5 82.5q0 11 -1.5 17t-6 9.5t-12.5 4.5t-23 2q-16 1 -21 2t-5 6q0 8 14 8h11q21 -2 45.5 -2.5
t41.5 -0.5h10h11t19 0.5t35 1.5h19v-108q-1 -47 -1.5 -73t-1 -39.5t-0.5 -19v-12.5q0 -32 0.5 -53.5t2 -36.5t4 -24t6.5 -16q13 -27 43 -27q15 0 31.5 10t30.5 27q4 6 6.5 10.5t3.5 12.5t1.5 21t0.5 35v172q0 38 -0.5 60.5t-1.5 27.5q-2 12 -6.5 15t-18.5 4h-28q-14 0 -14 8
q0 2 1 3.5t6 2t16 0.5h31h27h25t36.5 0.5t60.5 0.5q0 -14 -0.5 -26.5t-0.5 -26v-30.5v-39v-203z" />
    <glyph glyph-name="ugrave" unicode="&#xf9;" horiz-adv-x="543" 
d="M184 659h94q14 -38 26 -70t23 -58l8 -20q2 -4 2 -7q0 -4 -4 -4q-5 0 -24 18q-5 5 -11.5 10.5t-16.5 14.5l-25 22.5t-37 33.5q-15 13 -29.5 25.5t-29.5 26.5q-3 2 -9 8h33zM472 109q0 -24 0.5 -36.5t2 -19t5 -8.5t9.5 -3q8 -2 17 -2h37q13 0 13 -8q0 -5 -3 -7t-14 -2
q-45 -2 -75 -4t-50.5 -5.5t-34 -9t-26.5 -14.5q-5 -4 -11 -4q-4 0 -4 8v10t1 12q1 7 1 12v9v6.5t-1 9.5q-35 -37 -65.5 -51.5t-71.5 -14.5q-65 0 -104 42q-14 15 -19 36.5t-5 59.5v71v29.5v29.5t0.5 47.5t0.5 82.5q0 11 -1.5 17t-6 9.5t-12.5 4.5t-23 2q-16 1 -21 2t-5 6
q0 8 14 8h11q21 -2 45.5 -2.5t41.5 -0.5h10h11t19 0.5t35 1.5h19v-108q-1 -47 -1.5 -73t-1 -39.5t-0.5 -19v-12.5q0 -32 0.5 -53.5t2 -36.5t4 -24t6.5 -16q13 -27 43 -27q15 0 31.5 10t30.5 27q4 6 6.5 10.5t3.5 12.5t1.5 21t0.5 35v172q0 38 -0.5 60.5t-1.5 27.5
q-2 12 -6.5 15t-18.5 4h-28q-14 0 -14 8q0 2 1 3.5t6 2t16 0.5h31h27h25t36.5 0.5t60.5 0.5q0 -14 -0.5 -26.5t-0.5 -26v-30.5v-39v-203z" />
    <glyph glyph-name="ucircumflex" unicode="&#xfb;" horiz-adv-x="543" 
d="M309 506q-24 26 -43.5 53t-28.5 46q-12 -18 -19.5 -29t-13 -18.5t-10.5 -13.5t-12 -13q-15 -16 -22 -21.5t-12 -5.5q-6 0 -6 4q0 2 1.5 4t11.5 12q23 20 46.5 55t46.5 80q10 18 13.5 23t7.5 5q5 0 11 -11q31 -52 63 -96.5t58 -73.5h-92zM472 109q0 -24 0.5 -36.5t2 -19
t5 -8.5t9.5 -3q8 -2 17 -2h37q13 0 13 -8q0 -5 -3 -7t-14 -2q-45 -2 -75 -4t-50.5 -5.5t-34 -9t-26.5 -14.5q-5 -4 -11 -4q-4 0 -4 8v10t1 12q1 7 1 12v9v6.5t-1 9.5q-35 -37 -65.5 -51.5t-71.5 -14.5q-65 0 -104 42q-14 15 -19 36.5t-5 59.5v71v29.5v29.5t0.5 47.5
t0.5 82.5q0 11 -1.5 17t-6 9.5t-12.5 4.5t-23 2q-16 1 -21 2t-5 6q0 8 14 8h11q21 -2 45.5 -2.5t41.5 -0.5h10h11t19 0.5t35 1.5h19v-108q-1 -47 -1.5 -73t-1 -39.5t-0.5 -19v-12.5q0 -32 0.5 -53.5t2 -36.5t4 -24t6.5 -16q13 -27 43 -27q15 0 31.5 10t30.5 27q4 6 6.5 10.5
t3.5 12.5t1.5 21t0.5 35v172q0 38 -0.5 60.5t-1.5 27.5q-2 12 -6.5 15t-18.5 4h-28q-14 0 -14 8q0 2 1 3.5t6 2t16 0.5h31h27h25t36.5 0.5t60.5 0.5q0 -14 -0.5 -26.5t-0.5 -26v-30.5v-39v-203z" />
    <glyph glyph-name="ydieresis" unicode="&#xff;" horiz-adv-x="393" 
d="M310 636q24 0 42 -18t18 -43q0 -26 -17.5 -43.5t-43.5 -17.5q-25 0 -43 18.5t-18 43.5t18 42.5t44 17.5zM135 636q24 0 41.5 -18t17.5 -43q0 -26 -17.5 -43.5t-43.5 -17.5q-25 0 -43 18.5t-18 43.5q0 24 18.5 42t44.5 18zM198 432q5 1 8.5 1h5.5q11 0 11 -7
q0 -5 -4.5 -6.5t-25.5 -1.5q-30 1 -30 -13q0 -8 5 -21q9 -20 15 -43q12 -33 24 -65t22.5 -59.5t19.5 -49t14 -33.5q16 42 33 87.5t30 84.5t21.5 66t8.5 32q0 11 -23 11q-29 0 -38.5 1.5t-9.5 7.5q0 9 12 9h8t12 -1q8 -1 24.5 -1.5t27.5 -0.5q4 0 12 0.5t18 1t19 1t14 0.5h6
q9 0 9 -7t-4 -8t-28 -2q-18 0 -23.5 -0.5t-8.5 -2.5l-6 -11l-12 -35q-8 -26 -17 -50t-19 -47q-11 -31 -22 -61.5t-22 -61.5q-29 -81 -49 -136.5t-34 -93t-24.5 -62t-20.5 -43.5q-36 -72 -92 -72q-32 0 -51.5 19t-19.5 50q0 23 14.5 36t39.5 13q16 0 24 -7.5t22 -32.5
q7 -10 19 -10q10 0 19.5 7.5t19.5 26t22 49t28 77.5q-5 10 -8 17.5t-6 14.5t-7 16t-10 23q-6 15 -16.5 41.5t-22.5 55.5t-23 56.5t-18 45.5q-16 38 -29.5 71t-24.5 60q-7 17 -12 26.5t-12 14t-17.5 6t-28.5 1.5q-12 0 -12 8q0 5 2 6.5t10 1.5h18q24 -2 46 -2h45z" />
    <glyph glyph-name="A" unicode="A" horiz-adv-x="678" 
d="M282 482q-7 -17 -12.5 -30.5t-11 -28t-11.5 -31.5t-14 -41q-9 -27 -15 -44t-9.5 -28t-6.5 -18.5t-6 -16.5h22t22 1h56h21.5t49.5 -1q-4 7 -7 19q-19 54 -33 94.5t-25 68.5q-4 10 -7 19.5t-7 18.5zM356 222l-78 1h-46.5t-42.5 -1q-4 -10 -7.5 -18.5t-7 -18.5t-8 -22.5
t-11.5 -30.5l-22 -65q-5 -15 -5 -24q0 -17 22 -22q4 -1 7 -1.5t7.5 -0.5t12.5 -0.5t22 -1.5q14 0 14 -9t-18 -9l-105 1h-60q-5 -1 -8 -1h-5q-14 0 -14 10q0 5 4 6t27 2q20 1 31.5 3.5t20 12t16 29t19.5 54.5l28 74t27 74q12 31 27 73t31.5 87.5t33 90.5t29.5 82q7 17 13 34
t12 35q5 15 9.5 24.5t7.5 9.5q4 0 8 -9t14 -37q7 -20 17.5 -49t30 -80.5t50.5 -132.5t78 -204q11 -28 20.5 -54t19.5 -52q8 -23 14.5 -35.5t16 -19t24.5 -7.5t41 -1q12 0 12 -9q0 -8 -7.5 -9.5t-38.5 -1.5h-21.5t-23.5 1q-43 1 -70.5 1.5t-31.5 0.5h-26t-32 -1
q-20 -1 -39 -1.5t-29 -0.5q-27 0 -27 10q0 6 10 8t47 3q22 1 29.5 3.5t7.5 10.5v3.5t-1.5 5.5t-4 11.5t-6.5 21.5q-5 17 -10.5 33t-10.5 32q-3 11 -6 20t-5.5 18t-6 19t-8.5 24h-18z" />
    <glyph glyph-name="B" unicode="B" horiz-adv-x="616" 
d="M241 358q1 -20 1.5 -35t0.5 -23v-28.5t-2 -42.5q-1 -26 -1 -44.5v-41.5v-59.5t0.5 -33t2 -15.5t3.5 -7q4 -5 16.5 -8t28.5 -3q123 0 123 168q0 69 -21 111t-60 53q-14 4 -39 6.5t-53 2.5zM241 374q39 0 67.5 5t42.5 15q45 31 45 133q0 75 -22 110t-68 35q-38 0 -51 -7
t-14 -27v-264zM370 365q29 -6 50 -11.5t37 -11.5t28.5 -13t24.5 -17q64 -53 64 -132q0 -63 -38 -107t-105 -59q-18 -4 -31 -6.5t-29.5 -4.5t-39 -3t-58.5 -1.5t-89 -0.5h-129q-32 0 -38 1t-6 7t5.5 7.5t25.5 1.5q17 0 27 2t15 8t6.5 17t1.5 29v513l-1 59q0 16 -10 22t-36 8
q-23 0 -29 1.5t-6 7.5q0 9 22 9q1 0 12 -0.5t29 -1.5h46h194q115 0 173 -40t58 -118q0 -64 -44 -105.5t-128 -56.5z" />
    <glyph glyph-name="C" unicode="C" horiz-adv-x="636" 
d="M600 202q-4 -26 -6.5 -63t-2.5 -68v-25t1 -25q1 -5 1 -9v-8q0 -11 -5 -11t-11 10q-7 12 -12.5 19.5t-10.5 12.5t-10.5 8.5t-13.5 6.5q-41 -35 -77 -49.5t-84 -14.5q-63 0 -123 25.5t-108 72.5q-106 104 -106 262q0 76 25.5 141.5t70.5 113.5t106 75.5t132 27.5
q36 0 63 -7t55 -23q18 -11 26 -14t18 -3q21 0 39 19q10 11 12 12.5t4 1.5q4 0 4 -7q0 -5 -1 -9q-3 -18 -4.5 -40.5t-1.5 -43.5v-16v-24.5t0.5 -26.5t0.5 -21v-22q0 -18 -10 -18q-5 0 -8 7t-8 32q-17 89 -59 134.5t-106 45.5q-73 0 -112 -59q-32 -48 -50 -123.5t-18 -165.5
q0 -91 19.5 -161t56.5 -113q20 -22 47 -34t58 -12q69 0 116 48t69 140q4 17 7.5 24t8.5 7q9 0 9 -13z" />
    <glyph glyph-name="D" unicode="D" horiz-adv-x="716" 
d="M243 101q0 -25 0.5 -38.5t1 -20t2 -9t4.5 -5.5q13 -11 53 -11q103 0 155.5 84t52.5 249t-49 241.5t-154 76.5q-41 0 -53.5 -10.5t-12.5 -44.5v-512zM92 601q0 24 -2 38t-8 21.5t-17 9.5t-30 2q-22 -1 -22 10q0 9 14 9h18q43 -1 68 -1.5t47.5 -0.5h50h74.5
q98 -1 163 -18.5t116 -56.5q62 -48 91.5 -112t29.5 -152q0 -110 -48 -192t-137 -122q-23 -11 -46 -18t-49.5 -11.5t-60 -6t-77.5 -1.5h-10.5h-12t-20.5 0.5t-37 1.5h-36h-9h-10t-16.5 -0.5t-29.5 -0.5l-63 -1q-15 0 -15 8q0 6 5.5 8t22.5 1q43 0 52 15q1 3 2 5.5t1.5 8.5
t0.5 17v30v509z" />
    <glyph glyph-name="E" unicode="E" horiz-adv-x="595" 
d="M242 375q55 0 87.5 2.5t50.5 13t26 30.5t13 55q3 23 6 30t9 7q9 0 9 -18v-6t-0.5 -10t-1 -20.5t-1.5 -37.5q-1 -7 -1 -20.5v-30.5q0 -47 0.5 -80t1.5 -50q1 -5 1 -8.5v-6.5q0 -12 -9 -12q-4 0 -6 0.5t-3.5 4t-2.5 11t-3 21.5q-5 36 -10.5 57t-17 32t-30.5 14t-50 3h-68
v-337l64 1q53 0 84 0.5t50 3.5t31 8.5t27 14.5q12 10 20.5 20t14.5 23.5t10.5 33.5t9.5 51q3 15 10 15q8 0 8 -15q0 -1 -0.5 -15.5t-0.5 -31.5v-46q-1 -30 -1.5 -46t-0.5 -24.5v-11.5v-7q-11 0 -40.5 1t-70 1.5t-88 1.5t-95 1.5t-91.5 1t-77 0.5l-84 -2q-18 0 -18 8
q0 3 0.5 4.5t4 2.5t10.5 1.5t20 1.5q23 2 36 9t15 18q1 4 1.5 10t0.5 19v54v453v45t-1 21q-1 17 -10.5 22.5t-36.5 5.5q-21 0 -26 1.5t-5 7.5t5.5 8t22.5 2h15.5h14t18.5 0.5t28 0.5q20 0 57.5 0.5t81 1t87 0.5h75.5l68 -1q17 0 27 1t27 3q4 -47 6 -74t3 -35t1.5 -18.5
t1.5 -20t1.5 -17t0.5 -8.5q0 -10 -10 -10q-5 0 -8 5.5t-5 20.5q-10 69 -56 100.5t-137 31.5h-14.5t-16 -0.5t-25 -1t-40.5 -1.5v-295z" />
    <glyph glyph-name="F" unicode="F" 
d="M242 364h29q47 0 74.5 3.5t43 16.5t22.5 39.5t13 71.5q2 13 10 13t8 -15v-4.5v-9.5t-0.5 -21t-1.5 -39v-65v-50t1 -42q1 -11 1 -22.5v-16.5q0 -16 -9 -16q-7 0 -10 7t-5 25q-2 34 -11 58.5t-23 35.5q-9 7 -20.5 9.5t-34.5 2.5h-25h-19.5t-19.5 -0.5t-23 -0.5v-242
q0 -32 1 -49.5t8.5 -25.5t23.5 -9.5t46 -1.5q18 0 18 -8q0 -5 -3.5 -7t-15.5 -2h-16.5t-36.5 1q-9 0 -28 0.5t-40.5 1t-41 0.5h-30.5q-32 0 -54 -0.5t-43 -2.5q-5 -1 -8 -1h-6q-12 0 -12 9q0 6 4.5 7.5t27.5 2.5q20 1 35 7t17 15q4 8 4 28v57v449l-1 74q-2 14 -11.5 19
t-38.5 7q-21 2 -24.5 3t-3.5 6q0 11 20 10h19q10 1 49 1.5t92.5 1t114.5 0.5h115l69 -1q16 0 24.5 0.5t23.5 2.5q1 -23 3.5 -48.5t4.5 -49t4 -41.5t4 -27q1 -5 1 -12q0 -8 -7 -8q-6 0 -8 5t-10 34q-19 79 -77 107q-19 8 -46.5 12t-74.5 4q-18 0 -35.5 -0.5t-56.5 -2.5v-306z
" />
    <glyph glyph-name="G" unicode="G" horiz-adv-x="664" 
d="M667 225q12 0 12 -9q0 -6 -7.5 -8t-30.5 -1q-26 0 -36 -4t-12 -16q-1 -7 -1.5 -26t-0.5 -53v-19t1 -22q-61 -42 -116.5 -61.5t-110.5 -19.5q-71 0 -132 26.5t-105.5 73.5t-70 110.5t-25.5 138.5q0 79 26 146.5t72 116.5t109 77t137 28q19 0 33.5 -1.5t28.5 -4.5t29 -9
t35 -15q15 -7 21.5 -9t11.5 -2q17 0 27 24q6 12 11 12q7 0 7 -10q0 -3 -0.5 -8t-2.5 -32q-1 -11 -1 -25.5v-31.5q0 -20 0.5 -37t1.5 -32q1 -11 1.5 -20.5t0.5 -14.5q0 -19 -10 -19q-8 0 -12 8.5t-7 31.5q-5 41 -21 78.5t-37 60.5q-17 18 -41.5 27.5t-53.5 9.5
q-93 0 -141 -85.5t-48 -250.5q0 -208 62 -291q18 -23 46.5 -37.5t57.5 -14.5q40 0 61 26.5t21 77.5q0 78 -7 88q-6 9 -33 9h-25q-21 0 -21 9t17 9h6h11.5t24.5 -0.5t46 -0.5q20 -1 36.5 -1h27.5h29t31.5 0.5t29.5 1t24 1.5h13z" />
    <glyph glyph-name="H" unicode="H" horiz-adv-x="727" 
d="M278 356h-12.5t-22.5 1v-255l2 -54q0 -25 40 -31q15 -2 23.5 -3t12.5 -2t4.5 -2.5t0.5 -4.5q0 -6 -10 -6q-8 0 -25.5 0.5t-43.5 1.5q-16 1 -28.5 1.5t-18.5 0.5q-20 0 -61.5 -1.5t-105.5 -3.5h-10q-18 0 -18 9q0 8 14 8q17 0 38 4t27 8q3 2 4.5 4.5t2 7.5t1 14.5
t0.5 26.5v552q0 21 -3.5 27.5t-14.5 11.5q-9 3 -23.5 4.5t-30.5 1.5q-13 0 -13 8q0 3 1.5 4.5t9.5 2t25.5 0t49.5 -1.5l124 -1q17 0 37 0.5t39 1.5q6 1 11 1h9q14 0 14 -10q0 -3 -0.5 -5t-4.5 -3t-12.5 -1.5t-23.5 -1.5q-27 -1 -35 -11t-8 -43v-236l24 -1h76t65 0.5t49 1
t27 0.5v223q0 38 -11.5 53t-39.5 15q-21 0 -27.5 1.5t-6.5 8.5q0 9 13 9h10q16 -1 28.5 -1.5t28 -1t36 -0.5h52.5h76l45 2l29 1q10 0 10 -6q0 -5 -4.5 -6.5t-32.5 -3.5q-18 -1 -29 -4t-17 -11t-7.5 -23t-1.5 -40v-492q0 -38 3.5 -54t12.5 -24q8 -6 24 -10.5t33 -5.5
q19 -1 19 -12q0 -6 -9 -6h-5.5t-7.5 1q-18 3 -71.5 4.5t-124.5 1.5h-26.5t-19.5 -1l-31 -1q-21 0 -26 1.5t-5 6.5t4 6.5t21 2.5q23 1 39 8.5t16 17.5q1 3 1.5 10t0.5 23l1 50v232z" />
    <glyph glyph-name="I" unicode="I" horiz-adv-x="336" 
d="M92 596q-1 23 -1 36.5v17.5q0 14 -10.5 19.5t-39.5 5.5q-18 0 -23 1t-5 6q0 7 3.5 8t26.5 1h7.5t28.5 -1h9h11.5t21 -0.5t37.5 -0.5h51q23 0 45.5 0.5t41.5 2.5h10q13 0 13 -8q0 -6 -4.5 -7t-30.5 -3q-17 -1 -25.5 -4t-12.5 -9l-3 -19v-35v-530q0 -21 1 -33t8 -17.5
t22 -7.5t43 -4q9 0 9 -8t-13 -8h-5t-8 1q-8 0 -21.5 0.5t-29 1t-30 1t-22.5 0.5q-21 0 -50.5 -0.5t-81.5 -2.5q-14 -1 -24.5 -1h-18.5q-15 0 -15 9q0 3 0.5 4t5 2t13 1.5t25.5 0.5q15 3 23.5 6t12.5 12.5t4.5 28t0.5 52.5v481z" />
    <glyph glyph-name="J" unicode="J" horiz-adv-x="419" 
d="M179 597q-1 20 -1 31.5v16.5q-2 17 -13.5 22.5t-48.5 6.5q-23 1 -27 2t-4 7q0 9 15 9l125 -1q8 0 41.5 0.5t93.5 1.5h29q17 0 17 -10q0 -9 -12 -9h-1q-8 1 -14.5 1h-10.5q-18 0 -27 -3t-12 -10q-1 -2 -1.5 -4t-1 -7t-0.5 -16v-31v-449q-1 -42 -1.5 -67t-1.5 -40t-2.5 -23
t-3.5 -16q-13 -52 -88 -102q-31 -21 -58.5 -30.5t-58.5 -9.5q-48 0 -76.5 24t-28.5 63q0 30 19.5 49.5t49.5 19.5q26 0 43.5 -17t17.5 -43q0 -14 -4.5 -25.5t-16.5 -28.5q-6 -8 -6 -14q0 -5 5 -8t13 -3q45 0 50 81q0 4 0.5 10t0.5 27v64.5v123.5v407z" />
    <glyph glyph-name="K" unicode="K" horiz-adv-x="690" 
d="M613 689q14 0 14 -9q0 -10 -16 -10q-18 0 -30 -1t-20.5 -4t-16 -8.5t-16.5 -15.5q-30 -31 -50.5 -52.5t-40 -43t-43 -49t-60.5 -70.5q7 -10 14.5 -19.5t18 -23.5t25.5 -33.5t38 -48.5q43 -54 82.5 -103.5t74.5 -97.5q22 -30 35.5 -46.5t23.5 -25t18.5 -10t22.5 -1.5
q20 0 26 -1.5t6 -6.5q0 -7 -6 -8.5t-31 -1.5h-92.5t-62.5 1l-56 -2l-45 -1q-22 0 -22 9q0 7 6 8t35 2q16 0 16 10q0 7 -15 26q-10 14 -20 27.5t-20 27.5l-69 97q-20 28 -39 55t-39 54q-5 5 -9.5 10t-9.5 11v-254q0 -22 1 -34.5t6.5 -18.5t17.5 -8t33 -3q17 -1 21 -2.5
t4 -7.5q0 -9 -18 -9l-63 1q-5 0 -18.5 0.5t-31.5 0.5h-39h-40h-16h-14.5t-17.5 -0.5t-26 -1.5h-13q-16 0 -16 9q0 6 6 7.5t27 2.5q17 0 27 2t15 7t6 15.5t1 28.5v520v57q-1 15 -10 19.5t-40 5.5q-17 -1 -23 1.5t-6 7.5q0 8 14 8l121 -2h12t20 1l62 1h41q8 1 15 1h9
q12 0 12 -9q0 -5 -4 -6t-20 -2q-20 -1 -31 -2t-16.5 -5t-6.5 -12.5t-1 -23.5v-264q10 8 18 15.5t25 26t49 54t90 101.5q29 33 49 61.5t20 37.5q0 4 -2 6t-8 3t-18 1h-32q-14 0 -14 9q0 5 5 7t19 2l44 -1h9.5t15.5 1h27h26h28h22z" />
    <glyph glyph-name="L" unicode="L" horiz-adv-x="564" 
d="M241 348q0 -22 0.5 -58t1 -80t1 -92.5t1.5 -96.5q14 -1 25 -1h18q19 0 41.5 0.5t43 2t37 2.5t23.5 3q62 12 86 64q3 7 5.5 13.5t5 15.5t5 21.5l6.5 32.5q1 6 4 11t5 5q3 0 5 -6.5t2 -15.5v-13t-1 -19q0 -4 -0.5 -14.5t-1 -22.5t-1 -21.5t-0.5 -12.5l1 -51v-20
q-38 1 -80.5 2t-96.5 2t-123.5 1h-162.5h-42q-29 0 -36.5 1.5t-7.5 6.5q0 8 14 8q23 1 40.5 5t23.5 9q5 5 7 15t2 33v371l-1 120v51q0 20 -1 28.5t-5 13.5q-5 6 -15.5 10t-21.5 4l-25 -1q-11 0 -11 8t14 8h6t10 -1l87 -1h45h44l50 1h28q5 1 11 1q10 0 10 -8q0 -9 -26 -9
q-20 0 -30 -2.5t-14 -7.5q-2 -3 -3.5 -6t-2 -10.5t-0.5 -22v-39.5v-238z" />
    <glyph glyph-name="M" unicode="M" horiz-adv-x="786" 
d="M229 691h4t7 -1q45 -145 80.5 -259t63.5 -201q21 72 38.5 132.5t33.5 115.5t31.5 107t31.5 106h21l132 -1h17t27 1h46q20 0 20 -9t-12 -9l-23 1q-43 0 -57 -9t-14 -38v-15.5t1 -19.5q0 -15 0.5 -26.5t0.5 -35v-67v-122.5v-279q0 -22 3 -30t14 -11q8 -2 24.5 -4t31.5 -1
q25 0 31 -1.5t6 -7.5q0 -10 -20 -10h-7q-35 1 -77.5 1.5t-82.5 0.5h-23.5h-22.5t-34 -0.5t-58 -0.5h-25q-14 0 -14 9t14 9l34 -1q46 0 56 16q1 2 1.5 4t1 7.5t0.5 16.5v32v301v121v65.5t-0.5 32.5t-0.5 22q-9 -23 -17 -46t-17.5 -53t-21.5 -69.5t-28 -95.5
q-12 -44 -22.5 -81t-21 -72.5t-21 -72.5t-22.5 -80q-10 -36 -14.5 -46t-11.5 -10q-12 0 -20 28q-2 6 -4.5 12.5t-8.5 24.5t-17.5 53.5t-33.5 101.5q-25 74 -56 170.5t-69 216.5v-517v-34t1 -18.5t3 -9.5t6 -6q17 -13 52 -12q20 0 27.5 -2t7.5 -9t-15 -7l-89 2h-30.5
t-22.5 -1q-20 -1 -35 -1.5t-19 -0.5q-21 0 -21 9q0 8 17 8q24 0 39.5 1t25 3.5t13.5 7t6 12.5q2 6 2.5 15.5t0.5 34.5v129v348q1 40 0 61.5t-8.5 31.5t-24.5 12t-48 2q-16 0 -16 9t17 9l27 -1z" />
    <glyph glyph-name="N" unicode="N" horiz-adv-x="660" 
d="M99 516q0 37 -1.5 60.5t-5 38.5t-11 24t-19.5 17q-8 5 -14 8t-14.5 5t-21 2.5t-32.5 1.5q-16 0 -16 9t14 9q5 0 17 -0.5t26 -1.5t28 -1h26h30t34 0.5t32 1t24 0.5q92 -118 179 -230t172 -221v396q0 24 -8 31.5t-34 6.5l-22 1l-21 1q-12 0 -12 7q0 8 18 8h22q11 1 20 1h23
h78t40 -1t15 -3t2 -6q0 -3 -1 -4.5t-6.5 -2t-18 -1t-35.5 -1.5q-27 -1 -31 -11q-1 -2 -1.5 -5t-1 -10t-0.5 -18.5v-30.5l1 -116v-64.5v-48v-39.5v-39t0.5 -47.5t0.5 -64.5v-170q0 -17 -7 -17q-4 0 -23 20.5t-50.5 57.5t-72.5 88t-89 111.5t-100.5 128.5t-105.5 138v-74
q0 -24 0.5 -39.5t0.5 -26v-18v-16.5v-311q0 -13 2.5 -18t10.5 -8t22.5 -5.5t26.5 -2.5q25 0 31.5 -2t6.5 -7q0 -8 -15 -8h-6t-9 1q-23 1 -43.5 1.5t-31.5 0.5h-5h-14t-27.5 -0.5t-45.5 -1.5q-8 -1 -14.5 -1h-9.5q-15 0 -15 8q0 5 7 6.5t37 3.5t42 5t17 11q2 3 3 5t1.5 9
t0.5 20.5v37.5v411z" />
    <glyph glyph-name="O" unicode="O" horiz-adv-x="710" 
d="M357 685q-34 0 -61.5 -22.5t-47 -64.5t-30 -101t-10.5 -132q0 -103 18.5 -184.5t53.5 -132.5q15 -22 37.5 -33t49.5 -11q65 0 93 63q20 47 31 116.5t11 145.5q0 45 -3.5 88.5t-9.5 81.5t-14.5 70t-19.5 54q-31 62 -98 62zM361 702q67 0 125 -27.5t101 -75.5t67 -113
t24 -141q0 -75 -25 -140t-68.5 -113.5t-102.5 -76t-127 -27.5q-66 0 -125 28t-103 77t-69.5 114t-25.5 139q0 76 25 141t69.5 113t104.5 75t130 27z" />
    <glyph glyph-name="P" unicode="P" horiz-adv-x="564" 
d="M240 363q24 0 40 1t27.5 4t20.5 8t18 13q23 20 33 52.5t10 84.5q0 78 -22 113t-71 35q-30 0 -43 -11.5t-13 -37.5v-262zM240 92q0 -27 0.5 -42t6.5 -22t19 -9t37 -3q15 1 21 -1.5t6 -7.5q0 -9 -16 -9h-15q-20 1 -48.5 1.5t-83.5 0.5l-117 -1q-27 0 -35 1.5t-8 6.5
q0 8 16 8q24 1 38 2.5t20.5 6.5t8 16t1.5 30v514q0 40 -1 54.5t-3 21.5q-6 14 -52 14q-19 0 -23 1.5t-4 6.5q0 6 4 7.5t21 1.5l286 1q54 0 92 -7.5t65 -24.5q38 -24 56 -55t18 -73q0 -43 -16.5 -78.5t-47.5 -60.5t-74 -38.5t-96 -13.5h-14t-13.5 1t-19 2t-29.5 4v-256z" />
    <glyph glyph-name="Q" unicode="Q" horiz-adv-x="709" 
d="M356 685q-72 0 -110 -85.5t-38 -245.5q0 -214 62 -305q31 -45 94 -45q55 0 82 38q26 38 41 109t15 158q0 103 -12.5 186t-35.5 129q-31 61 -98 61zM436 -19q1 -33 3 -54.5t5.5 -35.5t10 -22.5t16.5 -17.5q34 -28 84 -28q21 0 36 5q6 3 11 3q7 0 7 -9q0 -6 -9 -11.5
t-24.5 -10t-35.5 -7t-42 -2.5q-35 0 -69.5 7t-61.5 21q-43 21 -62.5 57t-19.5 93v13t1 18q-125 41 -189.5 128.5t-64.5 215.5q0 188 131 289q44 33 94.5 51t102.5 18q68 0 126 -27.5t100.5 -76t66.5 -115t24 -143.5q0 -127 -61.5 -213.5t-179.5 -126.5v-19z" />
    <glyph glyph-name="R" unicode="R" horiz-adv-x="637" 
d="M245 376q78 -1 113 38.5t35 129.5q0 129 -102 129q-18 0 -27 -5t-14 -17q-1 -4 -1.5 -7.5t-1 -13.5t-1 -30.5t-1.5 -57.5v-166zM245 131v-59t1 -26q0 -17 14 -23.5t53 -6.5q14 0 19 -2t5 -7q0 -8 -12 -8l-97 1h-16.5t-33.5 -1h-33h-39q-14 1 -22.5 1h-14.5l-46 -1
q-14 0 -14 8q0 6 6 7.5t35 3.5q34 1 40 16q1 2 1.5 4t1 6t0.5 11v21v515v40t-1.5 21t-4.5 9.5t-9 5.5q-8 3 -18 4.5t-27 1.5q-14 0 -18 1.5t-4 7.5q0 3 1.5 5t7 3t17 1.5t31.5 0.5h18t35 -1h33h21t36 1h58q141 0 191 -22q41 -17 64.5 -52t23.5 -77q0 -97 -100 -142
q-23 -11 -53.5 -18t-76.5 -12l-1 -6q55 -4 94 -17.5t65 -40t39.5 -66.5t18.5 -97q3 -29 5.5 -47.5t5.5 -31t6.5 -20.5t8.5 -15q16 -21 34 -21q5 0 10 2.5t5 5.5q0 2 -1.5 3.5t-11.5 8.5q-10 6 -10 19q0 11 8 19t22 8t22 -9.5t8 -24.5q0 -27 -19 -41.5t-54 -14.5
q-92 0 -147 58q-37 39 -49 96l-10 82q-4 39 -12.5 66t-23 43.5t-35.5 23.5t-51 6v-227z" />
    <glyph glyph-name="S" unicode="S" horiz-adv-x="496" 
d="M411 706q10 0 10 -13q0 -3 -0.5 -10.5t-1.5 -17.5q-1 -8 -1.5 -16.5t-0.5 -21.5q0 -22 1 -48t3 -40q1 -3 1 -8q0 -9 -8 -9q-6 0 -8 4.5t-10 28.5q-4 15 -12.5 31.5t-19 31t-22 26.5t-23.5 19q-17 10 -32.5 14t-37.5 4q-57 0 -89.5 -27t-32.5 -74q0 -20 7 -37.5t24 -35
t46 -37t73 -43.5q32 -18 54.5 -31t39 -24t28 -21t21.5 -20q24 -25 37.5 -60t13.5 -74q0 -46 -17 -84.5t-47.5 -66.5t-72.5 -43.5t-92 -15.5q-21 0 -36.5 1.5t-33 5.5t-40.5 12t-58 22q-9 3 -14 3q-17 0 -26 -36q-3 -11 -8 -11q-8 0 -8 14q0 6 1.5 18.5t3.5 27.5t3 30.5
t1 32.5v21t-1 25q-1 12 -1.5 23t-0.5 17q0 16 10 16q7 0 10 -6.5t8 -36.5q7 -35 23.5 -66t39.5 -49q25 -21 55 -32.5t59 -11.5q27 0 50.5 9t40.5 24.5t27 37t10 46.5q0 41 -24 67q-6 6 -13 11.5t-19 13t-31.5 18.5t-52.5 28q-61 33 -94.5 59t-53.5 57q-17 25 -26.5 58
t-9.5 68q0 43 16 79.5t45 63t68 41.5t86 15q27 0 51 -5t56 -19q20 -8 27 -8q10 0 13 4.5t7 21.5q1 9 9 9z" />
    <glyph glyph-name="T" unicode="T" horiz-adv-x="586" 
d="M366 236v-133l1 -43q0 -12 2 -20t11 -12.5t25.5 -7t45.5 -4.5q11 -1 11 -9q0 -10 -16 -10q-5 0 -15.5 0.5t-24.5 1.5l-103 3l-170 -3q-14 0 -14 8q0 7 5 8t32 1q56 3 59 26q1 4 1.5 9.5t0.5 25v58.5v110v423q-8 1 -14.5 1h-11.5q-40 0 -68.5 -7t-48 -22.5t-30.5 -41.5
t-17 -63q-5 -29 -7.5 -36.5t-10.5 -7.5q-9 0 -9 12q0 8 1 23t3 32q4 45 6.5 81t3.5 53h15l73 1q4 0 22.5 -0.5t47.5 -1.5q10 0 29.5 -0.5t43.5 -1t49.5 -0.5h46.5h47.5t54.5 1q19 0 30 0.5t19 0.5h15h18h18h12t9.5 0.5t10.5 1.5q2 -33 6 -77t9 -89q1 -6 1.5 -11t0.5 -10
q0 -8 -7 -8t-10.5 8t-9.5 31q-9 38 -20.5 63.5t-29 41t-42.5 22t-60 6.5h-22.5t-24.5 -2v-432z" />
    <glyph glyph-name="U" unicode="U" horiz-adv-x="624" 
d="M542 219q0 -236 -226 -236q-57 0 -103 18t-77 53q-48 52 -48 188v384q0 16 -1.5 25t-8.5 14t-21.5 7t-41.5 4q-11 0 -11 8q0 9 18 9h8.5t14.5 -1l62 -1h84h46.5t24.5 0.5t19 0.5h21q17 0 17 -10q0 -5 -7 -7t-24 -2q-26 0 -35.5 -3.5t-11.5 -12.5q-1 -3 -1.5 -7.5
t-0.5 -13.5v-99v-275q0 -48 1.5 -80.5t6 -54.5t12.5 -36t20 -26q36 -36 97 -36q68 0 100 44q22 29 30.5 71t8.5 119v292v38q1 12 1 23v17q0 23 -11 31t-43 9q-21 0 -28.5 2.5t-7.5 9.5q0 8 14 8q5 0 17 -0.5t28 -1.5q11 -1 21.5 -1h21.5h17.5t30.5 1h24q17 0 24 -2t7 -7
t-5.5 -6.5t-28.5 -2.5t-34.5 -4t-16.5 -10q-2 -3 -2.5 -6.5l-1.5 -10.5v-66v-357z" />
    <glyph glyph-name="V" unicode="V" horiz-adv-x="567" 
d="M272 692q19 0 19 -9q0 -5 -5.5 -6.5t-29.5 -2.5q-35 -1 -46 -4.5t-11 -13.5q0 -5 3 -14q4 -11 7.5 -20.5t6.5 -18.5q13 -41 31.5 -93l37 -104t36 -99t29.5 -77q6 16 11.5 30t10.5 29t11.5 32.5t14.5 41.5q10 27 20.5 57.5t21.5 64.5q25 73 36 111.5t11 55.5q0 8 -4 13.5
t-11 7.5q-2 0 -4.5 0.5t-7 0.5t-12.5 0.5t-22 0.5q-20 0 -20 10q0 9 14 9h14h33l35 -1h26h13h10.5t12.5 0.5t19 0.5h18q15 0 15 -11q0 -7 -10 -8q-27 -1 -42 -3t-24.5 -9t-15.5 -20t-14 -37q-6 -17 -12 -33.5t-12 -33.5q-22 -63 -39 -110t-30.5 -85.5t-25 -71.5t-23 -67
t-24.5 -73t-29 -89q-5 -17 -8.5 -27t-5.5 -15t-4 -6.5t-5 -1.5q-9 0 -15 18q-9 29 -17 52.5t-16 40.5q-8 22 -18.5 50.5t-22 58.5t-22 58t-18.5 48q-17 45 -34 88.5t-34 86.5q-3 8 -9.5 26t-14 39t-15 41t-11.5 34q-7 23 -19 32t-35 9l-33 -1q-12 0 -12 9q0 6 6 7.5t30 1.5
l169 -1h15h12t14.5 0.5t23.5 0.5h56z" />
    <glyph glyph-name="W" unicode="W" horiz-adv-x="899" 
d="M543 529q17 35 26.5 56t14.5 33t6.5 18t1.5 12q0 27 -48 27q-29 0 -39 -3.5t-10 -14.5q0 -5 4 -17.5t10.5 -30t15 -38.5t18.5 -42zM677 171q-8 -23 -17.5 -49.5t-18 -50.5t-14.5 -42.5t-8 -24.5q-3 -13 -9 -13q-3 0 -5 1t-5 8.5t-8.5 23.5t-14.5 45q-8 25 -16 47.5
t-16.5 45t-18.5 47t-22 54.5q-13 32 -20.5 50t-13.5 32q-15 -32 -36.5 -81t-42.5 -99t-39 -94t-26 -66q-4 -13 -11 -13q-2 0 -3.5 1t-3.5 6t-6.5 15.5t-11.5 30.5q-26 65 -42.5 108t-29 76t-24 63.5t-26.5 70.5q-17 47 -29 78.5t-23.5 60.5t-25.5 62.5t-35 84.5
q-6 15 -17 20t-41 5q-26 0 -26 9q0 8 14 8h12h21.5t28 -0.5t31.5 -0.5h38l58 1l43 1q8 1 17 1h14q13 0 13 -10q0 -9 -32 -8q-17 0 -17 -9q0 -3 2 -9q3 -8 6 -15t5 -15l28 -76l28 -76l103 -266l70 160q-6 18 -20.5 57.5t-37.5 100.5q-6 14 -11.5 27.5t-10.5 27.5
q-4 10 -5.5 14t-2 6t-1 3t-1.5 5q-9 23 -15 36t-13 19.5t-17.5 8t-28.5 1.5q-10 1 -10 9q0 5 4 7t15 2h3h7t15.5 -0.5t29.5 -1.5l178 -1l135 1l36 1q19 0 19 -9q0 -8 -15 -8q-39 1 -57.5 -4.5t-24.5 -19.5q-10 -16 -27.5 -54.5t-43.5 -98.5q25 -64 52.5 -135.5t59.5 -149.5
q4 10 12.5 32.5t21.5 58.5q8 22 14.5 39t12.5 33t11.5 32.5t13.5 38.5q10 29 19.5 56t19.5 53q8 22 13.5 36.5t8.5 25t4 17.5t1 13q0 17 -10.5 22t-45.5 5q-16 0 -16 8t15 8l79 -2h22t23.5 0.5t20 1t11.5 0.5h8q10 0 10 -8t-15 -9q-23 -1 -36 -2.5t-21.5 -7.5t-14 -18
t-12.5 -33q-7 -17 -13.5 -34.5t-13.5 -35.5q-11 -29 -21 -58.5t-20 -61.5q-11 -27 -21 -56t-21 -59z" />
    <glyph glyph-name="X" unicode="X" horiz-adv-x="699" 
d="M399 415q30 -55 54 -98t44.5 -81.5t40 -76.5t42.5 -82q11 -20 19.5 -31.5t19 -17.5t26.5 -7t42 -1q23 0 23 -10q0 -6 -5.5 -8t-22.5 -2h-14.5t-20.5 1h-165h-32.5t-43.5 -1q-17 -1 -30 -1h-19q-14 0 -14 10q0 4 1 6.5t8.5 3.5t23.5 1h46q27 0 27 15q0 8 -8 24.5t-31 56.5
q-13 23 -25 44.5t-24 42.5l-22 40l-22 40q-3 5 -6.5 10.5t-6.5 11.5l-23 -34.5t-18 -27.5t-21.5 -34t-34.5 -56q-23 -36 -35.5 -56.5t-18.5 -32t-7.5 -16.5t-1.5 -10q0 -17 19 -17q9 0 14.5 -0.5t11.5 -0.5t14 -0.5t23 -0.5q16 0 16 -9q0 -12 -26 -12l-112 2h-10t-19 -1
l-59 -1q-20 0 -20 9t19 9q26 1 45 6.5t34.5 17t30 31.5t31.5 50q5 10 14 24t21 33q25 38 40.5 62t25.5 40.5t16.5 27.5t14.5 24q-8 15 -14.5 28t-14 27t-17.5 31.5t-23 42.5l-39 72l-19 36q-17 32 -27 50.5t-17.5 28.5t-14 14.5t-15.5 7.5q-3 1 -6 1.5t-8.5 0.5t-16 0.5
t-29.5 1.5q-15 0 -15 8q0 10 24 10q6 0 17 -0.5t25 -1.5l153 -2h14.5t23 0.5l25 1t20.5 0.5q12 1 20.5 1h12.5h9q16 0 16 -9q0 -8 -7 -9.5t-35 -1.5q-26 0 -37.5 -5.5t-11.5 -17.5q0 -5 1 -9.5t5.5 -14.5t14.5 -29.5t29 -54.5q10 -19 16.5 -30t11.5 -20t10.5 -19.5
t15.5 -27.5q68 94 99.5 145.5t31.5 66.5q0 19 -37 19h-25q-13 0 -13 8q0 6 4.5 8t19.5 2q4 0 17.5 -0.5t33.5 -1.5q11 -1 21 -1h18q12 0 30.5 0.5t30.5 1.5q8 1 14 1h10q19 0 19 -10q0 -5 -5 -6.5t-26 -1.5q-23 -1 -36.5 -3t-24.5 -10t-22 -24t-28 -45q-12 -20 -26 -41.5
t-31 -47.5l-53 -76z" />
    <glyph glyph-name="Y" unicode="Y" horiz-adv-x="548" 
d="M253 692q13 1 21 1h10q20 0 20 -8q0 -6 -5 -7t-35 -2q-32 -2 -43.5 -7t-11.5 -17q0 -8 1 -14t6 -18.5t16 -35t31 -62.5q26 -53 40 -81.5t22 -44t12 -22.5t10 -16q18 32 38 73.5t50 108.5q16 36 25 55.5t13 30t4.5 15.5t0.5 11q0 22 -29 22q-29 -1 -36.5 0.5t-7.5 8.5
q0 10 19 10l28 -1h28.5h19.5t19 -0.5t28 -0.5h38q23 0 23 -10q0 -8 -13 -8q-20 -1 -32 -2t-19.5 -2.5t-11.5 -4t-8 -5.5q-5 -1 -26 -42.5t-50 -106.5q-10 -24 -20.5 -47t-21.5 -45q-18 -35 -27.5 -55t-14 -36t-5 -33t-0.5 -46v-156l1 -45q1 -17 15 -22.5t57 -6.5
q22 0 22 -10q0 -8 -19 -8h-10.5h-12.5t-22.5 0.5t-41.5 1.5l-80 1q-6 0 -26.5 -0.5t-49.5 -1.5l-63 -1q-16 0 -16 8t14 8q33 1 54 4.5t24 8.5q6 6 7 32v68v169q-8 22 -16.5 42t-19 43t-25.5 51.5t-37 69.5q-24 45 -43.5 81t-30.5 59q-9 18 -21 24.5t-36 6.5h-11q-3 -1 -6 -1
h-4q-20 0 -20 11q0 5 4 7t17 2h2.5h6t13 -0.5l25.5 -1.5l118 -1h11.5h11t16 0.5t27.5 0.5h59z" />
    <glyph glyph-name="Z" unicode="Z" horiz-adv-x="550" 
d="M120 0h-30.5t-22.5 -2q-19 -2 -33 -2.5t-20 -0.5q-13 0 -13 7q0 5 4 10q8 13 14.5 24t15 25.5t19.5 35t28 53.5q44 82 75.5 140.5t55.5 102.5t43 79l38 70q13 24 23 42t17 32t12.5 25.5t10.5 22.5q-18 2 -35.5 2h-54.5q-53 0 -83 -8.5t-55 -30.5q-23 -20 -43 -51t-32 -64
q-6 -18 -14 -18q-3 0 -5.5 3t-2.5 6q0 5 3 13q6 27 9.5 43.5t7 33.5t8 40t12.5 62q9 -1 40 -2.5t69 -2.5t76.5 -1.5t61.5 -0.5q38 0 76.5 1t60.5 3q16 1 26.5 1.5t15.5 0.5h11t16 -1q-2 -7 -4 -13.5t-6.5 -15.5l-11.5 -23t-18 -35q-35 -62 -68.5 -123.5t-68.5 -124.5
q-42 -77 -87 -160.5t-95 -175.5q65 0 108 1t71.5 3.5t47 6.5t34.5 11q68 26 101 165q3 15 12 15q8 0 8 -11v-6t-1 -9.5t-3.5 -19.5t-6.5 -36q-3 -20 -5.5 -36t-4.5 -32t-4.5 -34t-5.5 -42q-16 2 -25 2h-28l-233 -1z" />
    <glyph glyph-name="AE" unicode="&#xc6;" horiz-adv-x="915" 
d="M408 652q-14 -27 -27 -53.5t-26 -52.5q-23 -46 -39.5 -78.5t-29 -56.5t-22.5 -43t-19.5 -37t-20.5 -38.5t-26 -47.5q13 1 21.5 1h14.5h36q27 -1 46.5 -1h28.5h65q-1 13 -1 21.5v10.5l1 120l-1 125zM409 223q-14 1 -26 1h-17h-23.5t-39.5 -1h-36h-14h-14t-20 0.5t-31 0.5
q-24 -44 -40.5 -75.5t-26.5 -53t-14.5 -35t-4.5 -20.5q0 -11 13 -15.5t45 -5.5q24 0 24 -10t-13 -10h-4.5t-6.5 1h-40h-29q-16 1 -24.5 1h-15.5l-59 -2q-5 0 -10 3.5t-5 8.5q0 2 0.5 3.5t4.5 2t12.5 0.5h23.5q23 2 35.5 11.5t21.5 30.5q5 10 10 19l10 18q11 20 21.5 39.5
t20.5 39.5l28 52t28 53q7 14 10 19t4.5 8.5t4 8t9.5 16.5q24 48 48.5 93.5t47.5 90.5q25 48 40 78t25 48.5t15.5 29.5t11.5 21h22l299 2l78 -1q16 0 25.5 0.5t25.5 2.5l3 -34q4 -47 6 -78.5t4 -45.5q1 -5 1 -8.5v-5.5q0 -11 -8 -11q-10 0 -13 26q-10 70 -55.5 101.5
t-139.5 31.5h-16t-16.5 -0.5t-24 -1t-39.5 -1.5v-295q56 0 89 2.5t51 13t26 30.5t13 55q3 22 6 29.5t8 7.5q8 0 8 -19l-4 -112v-44.5t0.5 -42t1 -34.5t0.5 -21q1 -5 1 -9v-6q0 -12 -8 -12q-7 0 -8.5 5t-5.5 32q-5 35 -10.5 56t-16.5 32.5t-29 15t-48 3.5l-74 -1v-337l66 1
q53 0 84.5 0.5t50.5 3t31 8t27 15.5q12 10 20 19.5t14 23.5t10.5 34.5t9.5 50.5q3 15 9 15q3 0 5 -4.5t2 -10.5q0 -42 -0.5 -88.5t-2.5 -93.5q-12 1 -41.5 1.5t-70 1.5t-88 1.5l-95 1t-91.5 1t-77 0.5l-86 -2q-16 0 -16 8q0 3 0.5 4.5t4 2.5t10.5 1.5t20 1.5q21 1 34.5 8
t15.5 19q1 3 1.5 6t0.5 10.5v23v43.5v97z" />
    <glyph glyph-name="OE" unicode="&#x152;" horiz-adv-x="1008" 
d="M503 430v95q-1 26 -1 45v27v24.5t1 18.5v13q0 28 -24.5 40t-81.5 12q-61 0 -98 -28q-21 -17 -37 -40t-24 -51q-29 -93 -29 -207q0 -36 3 -72.5t8 -70t12.5 -62t16.5 -48.5q31 -73 83 -95q12 -5 26 -7t38 -2q79 0 100 29q2 3 3.5 5.5t2 7.5t0.5 15v28zM651 393
q57 0 90 2.5t51.5 12.5t26.5 30t13 55q3 22 6 29.5t8 7.5q8 0 8 -19v-6v-10t-0.5 -20t-1.5 -37q-1 -7 -1 -19.5v-32.5q0 -48 0.5 -81t1.5 -47v-15q0 -12 -8 -12q-7 0 -8.5 5t-5.5 32q-5 34 -10.5 55t-15.5 32t-27 15t-44 4h-42t-42 -1l3 -336q76 0 124.5 1t71.5 3
q52 8 78.5 36.5t33.5 83.5q5 29 7 37.5t7 8.5q7 0 7 -15l-3 -172v-10q-13 1 -25 1.5t-26 1t-32 1t-42 0.5l-143 2q-35 1 -58.5 1.5t-35.5 0.5q-14 0 -26.5 -0.5t-31 -1.5t-47.5 -3t-76 -5q-15 -1 -29 -1.5t-28 -0.5q-73 0 -136 27.5t-110 76t-74 113.5t-27 140
q0 77 26 142.5t72 113t109 74.5t138 27q13 0 25 -0.5t25.5 -1t31.5 -2t43 -4.5q17 -2 30.5 -2.5t19.5 -0.5q5 0 21 0.5t40 1.5l102 1h130l91 1l16 2l1 -17q1 -16 2 -30.5t2.5 -30.5t3.5 -35t4 -45q1 -5 1 -8.5v-6.5q0 -10 -8 -10q-10 0 -13 26q-10 70 -55.5 101.5
t-136.5 31.5h-15.5t-16.5 -0.5t-26 -1t-42 -1.5z" />
    <glyph glyph-name="Oslash" unicode="&#xd8;" horiz-adv-x="729" 
d="M247 119q24 -61 53.5 -88t74.5 -27q38 0 62 15t39 48q22 47 34 118t12 152q0 54 -6 109t-17 103zM486 588q-20 53 -46 75t-71 22q-62 0 -97 -53q-64 -95 -64 -269q0 -57 6 -105.5t20 -101.5zM584 742q8 13 20 13q15 0 15 -13q0 -3 -0.5 -4.5t-5.5 -7.5l-54 -89
q66 -49 102.5 -126.5t36.5 -169.5q0 -75 -25.5 -140t-70.5 -113.5t-106 -76t-131 -27.5q-46 0 -87 12.5t-83 39.5l-54 -89q-6 -9 -15 -9q-7 0 -12 4t-5 9q0 4 4 8l3 4l54 90q-68 54 -103 127.5t-35 162.5q0 75 26 140t71 112.5t106.5 75t132.5 27.5q89 0 165 -44z" />
    <glyph glyph-name="Ccedilla" unicode="&#xc7;" horiz-adv-x="636" 
d="M600 202q-4 -26 -6.5 -63t-2.5 -68v-25t1 -25q1 -5 1 -9v-8q0 -11 -5 -11t-11 10q-14 23 -22.5 32t-24.5 15q-21 -18 -40 -30.5t-38.5 -20t-40.5 -11t-47 -3.5q-14 0 -24 1t-24 4v-26q5 1 9 1h6q40 0 66.5 -22t26.5 -55q0 -18 -8.5 -34t-22.5 -27.5t-33 -18.5t-41 -7
q-12 0 -26 4t-26 10t-19.5 13t-7.5 13q0 5 5 5q2 0 7 -5q16 -15 37 -15q23 0 36 20.5t13 55.5q0 27 -8 39t-25 14h-5l-1 39q-60 15 -109.5 47.5t-84.5 78.5t-54 103t-19 122q0 77 25.5 142.5t70.5 113.5t106 75.5t132 27.5q36 0 63 -7t55 -23q18 -11 26 -14t18 -3
q21 0 39 19q10 11 12 12.5t4 1.5q4 0 4 -7q0 -5 -1 -9q-3 -18 -4.5 -40.5t-1.5 -43.5v-16v-24.5t0.5 -26.5t0.5 -21v-22q0 -18 -10 -18q-5 0 -8 7t-8 32q-17 89 -59 134.5t-106 45.5q-73 0 -112 -59q-32 -48 -50 -123.5t-18 -166.5q0 -74 12.5 -133t36 -100.5t57 -64
t75.5 -22.5q69 0 116 48t69 141q4 17 7.5 24t8.5 7q9 0 9 -13z" />
    <glyph glyph-name="a" unicode="a" horiz-adv-x="445" 
d="M255 221q-51 -10 -74 -36t-23 -74q0 -32 13 -51t35 -19q27 0 38 29.5t11 101.5v49zM255 255q-1 40 -1.5 61.5t-1 33.5t-2 18.5t-3.5 14.5q-14 50 -71 50q-33 0 -52 -18q-9 -9 -15 -19.5t-6 -18.5q0 -6 4.5 -8.5t19.5 -3.5q16 -2 26 -14t10 -30q0 -23 -14.5 -37t-37.5 -14
q-29 0 -47.5 17.5t-18.5 44.5q0 44 43 78q23 19 49.5 27t63.5 8q97 0 135 -29q12 -9 20.5 -19.5t13.5 -23.5t7 -31t2 -42v-171q0 -30 1.5 -49.5t4.5 -31t9 -15.5t15 -4q16 0 42 24q5 5 8 5q5 0 5 -5q0 -8 -16 -22q-23 -21 -47.5 -30t-58.5 -9q-42 0 -60 16.5t-24 61.5
q-45 -82 -123 -82q-43 0 -69.5 27t-26.5 70q0 61 55 99.5t161 49.5v21z" />
    <glyph glyph-name="b" unicode="b" horiz-adv-x="522" 
d="M188 156q0 -47 2.5 -77t9.5 -47.5t19.5 -24t31.5 -6.5q26 0 44 12t29.5 39t16.5 69.5t5 103.5q0 194 -81 194q-44 0 -66 -42q-4 -8 -6.5 -15.5t-3.5 -23.5t-1 -44v-77v-61zM188 390q23 31 47 43t64 12q43 0 79 -16t62.5 -44.5t41 -68.5t14.5 -87q0 -61 -26 -111.5
t-74 -83.5q-31 -21 -70 -34t-74 -13q-17 0 -32.5 3.5t-38.5 11.5q-21 8 -32 10.5t-21 2.5q-15 0 -27 -4.5t-28 -15.5q-5 -4 -9 -4q-7 0 -8 6t-1 36v499v19t1 25v44q0 26 -10.5 34.5t-42.5 7.5q-14 0 -19.5 1t-5.5 6q0 7 12 7q31 0 56.5 1t48.5 4t45 8t45 12l1 -16l1 -81
l1 -104v-110z" />
    <glyph glyph-name="c" unicode="c" horiz-adv-x="407" 
d="M398 95q4 0 4 -6q0 -8 -10.5 -23.5t-25.5 -29.5q-52 -49 -125 -49q-45 0 -84.5 17.5t-69 47.5t-46.5 70t-17 86q0 50 18 93t49.5 75t73.5 50.5t91 18.5q31 0 58.5 -8t48 -22t32 -32.5t11.5 -40.5q0 -24 -14 -39t-36 -15q-24 0 -38.5 13t-14.5 34q0 8 1.5 14.5t4.5 14.5
q5 11 6 14.5t1 8.5q0 20 -14.5 33t-35.5 13q-45 0 -68 -51.5t-23 -151.5q0 -60 9.5 -100t30.5 -66q14 -17 35 -27.5t41 -10.5q26 0 47 13t49 48q7 8 11 8z" />
    <glyph glyph-name="d" unicode="d" horiz-adv-x="523" 
d="M335 327q0 26 -3.5 40.5t-11.5 26.5q-19 28 -53 28q-47 0 -71.5 -54.5t-24.5 -158.5q0 -95 24 -147t69 -52q12 0 24.5 5.5t22.5 16.5q15 15 19.5 29.5t4.5 47.5v218zM336 538q0 45 -1 70t-7 36.5t-18.5 13.5t-34.5 2q-15 0 -20.5 1t-5.5 6q0 7 12 7q28 0 49.5 1t41 4
t39 8.5t44.5 13.5q5 2 9.5 3t7.5 1q12 0 11 -24l1 -50l1 -96v-120v-357q0 -20 7.5 -26.5t32.5 -4.5q15 0 15 -8q0 -7 -20 -7l-45 1q-10 0 -24 -2t-28 -5.5t-27.5 -8t-23.5 -8.5q-6 -2 -7 -2q-9 0 -10 18q0 5 -0.5 10t-2.5 15q-21 -23 -46 -33t-60 -10q-44 0 -81 17t-64 48
t-42 73t-15 92q0 51 15 93t43 71.5t67 46t86 16.5q35 0 57 -10t44 -36v140z" />
    <glyph glyph-name="e" unicode="e" horiz-adv-x="440" 
d="M178 296q16 1 35 1h53h18.5t16.5 -1q1 77 -11 107t-42 30q-61 0 -70 -137zM424 284q-18 -2 -60 -2.5t-125 -0.5q-14 0 -22.5 -0.5t-15 -0.5t-12 -0.5t-13.5 -0.5q-2 -18 -2.5 -31t-0.5 -30q0 -61 11.5 -100.5t37.5 -65.5q13 -13 32.5 -21t38.5 -8q35 0 67.5 24t49.5 62
q8 19 13 19q4 0 4 -6q0 -10 -7.5 -26.5t-18.5 -31.5q-27 -38 -64.5 -57.5t-81.5 -19.5q-50 0 -92.5 17t-73.5 47t-48 72t-17 92q0 49 16.5 91t46 72.5t70 48t87.5 17.5q95 0 142 -57q19 -23 27.5 -45.5t10.5 -57.5z" />
    <glyph glyph-name="f" unicode="f" horiz-adv-x="294" 
d="M231 433h24h32q12 0 12 -8q0 -6 -8.5 -8t-36.5 -2h-10t-28 1v-353q0 -17 0.5 -27t4 -14.5t10 -5.5t18.5 -1l29 1q13 0 13 -9q0 -8 -13 -8h-7t-9 1q-18 2 -40 2.5t-36 0.5q-13 0 -36 -0.5l-46 -1t-42.5 -1t-25.5 -0.5h-14q-12 0 -12 7q0 5 6.5 6.5t27.5 2.5q13 0 20.5 1
t11 5.5t4 13t0.5 25.5v354h-53q-15 0 -15 9q0 3 1 5t6 3t16 1h31h14v21q0 61 21 117.5t55 87.5q48 45 122 45q57 0 92.5 -26.5t35.5 -69.5q0 -26 -16.5 -43t-42.5 -17t-42.5 15.5t-16.5 38.5q0 6 0.5 11t2.5 10t6 12.5t11 18.5q4 5 4 14q0 10 -8 16.5t-21 6.5q-29 0 -50 -41
q-10 -20 -13.5 -46.5t-3.5 -79.5v-91h15z" />
    <glyph glyph-name="g" unicode="g" horiz-adv-x="497" 
d="M122 -49q-15 -18 -21.5 -38t-6.5 -46q0 -51 36 -78.5t102 -27.5q37 0 69 10.5t55.5 28.5t37 42.5t13.5 53.5q0 74 -87 74q-26 0 -50 -2.5t-60 -8.5q-24 -4 -43 -6t-30 -2h-15zM237 433q-38 0 -55.5 -33t-17.5 -105q0 -84 18 -119.5t60 -35.5q19 0 32.5 7t21 23.5t11 43.5
t3.5 67q0 79 -17.5 115.5t-55.5 36.5zM388 393q20 26 40.5 37.5t49.5 11.5q32 0 50 -16.5t18 -45.5q0 -24 -14 -38.5t-37 -14.5q-21 0 -34 12t-13 31q0 9 4 18q3 9 3 11q0 8 -5 12.5t-13 4.5q-12 0 -22.5 -10.5t-10.5 -23.5q0 -8 8 -22q11 -21 15 -35.5t4 -33.5
q0 -76 -69 -125q-28 -20 -58 -29t-72 -9q-10 0 -17.5 0.5t-15.5 1.5t-17.5 3.5t-23.5 6.5q-12 3 -19 3q-20 0 -33 -11.5t-13 -28.5q0 -36 57 -36q13 0 23.5 0.5t24 1.5t32 3.5t48.5 6.5q19 3 40 3q68 0 104.5 -33.5t36.5 -94.5q0 -49 -19.5 -88.5t-56 -67.5t-88 -43
t-115.5 -15q-91 0 -143 31.5t-52 86.5q0 44 28.5 67.5t93.5 32.5q-40 16 -57 36t-17 52q0 80 95 109q-45 23 -68.5 56.5t-23.5 75.5q0 33 15.5 62t43 50.5t64 34t78.5 12.5q51 0 86.5 -12.5t64.5 -40.5z" />
    <glyph glyph-name="h" unicode="h" horiz-adv-x="536" 
d="M208 374q15 21 28 34.5t28 21.5t33 11.5t42 3.5q42 0 67.5 -11t40.5 -35q7 -12 12 -22.5t8 -24t4 -30.5t1 -41v-122v-70v-41q0 -13 1.5 -20.5t6.5 -11.5t15.5 -5t27.5 -1q10 0 10 -7q0 -6 -9 -6h-20t-35 1h-25q-37 0 -67.5 0.5t-38.5 1.5h-16l-24 -1q-13 0 -13 7q0 6 5 6
l23 -1q22 0 25 12q1 3 1.5 6t0.5 12.5v28v53.5v149q0 53 -2 76t-7 34q-14 26 -50 26q-38 0 -60 -35q-3 -6 -5 -10.5t-3 -12t-1.5 -19t-0.5 -31.5v-157v-53.5t1 -26.5v-12l-1 -24q0 -10 8 -12.5t34 -2.5q9 0 9 -6q0 -7 -13 -7h-8t-24 1h-17h-27l-56 -1l-59 -2h-30
q-15 0 -15 6q0 5 11 5q21 0 31 1t15 3q7 2 8 22q1 7 1 36.5v83.5v367v57.5t-0.5 35.5t-1.5 19.5t-2 10.5q-4 18 -43 18q-21 0 -25 0.5t-4 5.5t5 6t29 2q27 2 45 4t33 4.5t30 6.5t37 11q5 2 11 3t8 1q5 0 6.5 -10.5t1.5 -45.5v-20q-1 -29 -1 -53v-44v-159z" />
    <glyph glyph-name="i" unicode="i" horiz-adv-x="291" 
d="M155 703q27 0 45 -18t18 -45q0 -29 -19 -48.5t-46 -19.5q-29 0 -47.5 19t-18.5 48q0 28 19 46t49 18zM85 347q0 19 -1 29.5t-5.5 16t-14 6.5t-25.5 1q-21 0 -24.5 1t-3.5 7q0 7 15 7q31 0 56 2t46.5 5.5t42 10t43.5 16.5q1 -9 2 -14.5t1.5 -11.5t1 -15t0.5 -25l1 -127
v-188q0 -21 1 -32t6.5 -16t17.5 -6t34 -1q11 0 11 -7t-9 -7l-133 2l-96 -2q-8 -1 -15 -1h-9q-12 0 -12 8q0 5 3 5.5t20 1.5q17 0 26 1.5t13.5 6t5.5 13.5t1 26v287z" />
    <glyph glyph-name="j" unicode="j" horiz-adv-x="279" 
d="M152 703q27 0 44.5 -17.5t17.5 -45.5t-18.5 -47t-46.5 -19t-46 18.5t-18 47.5q0 28 18.5 45.5t48.5 17.5zM216 151q0 -77 -0.5 -122.5t-2.5 -73t-6.5 -44.5t-11.5 -38q-11 -28 -29.5 -52.5t-42 -42.5t-50.5 -28t-54 -10q-41 0 -66.5 22t-25.5 56q0 27 16.5 43t44.5 16
q27 0 43 -15.5t16 -41.5q0 -17 -7 -35q-3 -9 -3 -15q0 -10 11 -10t18 6.5t10.5 27.5t5 60t1.5 103v34t-1 40q-1 26 -1 44.5v27.5v194v42v25t-0.5 13t-1.5 7q-1 11 -19 11h-15q-5 -1 -17.5 -1h-17.5q-14 0 -14 8q0 5 3.5 6t23.5 2q30 2 52 4.5t41 6t37.5 9t40.5 13.5
q8 2 11 2q5 0 5.5 -3t1.5 -16q2 -20 3 -59.5t1 -77.5v-138z" />
    <glyph glyph-name="k" unicode="k" horiz-adv-x="517" 
d="M453 433q11 0 14.5 -1t3.5 -5q0 -2 -0.5 -3.5t-4.5 -2t-12.5 -1t-23.5 -1.5q-18 -1 -25 -4t-19 -14q-18 -18 -39 -40.5t-40 -43.5q36 -54 64.5 -97.5t50.5 -76.5q8 -11 14.5 -22t14.5 -23q4 -6 5.5 -8t2.5 -3.5t2.5 -3.5t4.5 -7l17 -24l8 -12q10 -17 17 -21t27 -5
q20 0 20 -8q0 -5 -6.5 -6t-30.5 -1h-17q-16 1 -27.5 1.5t-23.5 0.5h-27h-36h-31t-25 -1q-13 -1 -17.5 -1h-9.5q-9 0 -11.5 1t-2.5 6t3.5 6t23.5 2q17 2 17 11q0 5 -9.5 22.5t-32.5 55.5q-9 14 -17.5 28t-17.5 28q-12 19 -18.5 30.5t-11 19t-8 12.5t-8.5 11v-148
q0 -27 0.5 -41t3 -21t7.5 -8t15 -1h4.5t5.5 1h8q10 0 10 -8t-11 -8h-4l-26 1h-33l-62 1h-70h-27q-4 -1 -6.5 -1h-4.5q-11 0 -11 7q0 5 3 6t23 2q32 0 38 7q1 1 2 3t1.5 6.5t0.5 13.5v26v397l-1 130q0 19 -1 30.5t-6.5 17t-16.5 7t-30 1.5t-19 7q0 6 4 7.5t29 1.5q50 3 88 10
t54 16q12 6 15.5 7t8.5 2q3 -10 4 -20.5t1 -33.5l2 -107q1 -15 1 -54.5v-96.5v-146q11 9 21.5 19.5t30.5 33.5q22 24 45 51q16 17 25.5 27.5t14.5 16.5t6.5 9t1.5 5q0 3 -1 4t-5.5 2t-13.5 1.5t-26 0.5q-23 0 -23 9q0 8 12 8l76 -2z" />
    <glyph glyph-name="l" unicode="l" horiz-adv-x="282" 
d="M78 607q0 17 -1 26.5t-5.5 14t-14.5 5.5t-27 1t-21 1t-4 6t3.5 6.5t22.5 2.5q22 1 48 4t51.5 7.5t47.5 10.5t36 12q-1 -23 -1 -114.5v-236.5v-249q0 -34 0.5 -52t3 -26.5t8 -10t16.5 -1.5l30 1q13 0 13 -8q0 -5 -6 -6.5t-32 -1.5q-8 0 -22 0.5t-34 1.5q-15 1 -27 1h-20
h-17t-25.5 -0.5t-25 -1t-14.5 -0.5l-30 -1q-14 0 -18 1t-4 6t4.5 6.5t18.5 0.5q36 0 41 8q3 4 4 14.5t1 44.5v434v93z" />
    <glyph glyph-name="m" unicode="m" horiz-adv-x="801" 
d="M213 372q46 74 136 74q101 0 119 -81q23 44 56 62t87 18q66 0 96.5 -34t30.5 -106v-14.5t-1 -20.5v-39v-172q0 -32 2.5 -39t16.5 -8q9 -1 19 -1.5t17 -0.5q10 0 10 -6q0 -9 -15 -7h-18l-29 1q-13 1 -30 1h-40h-56h-15t-22 -1h-13q-9 0 -11.5 1t-2.5 5t3 5t20 1
q16 1 22 4.5t7 13.5v29v194v61t-1 33.5t-2 17t-4 12.5q-9 29 -50 29q-38 0 -58 -32q-4 -6 -6.5 -11.5t-3.5 -18t-1.5 -36t-0.5 -66.5v-190q0 -15 0.5 -23t4.5 -12t13 -4.5t25 -0.5q9 0 9 -5q0 -8 -11 -8h-7t-9 1l-108 1h-41l-31 1h-14q-9 0 -9 6q0 5 3.5 5.5t20.5 0.5
q18 0 21 5l2 10v29v216q0 30 -0.5 49t-1.5 31t-3 19t-5 13q-5 10 -17.5 15.5t-28.5 5.5q-40 0 -61 -34q-3 -6 -5 -11t-3 -15t-1.5 -28t-0.5 -51v-198q0 -31 1 -39.5t4 -11.5q6 -4 28 -4h15q10 0 10 -6q0 -7 -9 -7h-9.5t-14.5 1h-42l-13 -0.5t-28 -1t-28.5 -1t-15.5 -0.5
q-18 -1 -36 -1t-35 -1h-14q-13 0 -13 8q0 7 9 7l23 -1q6 0 15 2.5t13 5.5q5 4 6.5 13t1.5 29v165q-2 143 -4 149q-5 6 -17 7.5t-45 1.5q-14 0 -14 7q0 8 13 8q54 2 95 12t83 32q8 5 13 5t5 -8v-11t-1 -14v-42z" />
    <glyph glyph-name="n" unicode="n" horiz-adv-x="543" 
d="M22 383q-16 0 -16 7q0 8 12 8q60 3 101.5 13.5t77.5 33.5q8 4 11 4q8 0 8 -16v-30.5t-1 -26.5q29 38 59.5 53.5t76.5 15.5q86 0 112 -60q5 -13 8.5 -25t5 -31.5t2 -49.5t0.5 -78v-145q0 -15 0.5 -23.5t4 -12.5t11 -5t20.5 -1q19 0 24 -1.5t5 -6.5t-4 -6.5t-21 -1.5h-12
h-14t-25 0.5t-45 1.5h-32l-86 -1q-14 0 -14 8q0 7 12 7h8q13 0 20 1t10.5 5.5t4 15t0.5 29.5v193q0 35 -0.5 57t-2 35.5t-4.5 21t-7 14.5q-11 18 -43 18q-31 0 -51 -19t-20 -48v-73v-189l1 -41q2 -12 8.5 -15t32.5 -5q8 0 8 -6q0 -3 -1 -4.5t-6 -2.5t-17 -1h-33h-29.5h-17
t-11.5 -0.5t-13 -0.5q-13 0 -28.5 -0.5l-31 -1t-29.5 -0.5h-23q-12 0 -12 7q0 5 5 6.5t25 1.5q14 0 24 3.5t12 8.5l3 14v30v200v56v29.5t-0.5 11.5t-1.5 4q-3 15 -27 15h-8.5t-14.5 -1h-11z" />
    <glyph glyph-name="o" unicode="o" horiz-adv-x="508" 
d="M255 432q-39 0 -61 -53t-22 -148q0 -28 2 -56t5.5 -53t8 -45t10.5 -32q11 -24 24.5 -34t34.5 -10q48 0 62 56q3 9 5.5 27.5t4.5 40t3 44.5t1 42q0 25 -1.5 51.5t-3.5 49.5t-5.5 41t-6.5 28q-20 51 -61 51zM258 445q46 0 87.5 -18.5t72 -50t48.5 -74t18 -90.5
q0 -107 -84 -173q-67 -52 -145 -52q-47 0 -89 18t-73.5 49t-50 72.5t-18.5 87.5q0 48 18.5 90t50 73.5t74 49.5t91.5 18z" />
    <glyph glyph-name="p" unicode="p" horiz-adv-x="534" 
d="M201 130q0 -22 0.5 -35.5t2 -22.5t5 -15.5t8.5 -13.5q23 -34 62 -34q18 0 32.5 8.5t22.5 23.5q14 28 21.5 76.5t7.5 111.5q0 94 -22 142.5t-64 48.5q-39 0 -64 -36q-4 -6 -6.5 -10t-3.5 -10t-1.5 -14.5t-0.5 -22.5v-197zM201 -186q0 -14 0.5 -22.5t2.5 -13t5 -6.5t9 -3
q7 -2 16.5 -2t36.5 -1q11 0 11 -9q0 -7 -13 -7h-10t-17 1h-45h-56h-16.5h-13.5t-17 -0.5t-27 -0.5h-50q-14 0 -18 1.5t-4 6.5t4.5 6t31.5 1q17 0 24.5 1.5t9.5 5.5q2 2 2.5 9.5t0.5 27.5v474v30q-1 9 -1 13.5v8.5l1 28q0 18 -9.5 23.5t-40.5 5.5h-19q-8 0 -8 6q0 7 12 6
q59 2 101.5 11t84.5 29q4 -5 5 -16l2 -25l1 -17q27 34 53 46.5t67 12.5q42 0 77 -16.5t61 -46t40.5 -70t14.5 -87.5q0 -51 -15.5 -94.5t-42.5 -75.5t-64.5 -50t-80.5 -18q-36 0 -60 11.5t-46 40.5v-225z" />
    <glyph glyph-name="q" unicode="q" horiz-adv-x="516" 
d="M333 299q0 30 -0.5 49.5t-2 31.5t-4 19.5t-6.5 13.5q-14 20 -46 20q-28 0 -47.5 -11.5t-31.5 -36.5t-17.5 -64.5t-5.5 -96.5q0 -212 88 -212q18 0 34.5 10t27.5 29q3 5 5 10.5t3 22.5t1.5 51.5t1.5 97.5v66zM333 35q-26 -26 -50 -36.5t-56 -10.5q-43 0 -80 17t-64.5 46.5
t-43 69.5t-15.5 86q0 53 17.5 96.5t49.5 75t76 49t98 17.5q20 0 36 -2.5t35 -7.5q16 -5 25.5 -7.5t15.5 -4t11 -1.5h13q15 0 30 5t24 13q4 3 6 3t3 -6t1 -26l-1 -66v-19.5t1 -30.5v-57v-430q0 -15 1 -23t5.5 -12.5t13.5 -5.5t26 -2q22 -1 26 -2t4 -6q0 -7 -11 -7h-12l-34 1
h-38l-51 1q-18 1 -35.5 1h-30.5h-39.5t-26.5 -2h-7q-9 0 -9 6q0 8 10 9q26 0 46 2t23 5q3 2 4 5.5t2 12.5t1 26v47v171z" />
    <glyph glyph-name="r" unicode="r" horiz-adv-x="399" 
d="M216 356q19 49 41.5 69t58.5 20q34 0 55.5 -21t21.5 -53q0 -29 -17 -47.5t-44 -18.5q-24 0 -39 13.5t-15 36.5q0 11 2.5 17t10.5 17q3 4 3 7q0 9 -13 9q-16 0 -30 -14.5t-22 -38.5q-3 -11 -5 -19.5t-3 -23.5t-1.5 -39t-0.5 -65v-73l1 -88q1 -16 7 -22t20 -7
q10 -1 19.5 -1h18.5q11 -1 11 -7q0 -8 -9 -8h-20q-3 0 -13 0.5t-22.5 0.5h-26h-25.5h-14.5t-30.5 -1l-49 -1h-38q-8 -1 -13.5 -1h-9.5q-11 0 -11 7t14 7q21 0 33 2t18 7t7 15.5t0 28.5v2v175l-1 93q0 36 -10.5 48t-41.5 15q-25 2 -29 3t-4 7t8 6h6.5t10.5 -1h20q24 0 42 1
t36.5 4.5t39 10t48.5 16.5q3 -12 4 -20.5t1 -25.5v-24v-18z" />
    <glyph glyph-name="s" unicode="s" horiz-adv-x="354" 
d="M306 327q0 -8 -6 -8q-5 0 -8 9q-29 102 -118 102q-33 0 -54.5 -18t-21.5 -46q0 -13 4 -22.5t14 -18t27 -17t43 -17.5q45 -16 75 -31.5t48 -33t25 -39t7 -49.5q0 -33 -10.5 -61t-30 -47.5t-46.5 -30.5t-60 -11q-34 0 -76 16q-13 4 -20.5 7t-12 4t-7.5 1.5t-7 0.5
q-18 0 -25 -15q-4 -9 -5.5 -11t-3.5 -2q-6 0 -6 7q0 3 0.5 8t1.5 11q2 8 2.5 28t0.5 38v10t-1 22v17q0 11 5 11q6 0 9 -15q4 -26 17.5 -49t33 -39.5t44 -26t50.5 -9.5q33 0 53.5 20.5t20.5 53.5q0 25 -19 44q-6 5 -11 8.5t-12.5 6.5t-20 7.5t-31.5 10.5q-75 25 -108.5 60
t-33.5 91q0 30 10.5 55.5t29.5 44.5t44 30t54 11q7 0 13.5 -0.5t14.5 -2t19.5 -4.5t28.5 -7q8 -2 12 -2q13 0 19.5 5.5t13.5 21.5q2 5 5 5q7 0 7 -12v-3t-1 -16q-1 -4 -1 -14q0 -21 1.5 -42.5t3.5 -41.5v-5z" />
    <glyph glyph-name="t" unicode="t" horiz-adv-x="316" 
d="M206 397q0 -60 0.5 -112.5t1.5 -93.5t2 -69t3 -39q9 -58 56 -58q21 0 54 30q12 11 14.5 12.5t5.5 1.5t3 -5q0 -10 -19 -29q-50 -47 -135 -47q-38 0 -65.5 10.5t-38.5 28.5q-5 7 -7.5 13t-4 15t-1.5 24.5v42.5v48q-1 24 -1 40v21v90l-1 72q-1 18 -5.5 21t-29.5 3
q-21 0 -25.5 1t-4.5 7t11 8q46 2 86.5 27t72.5 71q7 11 10.5 14.5t6.5 3.5q6 0 6 -14v-43t0.5 -27.5t2 -15.5t3.5 -7q4 -4 17.5 -6.5t32.5 -2.5q42 0 59 4q2 1 4 1q4 0 4 -6q0 -14 -13 -14q-24 -1 -44 -1h-47h-5t-9 1v-21z" />
    <glyph glyph-name="u" unicode="u" horiz-adv-x="543" 
d="M472 109q0 -24 0.5 -36.5t2 -19t5 -8.5t9.5 -3q8 -2 17 -2h37q13 0 13 -8q0 -5 -3 -7t-14 -2q-45 -2 -75 -4t-50.5 -5.5t-34 -9t-26.5 -14.5q-5 -4 -11 -4q-4 0 -4 8v10t1 12q1 7 1 12v9v6.5t-1 9.5q-35 -37 -65.5 -51.5t-71.5 -14.5q-65 0 -104 42q-14 15 -19 36.5
t-5 59.5v71v29.5v29.5t0.5 47.5t0.5 82.5q0 11 -1.5 17t-6 9.5t-12.5 4.5t-23 2q-16 1 -21 2t-5 6q0 8 14 8h11q21 -2 45.5 -2.5t41.5 -0.5h10h11t19 0.5t35 1.5h19v-108q-1 -47 -1.5 -73t-1 -39.5t-0.5 -19v-12.5q0 -32 0.5 -53.5t2 -36.5t4 -24t6.5 -16q13 -27 43 -27
q15 0 31.5 10t30.5 27q4 6 6.5 10.5t3.5 12.5t1.5 21t0.5 35v172q0 38 -0.5 60.5t-1.5 27.5q-2 12 -6.5 15t-18.5 4h-28q-14 0 -14 8q0 2 1 3.5t6 2t16 0.5h31h27h25t36.5 0.5t60.5 0.5q0 -14 -0.5 -26.5t-0.5 -26v-30.5v-39v-203z" />
    <glyph glyph-name="v" unicode="v" horiz-adv-x="412" 
d="M205 433q5 1 9.5 1h6.5q11 0 11 -7q0 -2 -0.5 -3t-5 -2t-13.5 -1.5t-25 -1.5q-12 -2 -12 -12q0 -6 9.5 -35t23.5 -67.5t30 -80t29 -71.5q15 39 30 81.5t27 78.5t20 61t8 29q0 10 -8.5 13.5t-29.5 3.5q-26 -1 -26 7q0 6 8 6h4h15h26q17 -1 27.5 -1h16.5h19t16 1q4 1 8 1h6
q9 0 9 -7q0 -5 -4 -5.5t-20 -1.5q-13 0 -21.5 -2.5t-15 -9.5t-13 -20.5t-15.5 -36.5q-14 -43 -24.5 -73t-17.5 -48q-32 -85 -52 -140t-30 -81q-8 -23 -18 -23q-3 0 -5.5 1.5t-8 11.5t-15.5 32t-26.5 62t-42 102t-62.5 152q-8 18 -12 28.5t-6.5 16t-4 8t-2.5 5.5
q-6 8 -14.5 10.5t-30.5 2.5q-16 0 -16 8t11 8h6.5t9.5 -1q1 0 16 -0.5t34 -1t36.5 -0.5h24.5z" />
    <glyph glyph-name="w" unicode="w" horiz-adv-x="595" 
d="M604 432q9 1 15 1h8q9 0 9 -7q0 -5 -3.5 -6.5t-20.5 -1.5q-20 -2 -26.5 -7t-15.5 -27q-6 -14 -16.5 -42t-23 -63t-26.5 -74.5t-27 -77.5t-24 -71.5t-18 -55.5q-5 -18 -13 -18q-6 0 -10 10q-5 11 -9.5 22t-9.5 24q-6 14 -10 24t-10 24.5t-15 39t-25 67.5q-7 16 -14 35.5
t-14 36.5q-8 -23 -19.5 -53.5t-25.5 -68.5q-17 -50 -29 -84.5t-20 -55.5q-6 -20 -15 -20q-3 0 -5 2.5t-7 13.5t-13 34t-23 65q-23 59 -38.5 99.5t-27.5 71t-22.5 56.5t-23.5 56q-11 26 -18.5 32.5t-23.5 5.5q-17 0 -23.5 1t-6.5 6q0 8 12 8h11q23 -2 38.5 -2.5t32.5 -0.5h28
t34.5 0.5t32.5 1t22 0.5q11 1 20 1h14q19 0 19 -6q0 -5 -4 -5.5t-25 -1.5q-18 -1 -24 -4t-6 -12q0 -4 1 -9t5.5 -18t13.5 -38.5t26 -69.5q7 -20 12 -33.5t8.5 -24.5t7 -21t7.5 -23q4 9 7 16t6 15.5t7.5 20t10.5 29.5q6 16 11.5 31.5t11.5 30.5q6 20 12 35.5t11 29.5
q12 36 18.5 48t12.5 12q3 0 5.5 -2t5.5 -8.5t8 -18.5t13 -32q9 -23 15.5 -39.5t18.5 -45.5l33 -78q4 -10 6.5 -16t10.5 -22q16 43 30 82t24.5 69.5t16 51t5.5 26.5q0 10 -8.5 12.5t-39.5 2.5q-17 0 -17 8q0 7 11 7l48 -1h60z" />
    <glyph glyph-name="x" unicode="x" horiz-adv-x="461" 
d="M309 206q17 -30 29.5 -52t20.5 -37q18 -35 30.5 -55.5t24 -31t24 -13.5t30.5 -3q14 0 14 -7t-12 -7h-23l-36 1h-34h-38l-126 -2q-15 0 -15 8q0 5 3 6t13 1h16q19 0 25.5 2t6.5 8q0 4 -6 18t-17 35t-25.5 47t-31.5 55q-14 -19 -23 -31t-16.5 -22.5t-15.5 -22t-20 -29.5
q-10 -18 -24 -34q-8 -11 -8 -17q0 -5 7 -7t25 -2h6.5t9.5 1h9q15 0 15 -8t-12 -8l-117 1h-22t-11.5 1t-4 2t-0.5 4q0 8 15 7q16 0 27 2t21 10t22.5 23.5t31.5 42.5l16 22l16 22q10 13 16 21.5t10.5 14.5t8.5 12t9 14q-4 5 -11.5 18.5t-19.5 34.5q-12 22 -22 39.5t-20 34.5
l-26 45q-9 15 -15.5 24.5t-13 14.5t-14 6.5t-18.5 1.5q-14 1 -19.5 2.5t-5.5 5.5q0 8 14 8h7.5t13.5 -1l98 -1l120 2q13 0 13 -7q0 -5 -4 -6t-21 -2q-18 -1 -23.5 -3t-5.5 -9q0 -21 68 -127q37 49 61 85.5t24 44.5q0 10 -30 10h-5q-5 -1 -8.5 -1h-6.5q-9 0 -9 8q0 5 3 6
t12 1h8.5t27.5 -1q8 -1 14 -1h12h13t18 0.5t17 1t10 0.5h10q11 0 11 -7q0 -8 -15 -8h-3.5t-6.5 1h-9q-11 0 -18 -1.5t-16 -10.5t-23 -29t-38 -56q-4 -5 -7.5 -10.5t-8.5 -12.5t-11.5 -16.5t-15.5 -22.5z" />
    <glyph glyph-name="y" unicode="y" horiz-adv-x="393" 
d="M198 432q5 1 8.5 1h5.5q11 0 11 -7q0 -5 -4.5 -6.5t-25.5 -1.5q-30 1 -30 -13q0 -8 5 -21q9 -20 15 -43q12 -33 24 -65t22.5 -59.5t19.5 -49t14 -33.5q16 42 33 87.5t30 84.5t21.5 66t8.5 32q0 11 -23 11q-29 0 -38.5 1.5t-9.5 7.5q0 9 12 9h8t12 -1q8 -1 24.5 -1.5
t27.5 -0.5q4 0 12 0.5t18 1t19 1t14 0.5h6q9 0 9 -7t-4 -8t-28 -2q-18 0 -23.5 -0.5t-8.5 -2.5l-6 -11l-12 -35q-8 -26 -17 -50t-19 -47q-11 -31 -22 -61.5t-22 -61.5q-29 -81 -49 -136.5t-34 -93t-24.5 -62t-20.5 -43.5q-36 -72 -92 -72q-32 0 -51.5 19t-19.5 50
q0 23 14.5 36t39.5 13q16 0 24 -7.5t22 -32.5q7 -10 19 -10q10 0 19.5 7.5t19.5 26t22 49t28 77.5q-5 10 -8 17.5t-6 14.5t-7 16t-10 23q-6 15 -16.5 41.5t-22.5 55.5t-23 56.5t-18 45.5q-16 38 -29.5 71t-24.5 60q-7 17 -12 26.5t-12 14t-17.5 6t-28.5 1.5q-12 0 -12 8
q0 5 2 6.5t10 1.5h18q24 -2 46 -2h45z" />
    <glyph glyph-name="z" unicode="z" horiz-adv-x="391" 
d="M369 436q6 0 6 -4q0 -3 -1.5 -8t-7.5 -16.5t-18 -32t-32 -56.5q-54 -97 -96 -171.5t-73 -130.5q29 -2 41.5 -2.5t25.5 -0.5q22 0 37.5 1.5t28 5t22.5 10t21 16.5q16 15 28.5 36.5t23.5 53.5q5 13 10 13q6 0 6 -7v-4t-1 -6.5t-3 -13t-6 -23.5q-7 -22 -11 -49
q-1 -11 -2.5 -19.5t-3.5 -14.5l-3 -13h-13l-110 -2l-137 1l-44 -1q-17 -1 -30 -1.5t-17 -0.5q-10 0 -10 6q0 2 0.5 3l1.5 3q31 55 62 110.5t61 112.5q18 32 31.5 55t23 39.5t16.5 29t13 23.5l21 39q-8 2 -13 2h-13q-35 0 -60 -5t-43 -18t-30.5 -34t-22.5 -53q-6 -15 -11 -15
t-5 6q0 1 9 48l9 45l5 32l2 12h-2h17l39 -2l140 -1h24.5t36 0.5t34.5 1t19 0.5h4z" />
    <glyph glyph-name="ae" unicode="&#xe6;" horiz-adv-x="645" 
d="M384 276q20 2 57 8.5t75 14.5q-5 75 -19 104.5t-43 29.5q-35 0 -51.5 -37.5t-18.5 -119.5zM260 243q-50 -10 -76 -43.5t-26 -87.5q0 -34 12.5 -53t35.5 -19q20 0 33.5 14t17.5 38q1 6 1.5 11t1 19t0.5 42v79zM347 402q25 23 51 32.5t61 9.5q44 0 75 -14t54 -44
q17 -20 26 -38t14 -38q-20 -7 -52 -15t-67 -15.5t-69 -13t-58 -7.5q-2 -20 -3 -31.5t-1 -25.5q0 -82 33 -131t88 -49q38 0 70 25t51 69q4 11 8 11t4 -7q0 -12 -13 -35t-30 -41q-54 -57 -133 -57q-59 0 -102 23t-84 76q-35 -98 -131 -98q-45 0 -72 25.5t-27 68.5q0 39 22 72
t64 55q12 7 22 11.5t23.5 9.5t34 11t54.5 16q1 17 1 29.5v20.5q0 70 -18 98t-63 28q-32 0 -52.5 -16t-20.5 -41q0 -12 9 -12h13q17 0 27.5 -14t10.5 -34q0 -23 -14.5 -36.5t-38.5 -13.5q-27 0 -45 17.5t-18 44.5q0 24 11.5 45.5t31.5 37.5t46.5 25t57.5 9q24 0 42 -1.5
t34 -6t31 -11.5t32 -18z" />
    <glyph glyph-name="oe" unicode="&#x153;" horiz-adv-x="730" 
d="M593 309q0 70 -11.5 97t-42.5 27q-30 0 -47 -29.5t-23 -94.5h82h28h14zM255 432q-41 0 -62 -51t-21 -150q0 -28 2 -55.5t6 -52.5t9.5 -45.5t11.5 -33.5q20 -43 58 -43q42 0 59 47t17 161q0 26 -1.5 52t-4 49.5t-6 42.5t-7.5 30q-18 49 -61 49zM714 297q-35 -3 -186 -3
q-13 0 -21.5 -0.5t-14.5 -0.5t-11.5 -0.5t-13.5 -1.5q-2 -18 -2.5 -31t-0.5 -31q0 -69 11 -109.5t37 -66.5q32 -30 74 -30q36 0 66.5 23t50.5 65q8 17 12 17q3 0 3 -5q0 -14 -12.5 -37t-29.5 -41q-53 -58 -129 -58q-23 0 -51 6t-45 15q-5 3 -9 5.5t-10 7t-14.5 11
t-22.5 17.5q-52 -62 -139 -62q-47 0 -89 18t-74 49t-50.5 72t-18.5 87q0 48 18.5 90.5t50 74t74.5 49.5t93 18q42 0 75.5 -13.5t61.5 -40.5q4 2 7.5 5t7.5 6q17 12 31 20.5t28.5 13.5t30 7t35.5 2q89 0 137 -55q20 -23 29 -44t11 -49z" />
    <glyph glyph-name="oslash" unicode="&#xf8;" horiz-adv-x="508" 
d="M185 86q9 -45 26 -65t46 -20q48 0 62 56q3 9 5.5 27.5t4.5 40.5t3 45t1 42q0 20 -2 53.5t-4 62.5zM320 367q-10 35 -25 50t-39 15q-40 0 -62 -52.5t-22 -149.5q0 -23 1.5 -47.5t5.5 -57.5zM389 477q5 8 13 8q13 0 13 -10q0 -6 -6 -15l-31 -52q51 -33 78.5 -84t27.5 -112
q0 -107 -84 -173q-67 -52 -145 -52q-31 0 -57.5 7t-56.5 24l-35 -58q-5 -9 -13 -9q-5 0 -9.5 3t-4.5 8q0 3 1 5t6 10l33 55q-46 35 -70.5 81.5t-24.5 100.5q0 48 18 90t49.5 73.5t74 49.5t90.5 18q26 0 49.5 -5.5t50.5 -18.5z" />
    <glyph glyph-name="germandbls" unicode="&#xdf;" horiz-adv-x="556" 
d="M335 413q37 -5 58.5 -12t42.5 -20q44 -26 67.5 -71.5t23.5 -102.5q0 -48 -14 -88t-39.5 -69t-60.5 -45t-76 -16q-45 0 -70.5 22.5t-25.5 60.5q0 31 16 49t43 18q23 0 37 -14.5t14 -37.5q0 -28 -33 -47q-12 -7 -16.5 -11t-4.5 -9q0 -7 8.5 -12t20.5 -5q34 0 47.5 40.5
t13.5 139.5q0 115 -28.5 167.5t-90.5 51.5q-31 0 -31 11q0 8 12 8q33 1 45.5 2.5t23.5 9.5q12 7 19.5 17t12 25t6.5 37t2 53q0 70 -15.5 99t-53.5 29q-61 0 -75 -78q-3 -17 -4.5 -28t-2.5 -27t-1 -41.5v-71.5l-1 -167v-280h-13h-45h-37h-36t-29 -1q-12 -1 -22 -1h-15
q-13 0 -13 8q0 5 3 6t13 1q24 0 36.5 1t18.5 5.5t7 15t1 29.5v322q0 54 2 92t6.5 65.5t13 47.5t20.5 37q29 41 70.5 59t105.5 18q45 0 76 -7.5t58 -25.5q30 -19 46 -47.5t16 -60.5q0 -57 -40.5 -96.5t-112.5 -50.5v-4z" />
    <glyph glyph-name="dotlessi" unicode="&#x131;" horiz-adv-x="291" 
d="M85 347q0 19 -1 29.5t-5.5 16t-14 6.5t-25.5 1q-21 0 -24.5 1t-3.5 7q0 7 15 7q31 0 56 2t46.5 5.5t42 10t43.5 16.5q1 -9 2 -14.5t1.5 -11.5t1 -15t0.5 -25l1 -127v-188q0 -21 1 -32t6.5 -16t17.5 -6t34 -1q11 0 11 -7t-9 -7l-133 2l-96 -2q-8 -1 -15 -1h-9q-12 0 -12 8
q0 5 3 5.5t20 1.5q17 0 26 1.5t13.5 6t5.5 13.5t1 26v287z" />
    <glyph glyph-name="ccedilla" unicode="&#xe7;" horiz-adv-x="407" 
d="M214 -18v-7v-11q5 1 9 1h6q39 0 66 -22t27 -54q0 -18 -8.5 -34t-22.5 -28t-33 -19t-41 -7q-12 0 -26 4t-26 10t-19.5 13t-7.5 13q0 5 5 5q2 0 7 -5q16 -15 38 -15t35 21t13 56q0 51 -34 52h-4q-1 14 -1 19v15q-39 10 -70.5 30.5t-54.5 49.5t-35.5 64.5t-12.5 74.5
q0 50 18 93t49.5 75t73.5 50.5t91 18.5q31 0 58.5 -8t48 -22t32 -32.5t11.5 -40.5q0 -24 -13.5 -39t-36.5 -15t-37.5 13t-14.5 34q0 8 1.5 14.5t4.5 14.5q5 11 5.5 14.5t0.5 8.5q0 20 -14.5 33t-35.5 13q-45 0 -68 -51.5t-23 -151.5q0 -60 9.5 -100t30.5 -66
q14 -17 35 -27.5t41 -10.5q50 0 96 61q6 8 11 8q4 0 4 -6q0 -8 -10.5 -23.5t-25.5 -29.5q-52 -49 -130 -49h-9t-13 1v-6z" />
    <glyph glyph-name="one" unicode="1" 
d="M364 158q1 -47 1 -72.5t1 -30.5q1 -23 9.5 -31.5t29.5 -7.5q33 1 47 -1.5t14 -7.5t-5.5 -6.5t-20.5 -1.5h-24q-3 0 -16.5 0.5t-31 0.5h-35h-27.5l-125 -1q-16 -1 -27.5 -1h-16.5q-14 0 -19.5 2t-5.5 7q0 6 5.5 7t38.5 1q15 0 24 0.5t14.5 2t9 3.5t6.5 5q3 5 4 11t2 16v56
v316q0 51 -0.5 87.5t-1.5 41.5q-4 16 -28 16l-51 -1q-26 0 -26 8q0 4 6 5.5t27 3.5q45 4 78 13t67 29q2 1 4 2.5t5 3.5t9.5 6t17.5 11l38 23l4 -15v-5q0 -2 -0.5 -5t-0.5 -6v-58v-427z" />
    <glyph glyph-name="two" unicode="2" 
d="M283 122q74 0 115.5 1.5t62.5 9.5t28 23.5t12 44.5q4 19 7.5 26.5t8.5 7.5q9 0 9 -14q0 -4 -0.5 -9t-1.5 -10q-5 -25 -8 -45.5t-5.5 -43t-4.5 -50t-5 -66.5q-9 0 -40 1t-68 2t-72.5 1.5t-53.5 0.5q-8 0 -23.5 -0.5t-40.5 -1.5l-79 -2l-54 -1q-8 -1 -14.5 -1h-8.5
q-36 0 -36 12q0 8 15 20q60 48 112.5 96.5t92.5 92.5q86 95 86 236q0 95 -45 144q-17 20 -36.5 27.5t-49.5 7.5q-26 0 -41.5 -5.5t-32.5 -19.5q-30 -25 -30 -54q0 -13 7.5 -17t35.5 -6q32 -2 50.5 -22.5t18.5 -51.5q0 -32 -18 -51t-47 -19q-38 0 -61.5 29t-23.5 77
q0 82 55.5 128.5t152.5 46.5q50 0 91.5 -14.5t71.5 -41t46.5 -63t16.5 -80.5q0 -108 -108 -203q-46 -40 -97.5 -75.5t-113.5 -69.5l33 1z" />
    <glyph glyph-name="three" unicode="3" 
d="M303 358q38 -1 68.5 -9t61.5 -27q75 -44 75 -127q0 -45 -21.5 -83t-59 -65.5t-89 -43.5t-111.5 -16q-85 0 -132 31.5t-47 88.5q0 36 22.5 59t58.5 23q32 0 50 -16.5t18 -45.5q0 -49 -65 -67q-23 -8 -23 -16q0 -6 8 -12t20.5 -11t27.5 -8.5t29 -3.5q73 0 114 49t41 137
q0 45 -11.5 73.5t-37.5 47.5q-33 24 -78 24h-14q-5 -1 -10 -1h-13q-12 0 -12 8q0 4 0.5 6t4.5 3.5t11.5 3t22.5 3.5q21 4 38.5 16.5t30 32t20 44t7.5 51.5q0 56 -32.5 90t-86.5 34q-35 0 -60.5 -15t-25.5 -35q0 -8 13 -11q42 -8 59 -22.5t17 -43.5q0 -26 -16 -42.5
t-42 -16.5q-35 0 -55 21t-20 57q0 32 14 58.5t39 45t60 29t78 10.5q49 0 89 -11t68.5 -30.5t44.5 -47t16 -61.5q0 -54 -45.5 -95.5t-120.5 -57.5z" />
    <glyph glyph-name="four" unicode="4" 
d="M277 183q1 51 1.5 91.5t1.5 75.5t2.5 66.5t3.5 63.5q-9 -9 -15.5 -16.5t-15.5 -18.5t-21.5 -27.5t-32.5 -42.5q-17 -22 -34 -43.5t-34 -43.5q-16 -20 -27.5 -34.5t-20 -25.5t-15.5 -20.5t-15 -20.5q18 -1 34 -2t33 -1.5t37.5 -0.5h47.5h70zM424 141v-43v-39
q0 -15 1 -23.5t8.5 -13t23 -5.5t44.5 -1q14 0 19 -2t5 -7t-8 -6t-42 -1h-94.5h-62t-45.5 -0.5t-47 -1.5q-12 -1 -22.5 -1h-17.5q-11 0 -14.5 1.5t-3.5 6.5q0 7 5 9t25 1q36 1 51 3t19 7q5 5 6 11t2 21v56v43h-99q-63 0 -97.5 0.5t-50.5 1.5t-18.5 3t-2.5 6q0 7 14 26
q15 19 24 30t18.5 23t22 28.5t35.5 45.5q46 60 101 127.5t107 128.5q14 17 27.5 33.5t27.5 33.5q21 26 29 26q5 0 7 -5t2 -19l1 -461q22 0 35 0.5t20.5 1.5t12 1.5t9.5 2.5q5 3 7.5 5.5t4 7.5t1.5 15v27q0 20 2.5 28t7.5 8q3 0 5 -1.5t3 -11.5t1.5 -31.5t0.5 -60.5
q0 -32 0.5 -53.5t1.5 -27.5q1 -5 1 -9.5v-8.5q0 -11 -7 -11q-4 0 -6 1t-3.5 6t-2.5 15t-2 27q-1 25 -7 32.5t-26 10.5l-59 1v-18z" />
    <glyph glyph-name="five" unicode="5" 
d="M133 534q-4 -55 -6 -155q32 17 65.5 24t74.5 7q53 0 96 -14t73.5 -40t47 -62.5t16.5 -81.5q0 -49 -20 -90t-55 -71t-84 -46.5t-107 -16.5q-87 0 -135.5 33t-48.5 93q0 36 22.5 58t59.5 22q29 0 46 -16t17 -45q0 -44 -61 -65q-25 -8 -25 -17q0 -7 9.5 -15t24 -14.5
t32 -10.5t33.5 -4q60 0 95 53.5t35 144.5q0 82 -32 127.5t-90 45.5q-32 0 -56 -8.5t-56 -31.5q1 9 1.5 16t0.5 14.5t0.5 17t0.5 23.5q1 48 2 88.5t2.5 71.5t3.5 50t4 24q2 4 7 6t16.5 3.5t32.5 2t54 0.5l179 -1q14 0 18.5 5t6.5 21q2 14 9 14t7 -13q0 -9 -1 -25.5t-3 -33.5
t-4 -31.5t-3 -19.5q-6 -22 -21.5 -30t-52.5 -8h-16.5t-36.5 1h-120h-37h-21z" />
    <glyph glyph-name="six" unicode="6" 
d="M277 392q-40 0 -57.5 -39.5t-17.5 -127.5q0 -55 9.5 -103t26.5 -81q18 -37 56 -37q39 0 56 39.5t17 130.5q0 116 -21 167t-69 51zM204 376q30 28 56.5 39t61.5 11q45 0 83 -15.5t65.5 -43t43.5 -65.5t16 -82q0 -54 -22 -101.5t-63 -82.5q-31 -26 -63.5 -37.5t-77.5 -11.5
q-59 0 -107 21t-82 58.5t-53 90.5t-19 118q0 109 49.5 199t140.5 144q44 26 101 40.5t116 14.5q24 0 31 -1t7 -6q0 -6 -11 -6q-25 -1 -50 -7t-49 -16.5t-45 -25t-37 -31.5q-38 -40 -61 -92t-31 -112z" />
    <glyph glyph-name="seven" unicode="7" 
d="M368 532h-104q-23 -1 -36 -1h-21l-51 1q-18 0 -29.5 -3t-19 -12t-12.5 -26t-10 -45q-1 -13 -8 -13q-9 0 -9 14q0 6 3 26q2 8 5 31.5t9 63.5q2 19 4.5 36t4.5 34q2 10 3 13t6 8q30 -2 52 -3t40.5 -2t35 -1h34.5h39t55 0.5t62.5 1t62.5 1.5h25h25q14 0 14 -7q0 -2 -0.5 -4
t-3.5 -7t-10 -15t-20 -28q-16 -23 -35.5 -51.5t-38.5 -57t-35.5 -54t-26.5 -41.5q-29 -47 -42 -90t-13 -88q0 -12 0.5 -20.5t2 -19t4.5 -25.5l8 -40q6 -26 6 -47q0 -31 -17.5 -52.5t-43.5 -21.5q-33 0 -54.5 30t-21.5 77q0 45 21.5 97.5t68.5 123.5q68 103 104 156.5
t41 60.5h-74z" />
    <glyph glyph-name="eight" unicode="8" 
d="M280 340q-47 0 -67 -39.5t-20 -130.5q0 -88 23.5 -127.5t75.5 -39.5q42 0 59 33.5t17 111.5q0 53 -4.5 89.5t-15 59.5t-27.5 33t-41 10zM276 650q-34 0 -50 -35.5t-16 -112.5q0 -72 18.5 -109.5t54.5 -37.5q32 0 45 28t13 99q0 45 -6 83.5t-16 58.5q-8 14 -17 20t-26 6z
M362 347q169 -37 169 -169q0 -71 -58 -125q-73 -67 -187 -67q-55 0 -101.5 14t-80.5 38.5t-53 58t-19 73.5q0 44 19.5 81t54.5 58q20 12 41 20t58 18l-1 5q-142 36 -142 148q0 37 15.5 67.5t43.5 52.5t66.5 34.5t84.5 12.5q49 0 89.5 -12t69.5 -34t44.5 -53t15.5 -68
q0 -53 -31.5 -89t-97.5 -60v-4z" />
    <glyph glyph-name="nine" unicode="9" 
d="M266 648q-39 0 -55 -40t-16 -137q0 -110 21.5 -160t69.5 -50q22 0 35.5 9.5t22.5 32.5q18 40 18 103q0 48 -4 84.5t-14 72.5q-13 46 -30.5 65.5t-47.5 19.5zM359 276q-33 -28 -58.5 -38t-60.5 -10q-45 0 -83 15.5t-65.5 42.5t-43 64.5t-15.5 82.5q0 50 17.5 92.5t48 74
t72.5 49t91 17.5q37 0 74.5 -11.5t67.5 -31.5q56 -37 85.5 -101t29.5 -148q0 -59 -15 -112.5t-43.5 -99.5t-69.5 -83t-92 -61q-81 -39 -205 -39q-21 0 -21 7t18 7q10 0 23.5 2.5t28 6.5t28.5 9t26 11q31 15 59 42t50 61t36 73t17 78z" />
    <glyph glyph-name="zero" unicode="0" 
d="M284 649q-52 0 -72 -70q-5 -17 -9.5 -42t-7.5 -55t-4.5 -63t-1.5 -66q0 -112 11.5 -194t32.5 -116q12 -21 24 -29t31 -8q27 0 42.5 16.5t24.5 54.5q4 15 7 44t5.5 64.5t4 75.5t1.5 78q0 45 -2.5 88.5t-6.5 80t-9.5 64t-12.5 41.5q-18 36 -58 36zM286 667q36 0 70 -10.5
t59 -30.5q28 -22 51 -54t39 -71.5t24.5 -85t8.5 -93.5q0 -73 -18.5 -134t-52 -105.5t-79.5 -69.5t-101 -25q-54 0 -102 26.5t-84 72.5t-56.5 107.5t-20.5 131.5q0 90 30.5 165t86.5 123q32 28 66.5 40.5t78.5 12.5z" />
    <glyph glyph-name="sterling" unicode="&#xa3;" 
d="M332 298h40h41q15 1 25.5 1h16.5q14 0 14 -11q0 -6 -1 -9t-6 -4.5t-16 -1.5h-30h-15.5h-31.5t-38.5 0.5t-36.5 0.5q1 -53 -30.5 -96.5t-105.5 -90.5q-5 -2 -5 -4q0 -4 7 -4q5 0 10 2t16 9q25 17 55.5 26.5t56.5 9.5q25 0 49.5 -5t59.5 -17q23 -8 37 -11t28 -3
q33 0 49 18.5t19 60.5q0 15 9 15t9 -14q0 -67 -13 -110q-11 -38 -42 -58t-79 -20q-16 0 -29 1.5t-31.5 6.5t-46.5 14.5t-73 26.5q-26 9 -44 13t-35 4q-36 0 -62.5 -12.5t-49.5 -41.5q-5 -6 -9 -6q-3 0 -7 4.5t-7.5 10.5t-6.5 12.5t-3 11.5q0 3 0.5 5t4 4t10.5 4l21 6
q105 27 105 145q0 20 -3 38t-11 44q-8 1 -14.5 1h-8.5h-35q-11 -1 -22.5 -1h-16.5q-19 0 -19 12q0 13 17 13h16q19 -1 41 -1h34q-9 29 -14.5 50t-8.5 38.5t-4 33.5t-1 34q0 51 13.5 87t44.5 66q32 32 72.5 46.5t96.5 14.5q82 0 130 -38t48 -104q0 -38 -19 -60t-52 -22
q-32 0 -49.5 16t-17.5 45q0 41 32 55q4 2 7 3t7.5 2t11.5 1.5t21 2.5q16 2 16 13q0 7 -6 16t-16 17q-14 12 -30 17t-42 5q-59 0 -89.5 -37.5t-30.5 -110.5q0 -48 8.5 -94t26.5 -96h38z" />
    <glyph glyph-name="dollar" unicode="$" 
d="M296 17q48 4 75.5 33.5t27.5 77.5q0 44 -24 71.5t-79 47.5q1 -11 1.5 -19.5t0.5 -20.5t-0.5 -30t-0.5 -48l-1 -97v-15zM275 638q-107 -8 -107 -97q0 -42 25 -68t82 -46v20v92v77v22zM296 659q43 -2 67.5 -8.5t46.5 -23.5q48 -39 48 -89q0 -31 -16.5 -48t-45.5 -17
q-26 0 -42.5 15t-16.5 38t16 37t42 14q9 0 12 1t3 6t-4.5 13.5t-10.5 13.5q-15 14 -37.5 20t-61.5 6v-104v-35l1 -60v-7t-1 -13q56 -24 93 -45.5t59 -45.5t31 -53t9 -67q0 -183 -192 -210v-11v-23v-53v-3q0 -11 -11 -11q-9 0 -10 10v89q-51 1 -86 10.5t-62 29.5
q-55 40 -55 97q0 35 19.5 57.5t51.5 22.5q27 0 43.5 -16.5t16.5 -44.5q0 -25 -16 -40.5t-42 -15.5q-8 0 -11 1q-5 1 -9 1.5t-6 0.5q-9 0 -9 -9q0 -15 19.5 -32t50.5 -28q12 -4 22 -7t20.5 -4.5t23 -2t29.5 -0.5v242q-5 2 -10 5t-10 5q-30 16 -50.5 27.5t-34.5 21.5t-24.5 20
t-20.5 22q-38 47 -38 113q0 80 50.5 130.5t137.5 57.5v44.5t-1 21.5v10q0 16 11 16q12 0 12 -18z" />
    <glyph glyph-name="cent" unicode="&#xa2;" 
d="M402 511q-8 26 -22.5 36.5t-42.5 10.5q-51 0 -73.5 -44.5t-22.5 -144.5v-35.5t1 -25.5t2 -19.5t3 -18.5q11 14 19.5 25.5t21.5 31.5q51 81 79 127t35 57zM176 158q-41 29 -63 76t-22 104q0 50 18 92.5t50 74t75.5 49t94.5 17.5q14 0 25.5 -1t23 -3.5t24 -6.5t29.5 -11
q7 10 20.5 30t33.5 52q13 21 18 21q3 0 6.5 -4t3.5 -7q0 -4 -3 -9t-12 -19q-5 -7 -10 -14.5t-10 -15.5l-22 -36l-8 -12q20 -17 27.5 -32t7.5 -35q0 -24 -13.5 -39t-34.5 -15q-13 0 -22.5 6t-23.5 23q-2 -4 -5 -7.5t-5 -8.5l-57 -86q-17 -26 -33 -51.5t-33 -51.5
q31 -85 107 -85q31 0 53 13t47 46q7 10 11 10q5 0 5 -5q0 -8 -11 -24.5t-27 -31.5q-27 -26 -56.5 -36.5t-71.5 -10.5q-18 0 -32.5 1.5t-28.5 5t-28 10t-31 15.5l-18 -29l-33 -52q-7 -11 -13.5 -20.5t-12.5 -19.5q-14 -23 -19 -23q-4 0 -7.5 4.5t-3.5 8.5q0 3 2 7t10 17
t24.5 38t46.5 69z" />
    <glyph glyph-name="florin" unicode="&#x192;" horiz-adv-x="580" 
d="M372 380l-51 -144q-32 -88 -59.5 -155.5t-54 -119.5t-52.5 -89.5t-54 -65.5q-70 -70 -156 -70q-46 0 -78 21.5t-32 53.5q0 18 13 30.5t33 12.5q35 0 38 -45q-20 -6 -20 -24q0 -12 12.5 -21.5t29.5 -9.5q26 0 49.5 13t37.5 36q9 13 16 27t15.5 35t19.5 51.5t27 76.5
l141 416l-28 -1l-30 -1q-8 -1 -15.5 -1h-9.5q-15 0 -15 10q0 8 8 11t28 4h70q25 56 41.5 92t30 59.5t26 39t29.5 31.5q29 28 69.5 43t86.5 15t78 -23.5t32 -58.5q0 -17 -11.5 -28t-29.5 -11q-15 0 -25 8.5t-10 21.5q0 8 1.5 11.5t9.5 11.5q7 8 7 17q0 15 -12 25t-30 10
q-53 0 -85 -66q-18 -37 -38.5 -91.5t-35.5 -107.5q13 -1 23 -1h15h24.5t37.5 2h7q13 0 13 -10q0 -12 -14 -12h-22q-14 1 -33 1h-57z" />
    <glyph glyph-name="yen" unicode="&#xa5;" horiz-adv-x="593" 
d="M510 366q8 0 13 -4t5 -9q0 -14 -26 -14h-110q-4 -11 -6.5 -18t-3.5 -14.5t-1 -18v-29.5h129q18 0 18 -13q0 -14 -26 -14h-121v-140l1 -45q0 -17 14.5 -22.5t57.5 -6.5q22 0 22 -10q0 -8 -19 -8h-10.5h-12.5t-22.5 0.5t-41.5 1.5l-80 1q-6 0 -26.5 -0.5t-49.5 -1.5l-63 -1
q-16 0 -16 8t14 8q33 1 54 4.5t24 8.5q6 6 7 32v68v103h-135q-22 0 -22 14q0 8 5.5 10.5t23.5 2.5h128v39q-5 11 -7.5 16t-6.5 11l-6 12h-115q-9 0 -15 4t-6 11q0 8 5 10t23 2h92q-4 7 -6.5 12t-4.5 9.5t-5 9t-7 11.5l-45 81q-10 17 -27 47.5t-41 75.5q-5 10 -10 16
t-13.5 9.5t-20.5 4.5t-31 1q-23 0 -23 11q0 5 4 7t16 2q4 0 11.5 -0.5t36.5 -1.5q8 0 22 -0.5t30.5 -1t33.5 -0.5h31h10.5h10.5t16.5 0.5t29.5 0.5l59 1q13 1 21 1h10q20 0 20 -8q0 -6 -5 -7t-35 -2q-32 -2 -43.5 -7t-11.5 -18q0 -8 2.5 -18t8.5 -25t17 -38t28 -57
q10 -20 19 -37.5l18 -35t19 -35t21 -37.5q38 70 64 119.5t42 83.5t23 54.5t7 31.5q0 22 -28 22l-32 -1q-13 0 -13 9q0 11 19 11q5 0 37 -0.5t86 -1.5h38q23 0 23 -10q0 -8 -13 -8q-26 -1 -40.5 -2.5t-23 -6t-14 -12.5t-11.5 -22q-14 -29 -23.5 -49t-20 -40t-23.5 -44.5
t-34 -61.5q-7 -12 -11.5 -21t-9.5 -20h104z" />
    <glyph glyph-name="period" unicode="." horiz-adv-x="278" 
d="M141 135q29 0 50 -21t21 -52t-20 -51t-51 -20t-52 20.5t-21 50.5q0 31 21 52t52 21z" />
    <glyph glyph-name="colon" unicode=":" horiz-adv-x="279" 
d="M142 135q29 0 50 -21t21 -52t-20 -51t-51 -20t-52 21t-21 51t21 51t52 21zM141 440q29 0 50 -21t21 -52t-20 -51t-51 -20t-52 20.5t-21 50.5q0 31 21 52t52 21z" />
    <glyph glyph-name="periodcentered" unicode="&#xb7;" horiz-adv-x="292" 
d="M147 301q32 0 53.5 -22t21.5 -54t-21 -53.5t-53 -21.5t-54.5 21.5t-22.5 53.5t22 54t54 22z" />
    <glyph glyph-name="ellipsis" unicode="&#x2026;" horiz-adv-x="835" 
d="M698 135q29 0 50 -21t21 -52t-20 -51t-51 -20t-52 20.5t-21 51.5q0 30 21 51t52 21zM419 135q29 0 50 -21t21 -51q0 -32 -20 -52t-51 -20t-52 21t-21 51t21 51t52 21zM141 135q29 0 50 -21t21 -52t-20 -51t-51 -20t-52 20.5t-21 50.5q0 31 21 52t52 21z" />
    <glyph glyph-name="comma" unicode="," horiz-adv-x="318" 
d="M181 48q0 -57 -50 -57q-28 0 -45.5 18.5t-17.5 49.5q0 35 22 56.5t60 21.5q48 0 76.5 -35.5t28.5 -95.5q0 -45 -18 -80t-53 -55q-8 -5 -20 -9.5t-24 -8.5t-23 -6.5t-18 -2.5t-7 5q0 6 8 7q114 27 114 117q0 50 -33 75z" />
    <glyph glyph-name="semicolon" unicode=";" horiz-adv-x="318" 
d="M143 440q29 0 50 -21t21 -52t-20 -51t-51 -20t-52 20.5t-21 50.5q0 32 21 52.5t52 20.5zM181 48q0 -57 -50 -57q-28 0 -45.5 18.5t-17.5 49.5q0 35 22 56.5t60 21.5q48 0 76.5 -35.5t28.5 -95.5q0 -45 -18 -80t-53 -55q-8 -5 -20 -9.5t-24 -8.5t-23 -6.5t-18 -2.5t-7 5
q0 6 8 7q114 27 114 117q0 50 -33 75z" />
    <glyph glyph-name="semicolon" unicode="&#x37e;" horiz-adv-x="318" 
d="M143 440q29 0 50 -21t21 -52t-20 -51t-51 -20t-52 20.5t-21 50.5q0 32 21 52.5t52 20.5zM181 48q0 -57 -50 -57q-28 0 -45.5 18.5t-17.5 49.5q0 35 22 56.5t60 21.5q48 0 76.5 -35.5t28.5 -95.5q0 -45 -18 -80t-53 -55q-8 -5 -20 -9.5t-24 -8.5t-23 -6.5t-18 -2.5t-7 5
q0 6 8 7q114 27 114 117q0 50 -33 75z" />
    <glyph glyph-name="quoteleft" unicode="&#x2018;" horiz-adv-x="323" 
d="M143 492q0 57 50 57q28 0 45 -18t17 -47q0 -33 -23.5 -53t-62.5 -20q-49 0 -77.5 34t-28.5 92q0 92 71 134q8 5 20 10t24 9t23 6.5t18 2.5t7 -5q0 -6 -8 -7q-23 -7 -36 -11.5t-27 -12.5q-24 -14 -37.5 -38.5t-13.5 -54.5q0 -26 10 -46.5t29 -31.5z" />
    <glyph glyph-name="quotedblright" unicode="&#x201d;" 
d="M419 612q0 -56 -49 -56q-29 0 -46 17.5t-17 46.5q0 33 23.5 53t62.5 20q49 0 77.5 -34t28.5 -92q0 -92 -71 -135q-8 -5 -20 -9.5t-24 -8.5t-23 -6.5t-18 -2.5t-7 5q0 6 8 7q59 14 86.5 43t27.5 74q0 55 -39 78zM180 612q0 -56 -49 -56q-28 0 -45.5 17.5t-17.5 46.5
q0 33 23.5 53t62.5 20q49 0 77.5 -34t28.5 -92q0 -92 -71 -135q-8 -5 -20 -9.5t-24 -8.5t-23 -6.5t-18 -2.5t-7 5q0 6 8 7q114 28 114 117q0 55 -39 78z" />
    <glyph glyph-name="quotedblleft" unicode="&#x201c;" 
d="M382 492q0 57 50 57q27 0 44.5 -18t17.5 -47q0 -33 -23.5 -53t-62.5 -20q-49 0 -77.5 34t-28.5 92q0 92 71 134q8 5 20 10t24 9t23 6.5t18 2.5t7 -5q0 -6 -8 -7q-60 -16 -87 -43.5t-27 -72.5q0 -26 10 -47t29 -32zM143 492q0 57 50 57q28 0 45 -18t17 -47
q0 -33 -23.5 -53t-62.5 -20q-49 0 -77.5 34t-28.5 92q0 92 71 134q8 5 20 10t24 9t23 6.5t18 2.5t7 -5q0 -6 -8 -7q-23 -7 -36 -11.5t-27 -12.5q-24 -14 -37.5 -38.5t-13.5 -54.5q0 -26 10 -46.5t29 -31.5z" />
    <glyph glyph-name="quotedblbase" unicode="&#x201e;" 
d="M419 57q0 -57 -49 -57q-29 0 -46 17.5t-17 46.5q0 33 23.5 53t62.5 20q49 0 77.5 -34t28.5 -92q0 -91 -71 -134q-8 -5 -20 -9.5t-24 -8.5t-23 -6.5t-18 -2.5t-7 5q0 6 8 7q59 14 86.5 42.5t27.5 73.5q0 54 -39 79zM180 57q0 -57 -49 -57q-29 0 -46 17.5t-17 46.5
q0 33 23.5 53t62.5 20q49 0 77.5 -34t28.5 -92q0 -91 -71 -134q-8 -5 -20 -9.5t-24 -8.5t-23 -6.5t-18 -2.5t-7 5q0 6 8 7q114 28 114 116q0 54 -39 79z" />
    <glyph glyph-name="exclam" unicode="!" horiz-adv-x="304" 
d="M153 135q29 0 50 -21t21 -52t-20 -51t-51 -20t-52 20.5t-21 51.5q0 30 21 51t52 21zM69 623q5 5 9 10.5t9 11.5q15 19 25 30.5t17 18t12 8.5t11 2t11 -1.5t13.5 -9.5t22 -24.5t37.5 -46.5q-17 -74 -28 -130t-19.5 -105t-15 -96.5t-12.5 -104.5q-1 -12 -10 -12q-6 0 -8 6
t-4 29q-12 105 -27.5 196t-36.5 185z" />
    <glyph glyph-name="exclamdown" unicode="&#xa1;" horiz-adv-x="304" 
d="M155 440q30 0 51 -21t21 -51t-21 -51t-51 -21t-51 21t-21 51q0 32 20 52t52 20zM218 -213q-29 -37 -41.5 -48t-23.5 -11q-17 0 -42 30q-2 3 -4 5t-6 7t-11.5 14t-20.5 26q15 69 26.5 125.5t20.5 107.5t15.5 100t12.5 103q1 12 10 12q6 0 8 -6t4 -29q11 -97 27 -192.5
t37 -188.5l6 -33z" />
    <glyph glyph-name="question" unicode="?" horiz-adv-x="445" 
d="M202 135q29 0 50 -21t21 -52t-20 -51t-51 -20t-52 20.5t-21 51.5q0 30 21 51t52 21zM221 704q85 0 133 -41t48 -113q0 -55 -25 -96q-9 -14 -15.5 -23.5t-19 -21.5t-35 -31.5t-62.5 -54.5q-29 -26 -42 -47t-13 -44q0 -8 1.5 -16t6.5 -22q3 -11 3 -13q0 -6 -5 -6
q-6 0 -14 10.5t-14.5 26.5t-11 34t-4.5 33q0 26 11 54t35 65q22 33 35 55t20 39t9.5 32t2.5 34q0 57 -26 87.5t-75 30.5q-43 0 -72 -27t-29 -67q0 -9 5 -9q3 0 5.5 2.5t7.5 11.5q12 19 37 19q27 0 42 -15t15 -42q0 -28 -17.5 -45t-46.5 -17q-32 0 -52.5 21.5t-20.5 55.5
q0 30 13.5 57.5t37.5 46.5q26 20 56.5 28t75.5 8z" />
    <glyph glyph-name="questiondown" unicode="&#xbf;" horiz-adv-x="445" 
d="M246 440q30 0 51 -21t21 -51t-21 -51t-51 -21t-51 21t-21 51q0 32 20 52t52 20zM383 -148q0 7 -5 7q-3 0 -5.5 -2t-7.5 -12q-12 -19 -38 -19t-41.5 15.5t-15.5 41.5q0 28 17.5 45t46.5 17q33 0 53.5 -21.5t20.5 -56.5q0 -64 -49 -101.5t-132 -37.5q-86 0 -134.5 40.5
t-48.5 112.5q0 27 6.5 52t19.5 45q9 14 15 23.5t18.5 21.5t34.5 31.5t63 54.5q29 26 42 47t13 44q0 14 -9 38q-3 10 -3 13q0 6 5 6q6 0 14 -10.5t15 -26.5t11.5 -34t4.5 -33q0 -26 -11 -54t-35 -65q-22 -33 -35 -55t-20 -39t-9 -32t-2 -34q0 -58 26 -88t75 -30
q43 0 71.5 26.5t28.5 66.5v3z" />
    <glyph glyph-name="guillemotright" unicode="&#xbb;" horiz-adv-x="416" 
d="M197 377q-3 6 -3 10q0 6 6 6q5 0 10 -6q34 -30 55.5 -49.5t38 -33.5t31.5 -26l35 -28q14 -10 14 -17q0 -5 -10 -12q-15 -12 -35.5 -30t-42 -37.5t-41.5 -40t-35 -36.5q-10 -11 -16 -11q-8 0 -8 8t22 52.5t57 106.5q-23 41 -40.5 72t-26.5 50zM37 70q2 7 9 23.5t17.5 38.5
t23 48t26.5 53q-16 30 -30.5 59.5t-26 53.5t-18 40t-6.5 20q0 8 7 8q4 0 9 -6l51.5 -51.5t39 -38.5t33.5 -32t36 -33q14 -13 14 -19q0 -5 -10 -14q-15 -13 -35.5 -32t-41.5 -40t-41.5 -43t-35.5 -40q-11 -12 -17 -12q-8 0 -8 5q0 2 1 4z" />
    <glyph glyph-name="guillemotleft" unicode="&#xab;" horiz-adv-x="416" 
d="M287 144q-12 10 -25 20.5t-24 20t-19.5 16t-10.5 8.5q-14 10 -14 17q0 5 10 12q36 29 77.5 67.5t77.5 76.5q10 11 16 11q8 0 8 -8t-21.5 -50.5t-58.5 -108.5q21 -36 40 -70.5t27 -51.5q2 -5 5 -10.5t6 -10.5q3 -6 3 -11q0 -6 -7 -6q-3 0 -9 6zM216 397q-2 -7 -8.5 -22.5
t-17 -37.5t-23 -48.5t-26.5 -54.5q40 -77 60.5 -120.5t20.5 -51.5t-7 -8q-4 0 -9 6q-30 30 -51.5 52t-39 39t-34 32t-35.5 32q-14 13 -14 19q0 4 10 13q13 11 34 30.5t43 42t42.5 44.5t34.5 38q9 12 17 12q7 0 7 -5q0 -2 -1 -4z" />
    <glyph glyph-name="guilsinglright" unicode="&#x203a;" horiz-adv-x="254" 
d="M37 70q2 7 9 23.5t17.5 38.5t23 48t26.5 53q-16 30 -30.5 59.5t-26 53.5t-18 40t-6.5 20q0 8 7 8q4 0 9 -6l51.5 -51.5t39 -38.5t33.5 -32t36 -33q14 -13 14 -19q0 -5 -10 -14q-15 -13 -35.5 -32t-41.5 -40t-41.5 -43t-35.5 -40q-11 -12 -17 -12q-8 0 -8 5q0 2 1 4z" />
    <glyph glyph-name="guilsinglleft" unicode="&#x2039;" horiz-adv-x="254" 
d="M216 397q-2 -7 -8.5 -22.5t-17 -37.5t-23 -48.5t-26.5 -54.5q40 -77 60.5 -120.5t20.5 -51.5t-7 -8q-4 0 -9 6q-30 30 -51.5 52t-39 39t-34 32t-35.5 32q-14 13 -14 19q0 4 10 13q13 11 34 30.5t43 42t42.5 44.5t34.5 38q9 12 17 12q7 0 7 -5q0 -2 -1 -4z" />
    <glyph glyph-name="slash" unicode="/" horiz-adv-x="536" 
d="M117 0h-68l377 689h67z" />
    <glyph glyph-name="hyphen" unicode="-" horiz-adv-x="296" 
d="M269 176h-42q-31 1 -52 1.5t-23 0.5q-8 -1 -19 -1q-10 0 -24 -0.5t-34 -0.5h-48v103h48l73 -2h25q17 0 37.5 0.5t58.5 1.5v-103z" />
    <glyph glyph-name="endash" unicode="&#x2013;" horiz-adv-x="448" 
d="M420 176h-56l-140 2l-197 -2v103q29 -1 52 -1.5t46 -0.5h51h67h54.5h41.5t37.5 0.5t43.5 1.5v-103z" />
    <glyph glyph-name="emdash" unicode="&#x2014;" horiz-adv-x="649" 
d="M622 176h-56l-141 2l-161 -2h-237v103q41 -1 72.5 -1t60 -0.5t57 -0.5h61.5h74h96h53.5h40t37 0.5t43.5 1.5v-103z" />
    <glyph glyph-name="parenleft" unicode="(" horiz-adv-x="389" 
d="M312 708q5 0 5 -5q0 -3 -4 -13q-14 -22 -27.5 -60.5t-26.5 -88.5q-10 -38 -16.5 -70.5t-11 -63.5t-6.5 -61.5t-2 -63.5q0 -55 7.5 -118t20 -122.5t28.5 -110.5t34 -82q3 -5 3 -8q0 -5 -4 -5t-22.5 18t-41.5 43q-85 94 -125 184.5t-40 185.5q0 93 34.5 181t101.5 166
q12 13 27 29.5t29 31t24.5 24t12.5 9.5z" />
    <glyph glyph-name="parenright" unicode=")" horiz-adv-x="389" 
d="M78 708q1 0 7.5 -5.5t15.5 -14t19.5 -19.5t20.5 -22q86 -96 125.5 -185t39.5 -186q0 -92 -35 -180t-102 -166q-12 -15 -27.5 -31.5t-29 -30.5t-23.5 -23t-12 -9q-5 0 -5 6q0 2 4 12q28 45 54 149q10 37 16.5 70t11 63.5t6.5 61.5t2 64q0 55 -7 116.5t-19 120.5t-28.5 110
t-35.5 86q-3 4 -3 8q0 5 5 5z" />
    <glyph glyph-name="bracketleft" unicode="[" horiz-adv-x="395" 
d="M196 692h36.5t83.5 -1q17 0 20.5 -1.5t3.5 -9.5q0 -10 -13 -10h-59q-21 0 -28 -7t-7 -27v-14t1 -23v-644v-27q-1 -8 -1 -14v-8q0 -32 45 -32l52 2q16 0 16 -11q0 -12 -17 -12h-30q-7 0 -23.5 0.5t-37 0.5h-42.5h-40h-45q0 7 0.5 30.5t0.5 57.5t0.5 76.5t0.5 86.5v88v81
v154.5v118.5t-0.5 86.5t-0.5 58.5h84z" />
    <glyph glyph-name="bracketright" unicode="]" horiz-adv-x="395" 
d="M283 -146q-11 0 -19 -0.5t-15.5 -0.5h-16h-20.5h-22h-34t-39.5 0.5t-37.5 0.5t-20.5 1.5t-3.5 11.5q0 9 13 9l26 -1q24 0 38 1t20.5 4t8 9.5t1.5 18.5v13.5t-1 24.5v321v253v71v37t-0.5 15.5t-0.5 5.5q-3 22 -44 22l-50 -1q-17 0 -17 11t16 11h31q21 -1 53.5 -1h70.5h31
t33 1q-2 -21 -2 -33.5v-29.5l1 -137v-49.5v-46.5t-0.5 -53.5t-0.5 -70.5v-105z" />
    <glyph glyph-name="ampersand" unicode="&#x26;" horiz-adv-x="797" 
d="M251 376q-27 -20 -38.5 -53t-11.5 -90q0 -43 14 -80.5t38 -65t57 -43.5t71 -16q66 0 110 41q-44 59 -79 105.5t-64 83.5t-52.5 65.5t-44.5 52.5zM357 449q24 17 33.5 42t9.5 70q0 60 -16 92.5t-46 32.5q-28 0 -43.5 -22.5t-15.5 -61.5q0 -20 6 -41t16.5 -41t24.5 -38.5
t31 -32.5zM603 142l21 -34l22 -33q10 -17 20 -27.5t24 -16.5t34 -9t50 -4q23 -2 23 -11q0 -7 -20 -7l-60 1q-11 1 -23 1h-26h-14.5t-20 -0.5t-37 -1t-63.5 -1.5q-9 17 -15 28t-14 25q-43 -36 -89 -51t-113 -15q-55 0 -100.5 14.5t-78 40.5t-50.5 62t-18 80q0 73 43 122
t141 88q-23 23 -33 34t-19 22q-34 43 -34 103q0 33 13 61t37 48t57 31t73 11q39 0 71 -9.5t55.5 -27t36 -41.5t12.5 -53q0 -100 -136 -138q22 -23 52 -58t60 -73t56.5 -73.5t40.5 -58.5q35 41 54 94.5t19 113.5q0 14 -5.5 19.5t-20.5 5.5q-47 -1 -63 1t-16 9q0 5 6.5 6.5
t26.5 1.5l89 -1l85 1q18 0 29 -0.5t16 -1t6.5 -2.5t1.5 -5q0 -2 -1 -3.5t-7 -2t-18.5 -1.5t-36.5 -2q-17 -1 -27 -2.5t-16 -5.5t-8.5 -11.5t-5.5 -20.5q-14 -71 -36 -121t-57 -90z" />
    <glyph glyph-name="section" unicode="&#xa7;" 
d="M178 440q-14 -20 -19 -31.5t-5 -23.5q0 -24 18 -48.5t59 -55.5l57 -45l29 -22q19 -15 30.5 -24t19 -15t13 -10t12.5 -9q14 16 19 27.5t5 26.5q0 25 -16 46.5t-60 53.5q-21 15 -40 30t-38 29l-70 60zM402 142q22 -27 31 -53.5t9 -61.5q0 -38 -13 -70.5t-36.5 -56
t-56 -36.5t-70.5 -13q-65 0 -105.5 33.5t-40.5 87.5q0 33 20 54t52 21q26 0 43 -16.5t17 -40.5q0 -23 -17 -35.5t-59 -20.5q-16 -1 -16 -11t9 -19.5t24 -17t33.5 -12.5t36.5 -5q42 0 68.5 28t26.5 72q0 43 -26 72q-8 10 -14.5 17t-17 16t-28.5 22t-49 36q-33 25 -55.5 45.5
t-35.5 41t-18.5 43t-5.5 49.5q0 21 3 39t9.5 34.5t18 33.5t28.5 36q-16 20 -22.5 41.5t-6.5 50.5q0 36 12 65t34.5 50t54 32t70.5 11q61 0 98.5 -30t37.5 -80q0 -26 -15.5 -42.5t-41.5 -16.5t-43 15t-17 38q0 20 13.5 31.5t45.5 16.5q15 1 15 10q0 8 -7 15.5t-19 13.5
t-26.5 9.5t-29.5 3.5q-45 0 -73 -23.5t-28 -61.5q0 -43 37 -77q7 -6 14.5 -12t19 -14.5t28.5 -20.5t41 -30q35 -25 51.5 -41t27.5 -36t17 -43.5t6 -47.5q0 -39 -14 -72.5t-45 -66.5z" />
    <glyph glyph-name="dagger" unicode="&#x2020;" 
d="M277 -137h-13q1 23 1 31.5v17.5q0 75 -5 151t-13 141q-4 28 -7.5 48t-7.5 36t-9 30.5t-12 31.5q29 33 40.5 61.5t11.5 66.5q-24 -3 -53 -16t-54 -31q-7 -5 -14 -5q-5 0 -9 3t-20 20q-10 7 -23 13q-10 5 -16 11.5t-6 11.5q0 10 26 20l12 6q8 3 11 10q2 2 4.5 5t5.5 5
q7 9 17 9q3 0 4.5 -0.5t5.5 -2t10.5 -6t18.5 -11.5q20 -12 40.5 -18t40.5 -7q0 8 -0.5 13t-1.5 9.5t-2 9.5t-4 13q-2 7 -6 18t-12 29q-4 10 -22 30q-4 6 -4 10t3 7.5t20 17.5q7 6 13 13q2 4 2.5 4t2.5 4q13 24 17 29t12 5q11 0 23 -22q2 -5 2 -4.5t3 -3.5q5 -10 7.5 -12.5
t11.5 -10.5l15 -12q8 -6 8 -15q0 -2 -0.5 -3.5t-2.5 -4.5t-6 -7.5l-12 -13.5q-5 -7 -10.5 -20t-10 -28.5t-8 -30t-4.5 -24.5q9 0 14.5 1t11 3t12.5 5t18 9l34 16l19 13q5 4 14 4q6 0 9 -2.5t16 -17.5q8 -8 22 -15q26 -15 26 -26q0 -12 -20 -22l-12 -6t-11 -6l-15 -17
q-8 -8 -18 -8q-5 0 -8 1.5t-12 7.5q-11 8 -14.5 10.5t-16.5 8.5q-7 3 -10.5 5t-20.5 11q-6 3 -14.5 4t-23.5 3q1 -19 3 -33t7.5 -27.5t15.5 -29t27 -38.5q-8 -20 -14 -38t-10.5 -39t-8 -45.5t-7.5 -56.5q-3 -26 -6 -62t-5 -73.5t-3.5 -72t-1.5 -56.5v-18t1 -25h-19z" />
    <glyph glyph-name="daggerdbl" unicode="&#x2021;" 
d="M129 125q7 9 18 9q2 0 4 -0.5t5.5 -2.5l10.5 -6t19 -12q29 -16 46.5 -22t34.5 -6q2 61 -58 101q8 10 10 13t8 13q5 8 7.5 12.5t5 8l5 7t6.5 9.5q9 14 12 21t3 15t-2.5 14.5t-13.5 23.5q-17 26 -27 41t-14 20q29 21 44.5 47t13.5 53q-15 0 -24 -2.5t-33 -13.5
q-8 -3 -15 -6l-14 -6l-19 -14q-8 -7 -15 -7q-6 0 -10 3t-21 20q-5 5 -6.5 6t-6.5 3q-18 8 -25 13t-7 11q0 5 4 8.5t27 17.5q14 7 21 17q9 11 13.5 13.5t9.5 2.5q6 0 9.5 -1.5t11.5 -7.5q13 -10 29 -17q3 -2 5 -3t5.5 -2.5t10 -4.5t17.5 -8q4 -2 12 -3t22 -2q-11 63 -45 112
q-6 9 -6 14t3.5 9.5t17.5 18.5q10 7 17 21q11 20 15.5 25.5t11.5 5.5q5 0 9 -4.5t10 -16.5q2 -5 2.5 -4.5t2.5 -4.5q9 -11 33 -36q7 -9 7 -16q0 -3 -1.5 -5.5t-12.5 -14.5q-32 -59 -36 -104h7q14 0 43 13t56 31q10 5 17 5q5 0 8 -2t15 -16q4 -9 22 -16q17 -9 22 -13.5
t5 -11.5q0 -9 -21 -18l-20 -11l-17 -17q-8 -9 -18 -9q-2 0 -4 0.5t-5.5 2.5l-10.5 6t-19 12q-52 28 -81 28q-1 -60 58 -101q-8 -10 -10 -13t-9 -13l-7.5 -12t-4.5 -7.5t-5 -7.5t-7 -10q-9 -14 -12 -21t-3 -15t2.5 -14.5t13.5 -23.5q36 -54 42 -60q-61 -45 -59 -101
q8 0 13.5 0.5t11 2t13.5 4.5t20 9q8 3 15 6l14 6l19 14q8 7 15 7q6 0 9.5 -3.5t20.5 -19.5l13 -9q18 -8 25.5 -13t7.5 -11q0 -5 -4 -8.5t-27 -16.5q-16 -11 -22 -18q-9 -11 -13 -13.5t-9 -2.5q-6 0 -9.5 1.5t-11.5 7.5q-9 7 -12.5 9t-16.5 8q-5 2 -14 6t-24 12q-4 2 -11.5 3
t-23.5 2q11 -62 45 -112q6 -9 6 -14t-3.5 -9.5t-17.5 -18.5l-12 -13l-5 -8q-11 -20 -15.5 -25.5t-11.5 -5.5q-5 0 -9.5 4.5t-9.5 16.5q-6 13 -18 25l-20 20q-7 9 -7 16q0 3 1.5 5.5t12.5 15.5q15 26 25 54t12 49h-7q-15 0 -43.5 -12.5t-55.5 -31.5q-10 -5 -17 -5q-5 0 -8 2
t-15 16l-3 4l-3 3l-16 9q-17 9 -22 13.5t-5 11.5q0 9 21 18q15 6 20 11z" />
    <glyph glyph-name="asterisk" unicode="*" horiz-adv-x="592" 
d="M174 606q1 5 1 13t-2.5 14t-13.5 25q-4 5 -4 10q0 6 6 6q9 0 30 -11q13 -8 20 -8h6t9 1q3 1 9 1q16 0 17 -25q2 -19 9 -35t23 -38q6 15 8 25.5t2 27.5q0 8 -0.5 15t-1.5 13q-1 5 -1.5 9t-0.5 7q0 8 2.5 10t11.5 3q8 1 16.5 6t20.5 17q13 13 15.5 15t5.5 2q8 0 8 -12
q0 -2 -2 -12q-2 -8 -2 -14q0 -17 8 -33q4 -7 4 -12t-4.5 -8.5t-23.5 -13.5q-49 -34 -54 -53q5 -1 9 -1h6q12 0 33.5 6.5t35.5 14.5q10 6 16 6q5 0 8 -3t11 -16q3 -5 19 -19l23 -10q7 -4 7 -7q0 -5 -4.5 -7t-27.5 -5l-21 -9l-14 -12q-6 -6 -11 -6q-2 0 -3.5 0.5t-4.5 2.5
t-8.5 6.5t-14.5 13.5q-14 14 -28 21t-34 12q2 -14 17 -37.5t34 -43.5q7 -7 7 -12q0 -2 -2.5 -5.5t-15.5 -19.5l-7 -30q-2 -20 -10 -20q-9 0 -19 20q-3 8 -5.5 12.5t-5 7.5t-6 5.5t-10.5 6.5q-15 8 -15 16q0 3 4 8q8 14 14.5 38t6.5 40v4.5t-1 6.5q-13 -8 -25.5 -21.5
t-22.5 -30.5q-10 -22 -13 -26t-9 -4q-3 0 -9 3t-14.5 5.5t-12.5 2.5q-5 0 -20 -3q-4 -1 -7 -1.5t-6 -0.5q-13 0 -13 8q0 2 4 6q11 11 15.5 16.5t7.5 10.5q7 15 11 28q5 12 16 12q2 0 4 -0.5t7 -1.5h23h27q8 0 15 2t18 7q-16 14 -33 21.5t-39 12.5q-17 2 -23 4.5t-6 10.5v9z
" />
    <glyph glyph-name="quotesingle" unicode="'" horiz-adv-x="304" 
d="M206 670q20 0 35 -15.5t15 -36.5q0 -16 -7.5 -31t-27.5 -41q-23 -29 -40.5 -51.5t-32 -42.5t-28 -40.5t-29.5 -45.5q-10 -17 -16 -17q-8 0 -8 9q0 4 5 17q12 28 20 50t15 44.5t14.5 50t17.5 68.5q12 46 26.5 64t40.5 18z" />
    <glyph glyph-name="quotedbl" unicode="&#x22;" 
d="M432 670q20 0 35 -15.5t15 -36.5q0 -16 -7.5 -31t-27.5 -41q-23 -29 -40.5 -51.5t-32 -42.5t-28 -40.5t-29.5 -45.5q-10 -17 -16 -17q-8 0 -8 9q0 4 5 17q11 27 19 48.5t15.5 45t15 52t17.5 67.5q12 47 26.5 64.5t40.5 17.5zM237 670q20 0 35 -15.5t15 -36.5
q0 -16 -7.5 -31t-27.5 -41q-23 -29 -40.5 -51.5t-32 -42.5t-28 -40.5t-29.5 -45.5q-10 -17 -16 -17q-8 0 -8 9q0 4 5 17q12 28 20 50t15 44.5t14.5 50t17.5 68.5q12 46 26.5 64t40.5 18z" />
    <glyph glyph-name="at" unicode="@" horiz-adv-x="955" 
d="M612 448q0 17 -14.5 33t-29.5 16q-20 0 -48 -25t-52 -65q-19 -32 -34.5 -65t-27 -64.5t-18 -59.5t-6.5 -49q0 -25 8.5 -40.5t22.5 -15.5q17 0 38.5 20t38.5 53q10 17 25 47.5t31.5 67t34 75t31.5 72.5zM629 464q10 34 15.5 43t13.5 9h7t15 -1q12 -1 23.5 -1.5t22.5 -0.5
q29 0 40 4l7.5 2.5t2.5 0.5q5 0 5 -6q0 -3 -0.5 -5t-2.5 -7t-6 -14t-12 -25q-9 -21 -18 -41.5t-18 -40.5q-10 -21 -19 -42.5t-18 -43.5q-22 -48 -34 -75.5t-18 -43t-7 -23t-1 -16.5q0 -25 24 -25q14 0 35 6t41 16q45 21 74 51.5t49 75.5q27 63 27 133q0 66 -24 120.5
t-67 93.5t-103 60.5t-132 21.5q-89 0 -164.5 -33.5t-131 -93.5t-86.5 -141.5t-31 -177.5q0 -84 24.5 -153.5t69.5 -119t107.5 -76.5t138.5 -27q61 0 120 16.5t111.5 46.5t96 73.5t75.5 97.5q5 8 13 8q9 0 9 -9q0 -6 -7.5 -19.5t-19.5 -30t-26.5 -34t-29.5 -30.5
q-72 -68 -166 -105t-193 -37q-92 0 -168.5 29t-132.5 80.5t-87 123t-31 156.5q0 52 13 104t37.5 100t59.5 90.5t79 75.5q66 51 148.5 78t171.5 27q82 0 150.5 -22.5t118 -63t76.5 -97.5t27 -125q0 -62 -24.5 -119t-69.5 -102q-51 -50 -123.5 -79t-147.5 -29q-61 0 -61 56
v13.5t2 20.5q-30 -47 -64 -68.5t-79 -21.5q-48 0 -78.5 35t-30.5 91q0 51 27.5 108t77.5 111q93 101 200 101q35 0 52 -12t25 -42z" />
    <glyph glyph-name="numbersign" unicode="#" 
d="M333 323l30 103h-128l-30 -103h128zM134 77h-42l49 170h-89v76h111l29 103h-104l-2 76h128l49 170h43l-49 -170h128l49 170h42l-49 -170h81l2 -76h-105l-29 -103h97l2 -76h-121l-49 -170h-42l49 170h-129z" />
    <glyph glyph-name="degree" unicode="&#xb0;" 
d="M284 653q-35 0 -59 -24.5t-24 -60.5q0 -37 23 -61t58 -24t56.5 24t21.5 64q0 38 -20.5 60t-55.5 22zM285 694q58 0 92.5 -32.5t34.5 -87.5q0 -29 -10 -53t-28 -41.5t-43 -27.5t-55 -10q-27 0 -50.5 9.5t-40.5 26t-26.5 39.5t-9.5 50q0 57 37.5 92t98.5 35z" />
    <glyph glyph-name="plus" unicode="+" 
d="M497 309h-194v-205h-44v205h-194v44h194v205h44v-205h194v-44z" />
    <glyph glyph-name="divide" unicode="&#xf7;" 
d="M497 309h-432v44h432v-44zM281 520q18 0 31 -13t13 -32q0 -18 -13 -31t-31 -13q-19 0 -32 13t-13 32q0 18 13 31t32 13zM281 231q18 0 31 -13t13 -32q0 -18 -13 -31t-31 -13q-19 0 -32 13t-13 32q0 18 13 31t32 13z" />
    <glyph glyph-name="equal" unicode="=" 
d="M497 254h-432v44h432v-44zM497 364h-432v44h432v-44z" />
    <glyph glyph-name="trademark" unicode="&#x2122;" horiz-adv-x="757" 
d="M460 690q14 -40 33.5 -94t45.5 -123q27 79 46 133t30 84h70h36h22q16 0 16 -7q0 -11 -32 -9q-14 0 -18.5 -4t-4.5 -15v-17q0 -10 0.5 -16.5t0.5 -18v-32v-56.5v-136q0 -9 1 -12t5 -5q4 -1 12 -1.5t14 -0.5q16 0 20.5 -1.5t4.5 -7.5q0 -8 -14 -8h-5q-15 1 -25.5 1.5
t-20 0.5h-18.5h-21h-32.5t-36.5 -1h-12q-12 0 -12 8q0 6 3.5 7t22.5 1q26 0 28 6q1 1 1 7v20v245q-9 -23 -15.5 -40.5t-11.5 -33.5t-10 -31t-11 -32q-12 -38 -22 -69t-18 -54q-6 -19 -9.5 -24.5t-8.5 -5.5q-4 0 -6.5 1t-5 6t-6.5 15t-11 28l-22 60q-9 24 -16.5 43t-14 37.5
t-14 39t-17.5 47.5v-229v-23q0 -13 26 -13q15 0 19.5 -1.5t4.5 -7.5q0 -7 -12 -7h-8t-19 1h-15h-31q-10 -1 -17.5 -1h-10.5q-16 0 -16 8q0 5 4 6t23 2q15 0 20 2t6 9q0 3 0.5 6t0.5 11v24v43v171v32q0 11 -8 14t-32 2q-11 0 -11 8q0 5 5 6.5t25 1.5h26h43h36zM195 464v-65
q0 -2 0.5 -3t0.5 -2v-1l-1 -21q0 -6 7 -8t33 -5q10 0 10 -8t-12 -8h-9t-13 1l-55 1l-76 -1h-11q-11 0 -11 8q0 5 3.5 6.5t19.5 1.5q25 0 27 9q0 2 0.5 7t0.5 15.5v29v47.5v204q-24 0 -39.5 -2.5t-25.5 -9.5t-16 -19t-9 -31q-2 -16 -5 -20.5t-9 -4.5q-9 0 -9 10q0 5 0.5 12
t1.5 15q2 18 3 36.5t3 32.5h12h36l131 -2h20.5t27.5 1h30l30 1l13 1q0 -14 2 -35t5 -50q1 -4 1 -10q0 -8 -8 -8q-5 0 -8 4.5t-6 17.5q-5 19 -11.5 31.5t-16 19t-24.5 8.5t-37 2h-6v-208z" />
    <glyph glyph-name="paragraph" unicode="&#xb6;" horiz-adv-x="564" 
d="M316 -117q32 22 57 54t34 63q5 16 8 36t4.5 55t2 91.5t0.5 145.5v341h-66v-503q0 -75 -1.5 -123t-6.5 -78.5t-14 -47t-23 -28.5zM329 319q-38 0 -68.5 2.5t-55.5 7.5t-46 14t-41 21q-50 31 -76 73.5t-26 92.5q0 57 29 94.5t86 52.5q19 6 37 9.5t39.5 5.5t50.5 2.5t71 0.5
h194q14 0 18.5 -2t4.5 -7q0 -9 -12 -9q-29 -1 -46 -2t-24 -3q-9 -2 -11.5 -11t-2.5 -36v-411q0 -69 -2 -113.5t-7 -74.5t-15 -50.5t-26 -40.5q-33 -44 -78.5 -66.5t-96.5 -22.5q-60 0 -97.5 25.5t-37.5 66.5q0 32 18.5 51.5t48.5 19.5q31 0 48.5 -16t17.5 -43
q0 -17 -10.5 -27.5t-33.5 -18.5q-12 -4 -12 -11q0 -11 18 -20t40 -9q26 0 49 13t34 35t16 55.5t5 93.5v258z" />
    <glyph glyph-name="currency" unicode="&#xa4;" horiz-adv-x="967" 
d="M156 156q1 3 1 8q0 2 -0.5 3.5l-1.5 4.5q10 10 17 17.5t15 14.5t18.5 15.5t27.5 21.5q15 12 25 19.5t18 14.5t15 14t16 17q19 18 32 29.5t22.5 19t18 12.5t19.5 10q5 -1 8 -3t10 -7l5 -2.5t3 -2.5q-5 -9 -9 -15.5t-10 -13t-14.5 -14t-22.5 -18.5q-17 -13 -24 -19t-15 -15
q-6 -5 -10 -8t-14 -10q-23 -17 -31.5 -26t-16.5 -23q-12 -8 -18.5 -12.5t-20.5 -15.5q-11 -8 -15.5 -12t-11.5 -7q-8 -15 -21 -15q-15 0 -15 12v6zM224 428q-17 8 -28 13.5t-19.5 8.5t-16.5 4.5t-18 3.5q-14 -2 -22.5 -12t-16.5 -35q8 -18 14.5 -25t16.5 -7q12 0 45 20
q37 22 51 22h4.5t5.5 -1zM316 456q2 -6 5 -8.5t12 -6.5q19 -7 19 -24q0 -7 -3.5 -13t-14.5 -16q-4 -3 -5.5 -4.5l-3.5 -3.5q-8 -2 -12 -5t-12 -13q-11 -12 -15.5 -15t-15.5 -4q-13 -7 -20.5 -13.5t-24.5 -23.5q-21 -22 -36 -31.5t-29 -9.5q-4 0 -9.5 0.5t-11.5 1.5
q-5 5 -7 8q-8 8 -10 11t-6 8q-8 2 -10 2t-4 -0.5l-6 -1.5t-11 -1q-8 0 -13 9q0 19 5 36q-24 2 -35.5 4t-20.5 7q-12 6 -19.5 16.5t-7.5 21.5q0 12 4 23q3 12 3 19v3.5t-1 5.5q6 10 11.5 14t20.5 9q14 5 18.5 7.5t10.5 9.5q-6 14 -8.5 21.5t-2.5 15.5q0 11 9 23
q6 -1 9.5 -1.5t14.5 -4.5q13 -5 18 -5q2 0 3.5 0.5t5.5 1.5q0 29 40 29q20 0 41 -8q8 -3 13.5 -6t13.5 -9.5t22 -19t40 -34.5q5 -4 11 -8t13 -9q6 -4 6 -3.5t6 -4.5zM493 146l-6 22l-6 31q-2 12 -6 19.5t-10 14.5q-2 -11 -3.5 -19t-3.5 -17t-5.5 -21.5t-9.5 -32.5l-11 -39
q5 -11 15 -15.5t33 -6.5q13 4 16 11t2 32q0 4 1 8zM336 198l7 10.5t7.5 8.5t10.5 8.5t15 11.5q21 14 28.5 21.5t15.5 22.5q5 3 8.5 6.5t10.5 11.5q9 12 16.5 17t15.5 5q7 0 12.5 -4t23.5 -23q14 -14 19 -18.5t14 -11.5q13 -8 20 -14.5t22 -22.5q18 -20 26.5 -27.5
t24.5 -14.5q11 -23 15 -34t4 -22q0 -10 -8 -25q-25 -6 -25 -21q0 -2 0.5 -3.5t2.5 -6.5q1 -1 1 -3q0 -11 -12 -16h-3l-10 1h-14q-23 0 -27 -19q-8 -3 -12 -3q-5 0 -10 1h-7q-10 0 -16 -9q-2 -26 -19 -26q-4 0 -12 4q-5 -2 -7.5 -2h-5.5q-13 0 -42 11q-5 2 -7 2.5t-6 2.5
q-1 1 -1 3q0 3 1 6q1 4 1 9q0 7 -6 12q-12 -8 -25 -8t-29 4q-10 2 -14.5 2.5t-11.5 1.5q-8 9 -8 17q0 4 0.5 8t1.5 9t1.5 9t0.5 8q0 7 -3.5 12t-13.5 10q-5 9 -5 17q0 5 1 9.5t4 10t8.5 13.5t15.5 21zM144 660q4 1 7.5 1h5.5q16 0 31.5 -9t38.5 -32q14 -14 20.5 -19
t16.5 -11q15 -16 24.5 -26t17 -16.5t15 -11t16.5 -8.5q8 -11 14 -16t23 -15q15 -10 20.5 -14.5t13.5 -13.5q1 -14 -25 -26l-63 47q-4 2 -5 3.5t-1 8.5q-1 13 -12 13q-10 3 -18 7t-16.5 10t-18.5 15t-24 23l-18 18t-13 12.5t-12.5 9.5t-15.5 10q-2 5 -3.5 7.5t-7.5 7.5
q-11 12 -11 19v6zM477 415q0 -17 -1.5 -21t-8.5 -4q-12 0 -20 9q-2 10 -2 12q0 7 5 12t11 5q9 0 16 -13zM785 164q0 -11 -3 -17.5t-11 -11.5q-13 4 -21 8t-24 18q-12 10 -18 13.5t-16 8.5q-8 5 -12.5 9t-12.5 15q-11 15 -16.5 19t-18.5 6q-17 21 -38.5 39t-56.5 42
q-2 5 -4.5 8t-9.5 10q-15 13 -15 22q0 5 1 8q5 4 8.5 5.5t8.5 1.5q9 0 22 -8q2 -8 5.5 -11t14.5 -7q10 -4 14 -7l36 -30zM496 734q-4 2 -6 3.5t-7 5.5q-11 11 -19 11q-2 0 -3.5 -0.5t-5.5 -1.5q-15 -12 -21 -23t-6 -28q0 -12 3.5 -27t12.5 -41q1 -1 4 -9q2 -6 3.5 -8t5.5 -4
q4 9 6 14t9 17q14 25 19.5 41.5t5.5 30.5v8.5t-1 10.5zM570 771q0 -7 6 -11q5 2 8 2h6q18 0 18 -9q0 -4 -3 -8q-1 -4 -7 -10q-7 -4 -7 -10q0 -2 1 -4q23 -16 23 -36q0 -8 -6 -15q-5 -12 -9 -20.5t-10 -17t-14.5 -18t-21.5 -23.5q-17 -17 -23.5 -25t-15.5 -21
q-7 -4 -11.5 -7.5t-14.5 -14.5q-14 -16 -21 -21t-20 -8q-16 9 -30.5 19.5t-30 24t-32.5 31t-37 40.5q-35 15 -46 64q2 3 3 5.5t5 8.5q12 18 12 28q0 8 -8 17q-1 2 -1 5q0 5 7 15l4 7q5 -1 8.5 -1h6.5q22 0 22 17v4q-1 1 -1 4q0 2 7 3q4 2 5 3q5 -1 8.5 -2.5t10.5 -5.5
q8 -5 10.5 -6t7.5 -2q3 5 5 8.5t5 12.5q8 20 14 27t19 12q37 -2 55 -10t28 -28q10 6 22 6q8 0 15.5 -2t24.5 -8l4 -1v-5q0 -3 -1 -6v-8zM794 416q-11 11 -20 15t-23 4q-12 0 -24.5 -4.5t-36.5 -17.5q-10 -5 -13.5 -7t-8.5 -4q15 -1 25 -2.5t31 -7.5l20 -5t14 -2.5t11.5 -1
t12.5 -0.5q5 2 7.5 7t3.5 17q1 5 1 9zM830 504q25 0 25 -11q0 -6 -8 -20q-5 -9 -5 -13q5 -5 9.5 -6t15.5 -1q15 0 20 -2.5t11 -10.5q13 -5 22 -30q-10 -35 -21.5 -49t-28.5 -12q-12 0 -15.5 -1t-8.5 -7q1 -5 2 -7.5t5 -10.5q6 -11 6 -16t-1 -9q-11 -8 -17 -10.5t-14 -2.5
q-3 0 -5 0.5t-7 2.5q-2 0 -3 0.5t-4 1.5q-8 2 -10 2q-6 0 -9 -9q0 -14 -11 -23q-6 -1 -10.5 -1h-8.5q-16 0 -32 8t-41 28q-10 7 -16.5 12t-11.5 8.5t-10.5 6t-12.5 5.5q-8 8 -13.5 12.5t-17.5 14.5q-11 9 -18 15t-12.5 11.5t-9.5 11t-9 13.5v5l95 78q11 9 22 19t21 20
q18 11 33 15t34 4q8 0 15 -1t19 -3q4 -5 4.5 -7.5t0.5 -12.5q0 -9 0.5 -12t5.5 -7h3.5t6.5 1h15zM776 642q-43 -29 -68 -46.5t-43 -32t-33.5 -30.5t-39.5 -41q-9 -10 -23 -23t-40 -36q-11 0 -17.5 4.5t-15.5 16.5q0 9 5 15t22 18q8 5 11.5 8t6.5 7q9 5 15 9.5t13 10t15 13
t20 18.5q9 9 15.5 15t12 10.5t11 8.5t13.5 10q0 6 8 8q5 1 15.5 10t33.5 32q18 19 25.5 26t19.5 15q9 -7 13 -16.5t5 -29.5z" />
    <glyph glyph-name="quotesinglbase" unicode="&#x201a;" horiz-adv-x="323" 
d="M180 57q0 -57 -49 -57q-29 0 -46 17.5t-17 46.5q0 33 23.5 53t62.5 20q49 0 77.5 -34t28.5 -92q0 -91 -71 -134q-8 -5 -20 -9.5t-24 -8.5t-23 -6.5t-18 -2.5t-7 5q0 6 8 7q114 28 114 116q0 54 -39 79z" />
    <glyph glyph-name="quoteright" unicode="&#x2019;" horiz-adv-x="323" 
d="M180 612q0 -56 -49 -56q-28 0 -45.5 17.5t-17.5 46.5q0 33 23.5 53t62.5 20q49 0 77.5 -34t28.5 -92q0 -92 -71 -135q-8 -5 -20 -9.5t-24 -8.5t-23 -6.5t-18 -2.5t-7 5q0 6 8 7q114 28 114 117q0 55 -39 78z" />
    <glyph glyph-name="braceleft" unicode="{" horiz-adv-x="423" 
d="M356 691q21 0 21 -9q0 -5 -5.5 -7t-20.5 -2q-42 -1 -58 -20.5t-16 -71.5v-13t0.5 -13.5t1 -19t1.5 -28.5q1 -14 1 -25.5v-21.5q0 -85 -50 -132q-19 -18 -50.5 -31.5t-63.5 -18.5q-9 -2 -9 -5q0 -6 17 -9q76 -12 116.5 -56.5t40.5 -116.5v-20t-1 -23q-3 -50 -3 -78
q0 -38 5.5 -56.5t19.5 -29.5q10 -8 20.5 -10.5t38.5 -2.5q15 0 15 -8q0 -7 -5 -8.5t-25 -1.5q-91 0 -134 29q-33 21 -51 55.5t-18 77.5q0 17 1.5 43t6.5 74q3 27 3 46q0 18 -4 31.5t-13 23t-24.5 16t-38.5 11.5q-12 3 -12 12q0 11 20 14q32 5 52 26t20 53q0 20 -3 49
q-4 45 -6 75t-2 46q0 44 19.5 78t56.5 54q24 14 54.5 19t81.5 5z" />
    <glyph glyph-name="braceright" unicode="}" horiz-adv-x="423" 
d="M61 673q-15 0 -15 8q0 7 5 8.5t23 1.5q92 0 137 -29q32 -21 50 -55.5t18 -78.5q0 -18 -2 -43.5t-6 -72.5q-3 -27 -3 -45q0 -37 17.5 -55t62.5 -28q12 -3 12 -12q0 -11 -20 -14q-33 -5 -52.5 -26t-19.5 -53q0 -21 3 -49q4 -45 6 -75t2 -46q0 -44 -19.5 -78t-56.5 -54
q-23 -13 -53.5 -18.5t-78.5 -5.5q-14 0 -19.5 2t-5.5 7t5.5 7t20.5 2q21 0 35.5 5t23 16t12 28.5t3.5 44.5v10.5t-0.5 11t-1 18t-1.5 32.5q-1 12 -1 23v22q0 87 50 134q19 18 50.5 31.5t63.5 18.5q9 2 9 5q0 6 -17 9q-75 12 -116 56.5t-41 114.5q0 9 0.5 20.5t1.5 24.5
q3 48 3 79q0 55 -15.5 76.5t-55.5 21.5h-14z" />
    <glyph glyph-name="ordfeminine" unicode="&#xaa;" horiz-adv-x="319" 
d="M176 403q-52 -10 -52 -60q0 -18 7 -29t19 -11q14 0 20 16.5t6 59.5v24zM176 427q0 23 -0.5 36t-1 20t-1.5 10.5t-2 8.5q-8 27 -39 27q-16 0 -29 -9t-13 -20q0 -5 11 -5t19 -8.5t8 -20.5q0 -14 -10.5 -23.5t-26.5 -9.5q-20 0 -32.5 11t-12.5 28q0 30 28.5 50t73.5 20
q64 0 88.5 -19.5t24.5 -69.5v-99q0 -33 3 -44t12 -11q5 0 9.5 2t14.5 10q4 4 8 4q6 0 6 -6t-12 -16q-26 -23 -68 -23q-24 0 -36 8t-18 30q-22 -24 -36.5 -32t-37.5 -8q-29 0 -46.5 17t-17.5 43q0 37 34 60t100 31v8z" />
    <glyph glyph-name="ordmasculine" unicode="&#xba;" horiz-adv-x="352" 
d="M176 530q-22 0 -34.5 -31.5t-12.5 -85.5q0 -32 4.5 -63.5t11.5 -45.5t14 -19t20 -5q26 0 34 31q1 5 2.5 16t2.5 24.5l2 27t1 24.5q0 67 -10.5 97t-34.5 30zM179 542q30 0 56 -11t45.5 -30t31 -44.5t11.5 -54.5q0 -28 -11.5 -52.5t-31.5 -43t-46.5 -29t-56.5 -10.5t-57 11
t-47 29.5t-32 43t-12 52.5q0 29 11.5 54.5t32 44t47.5 29.5t59 11z" />
    <glyph glyph-name="plusminus" unicode="&#xb1;" 
d="M497 22h-432v44h432v-44zM497 309h-194v-190h-44v190h-194v44h194v205h44v-205h194v-44z" />
    <glyph glyph-name="fraction" unicode="&#x2044;" horiz-adv-x="125" 
d="M292 705l-383 -705h-57l387 705h53z" />
    <glyph glyph-name="fraction" unicode="&#x2215;" horiz-adv-x="125" 
d="M292 705l-383 -705h-57l387 705h53z" />
    <glyph glyph-name="percent" unicode="%" horiz-adv-x="752" 
d="M552 312q-65 0 -65 -148q0 -75 17.5 -114.5t50.5 -39.5q18 0 28 10t18 35q6 18 9.5 50t3.5 67q0 30 -4.5 58.5t-12.5 48.5q-7 18 -17 25.5t-28 7.5zM553 329q74 0 118 -41q26 -24 41.5 -59.5t15.5 -73.5q0 -42 -20.5 -79.5t-57.5 -60.5q-38 -24 -94 -24q-40 0 -73.5 13
t-58 35.5t-38 54t-13.5 68.5q0 36 13.5 67t37.5 53t57 34.5t72 12.5zM203 688q-65 0 -65 -147q0 -76 17.5 -115.5t51.5 -39.5q17 0 27 10t18 35q6 18 9.5 50t3.5 66q0 31 -4.5 59.5t-12.5 48.5q-7 18 -17.5 25.5t-27.5 7.5zM596 705l-382 -705h-57l366 671q-23 -18 -49 -26
t-61 -8q-28 0 -51 5t-46 16q63 -59 63 -130q0 -39 -21.5 -76.5t-56.5 -60.5q-36 -24 -95 -24q-39 0 -72.5 13t-58 35.5t-38 54t-13.5 68.5q0 35 13.5 65.5t37 53t55.5 35.5t69 13q13 0 22.5 -0.5t20.5 -3t27 -8t43 -14.5q57 -19 100 -19q35 0 66 11t66 34h52z" />
    <glyph glyph-name="perthousand" unicode="&#x2030;" horiz-adv-x="1146" 
d="M947 312q-65 0 -65 -147q0 -76 17.5 -115.5t50.5 -39.5q18 0 28 10t18 35q6 19 9.5 50.5t3.5 65.5q0 30 -4.5 59t-12.5 49q-7 18 -17 25.5t-28 7.5zM948 329q74 0 118 -41q26 -24 41.5 -59.5t15.5 -73.5q0 -42 -20.5 -79.5t-57.5 -60.5q-38 -24 -94 -24q-40 0 -73.5 13
t-58 35.5t-38 54t-13.5 68.5q0 36 13.5 67t37.5 53t57 34.5t72 12.5zM553 312q-65 0 -65 -148q0 -75 17.5 -114.5t50.5 -39.5q18 0 28 10t18 35q6 18 9.5 50t3.5 67q0 30 -4.5 58.5t-12.5 48.5q-7 18 -17 25.5t-28 7.5zM554 329q74 0 118 -41q26 -24 41.5 -59.5t15.5 -73.5
q0 -42 -20.5 -79.5t-57.5 -60.5q-38 -24 -94 -24q-40 0 -73.5 13t-58 35.5t-38 54t-13.5 68.5q0 36 13.5 67t37.5 53t57 34.5t72 12.5zM204 688q-65 0 -65 -147q0 -76 17.5 -115.5t51.5 -39.5q17 0 27 10t18 35q6 18 9.5 50t3.5 66q0 31 -4.5 59.5t-12.5 48.5
q-7 18 -17.5 25.5t-27.5 7.5zM597 705l-382 -705h-57l366 671q-23 -18 -49 -26t-61 -8q-28 0 -51 5t-46 16q63 -59 63 -130q0 -39 -21.5 -76.5t-56.5 -60.5q-36 -24 -95 -24q-39 0 -72.5 13t-58 35.5t-38 54t-13.5 68.5q0 35 13.5 65.5t37 53t55.5 35.5t69 13
q13 0 22.5 -0.5t20.5 -3t27 -8t43 -14.5q57 -19 100 -19q35 0 66 11t66 34h52z" />
    <glyph glyph-name="backslash" unicode="\" horiz-adv-x="536" 
d="M111 689l376 -689h-67l-377 689h68z" />
    <glyph glyph-name="dieresis" unicode="&#xa8;" horiz-adv-x="500" 
d="M340 636q24 0 42 -18t18 -43q0 -26 -17.5 -43.5t-43.5 -17.5q-25 0 -43 18.5t-18 43.5t18 42.5t44 17.5zM165 636q24 0 41.5 -18t17.5 -43q0 -26 -17.5 -43.5t-43.5 -17.5q-25 0 -43 18.5t-18 43.5q0 24 18.5 42t44.5 18z" />
    <glyph glyph-name="dotaccent" unicode="&#x2d9;" horiz-adv-x="500" 
d="M280 636q24 0 41.5 -18t17.5 -43q0 -26 -17.5 -43.5t-43.5 -17.5q-25 0 -43 18.5t-18 43.5q0 24 18.5 42t44.5 18z" />
    <glyph glyph-name="ring" unicode="&#x2da;" horiz-adv-x="500" 
d="M249 647q-23 0 -39 -17.5t-16 -42.5q0 -24 16.5 -41t39.5 -17q25 0 41 16.5t16 42.5t-16.5 42.5t-41.5 16.5zM252 677q18 0 33.5 -7t27.5 -19.5t19 -28.5t7 -34q0 -37 -26 -63t-63 -26q-18 0 -34 7t-28 19t-19 28.5t-7 34.5q0 37 26.5 63t63.5 26z" />
    <glyph glyph-name="acute" unicode="&#xb4;" horiz-adv-x="500" 
d="M376 659h28l-9 -8l-39 -35l-59 -52l-34 -30l-17 -16q-20 -18 -24 -18t-4 4q0 1 0.5 3t3.5 9.5t9.5 24t18.5 46.5q3 8 9.5 24t17.5 48h99z" />
    <glyph glyph-name="grave" unicode="`" horiz-adv-x="500" 
d="M163 659h94q14 -38 26 -70t23 -58l8 -20q2 -4 2 -7q0 -4 -4 -4q-5 0 -24 18q-5 5 -11.5 10.5t-16.5 14.5l-25 22.5t-37 33.5q-15 13 -29.5 25.5t-29.5 26.5q-3 2 -9 8h33z" />
    <glyph glyph-name="circumflex" unicode="&#x2c6;" horiz-adv-x="500" 
d="M288 506q-24 26 -43.5 53t-28.5 46q-12 -18 -19.5 -29t-13 -18.5t-10.5 -13.5t-12 -13q-15 -16 -22 -21.5t-12 -5.5q-6 0 -6 4q0 2 1.5 4t11.5 12q23 20 46.5 55t46.5 80q10 18 13.5 23t7.5 5q5 0 11 -11q31 -52 63 -96.5t58 -73.5h-92z" />
    <glyph glyph-name="caron" unicode="&#x2c7;" horiz-adv-x="500" 
d="M214 685q11 -12 22.5 -26t21 -27.5t17 -25.5t10.5 -21q12 18 19 29.5t12.5 19t10.5 13t13 13.5q15 16 22 21.5t12 5.5q6 0 6 -4q0 -2 -1.5 -4t-11.5 -12q-46 -43 -93 -136q-10 -19 -13.5 -23.5t-7.5 -4.5q-6 0 -11 11q-31 53 -61.5 96.5t-59.5 74.5h93z" />
    <glyph glyph-name="breve" unicode="&#x2d8;" horiz-adv-x="500" 
d="M366 650q3 0 3 -6q0 -27 -9 -50.5t-25 -41t-38 -27t-47 -9.5q-52 0 -85 33.5t-33 87.5q0 12 4 12t4 -7q10 -53 108 -53q26 0 45 2.5t32 9.5t22 17.5t15 27.5q2 4 4 4z" />
    <glyph glyph-name="tilde" unicode="&#x2dc;" horiz-adv-x="500" 
d="M189 638q8 0 15.5 -1.5t20.5 -6.5t34 -14.5t56 -25.5q9 -4 19.5 -7t15.5 -3q8 0 13 7.5t12 30.5q3 11 9 11q5 0 5 -5q0 -3 -1.5 -10t-4 -16t-5.5 -18.5t-6 -15.5q-16 -42 -55 -42q-9 0 -15 0.5t-18.5 5t-34.5 14.5t-62 28q-11 5 -22 8t-18 3q-8 0 -14.5 -5.5t-6.5 -13.5
q0 -12 14 -22q8 -7 8 -12t-6 -5q-9 0 -19.5 15t-10.5 29q0 13 6.5 26t17.5 23t24.5 16t28.5 6z" />
    <glyph glyph-name="hungarumlaut" unicode="&#x2dd;" horiz-adv-x="500" 
d="M485 658h21l-12 -10l-49 -45q-40 -35 -66.5 -57t-34.5 -27q-5 -4 -10 -7.5t-10 -7.5q-5 -5 -8 -5t-3 3q0 1 7 16.5t18 38.5t24.5 50l25.5 51h97zM304 658h21l-12 -10l-49 -45q-38 -32 -66 -55.5t-35 -28.5q-8 -5 -12.5 -9t-7.5 -6q-5 -5 -8 -5t-3 3q0 6 13 32
q11 23 26.5 53.5t34.5 70.5h98z" />
    <glyph glyph-name="cedilla" unicode="&#xb8;" horiz-adv-x="500" 
d="M260 -45q-1 7 -1 18v19v8q3 -1 8 -1t8 1q1 -8 1 -12.5v-9.5v-14q5 1 9 1h6q39 0 66 -22t27 -55q0 -18 -8.5 -34t-22.5 -27.5t-33 -18.5t-41 -7q-12 0 -26 4t-26 10t-19.5 13t-7.5 13q0 5 5 5q2 0 7 -5q16 -15 37 -15q23 0 36 21t13 56q0 26 -8 38t-26 14h-4z" />
    <glyph glyph-name="ogonek" unicode="&#x2db;" horiz-adv-x="500" 
d="M356 -1q-34 -31 -34 -86q0 -38 16.5 -60.5t45.5 -22.5q5 0 17 3.5t18 6.5q4 3 8 3t4 -4t-16 -14q-22 -13 -38.5 -18t-35.5 -5q-42 0 -71 24t-29 59q0 21 14 44t37 38q11 8 22.5 14.5t34.5 18.5z" />
    <glyph glyph-name="macron" unicode="&#xaf;" horiz-adv-x="500" 
d="M372 612h18q2 -10 1 -30q-1 -30 0 -40q-17 0 -30 0.5t-24.5 0.5h-22h-22.5h-24h-33t-50.5 -0.5t-76.5 -0.5v36v33z" />
    <glyph glyph-name="macron" unicode="&#x2c9;" horiz-adv-x="500" 
d="M372 612h18q2 -10 1 -30q-1 -30 0 -40q-17 0 -30 0.5t-24.5 0.5h-22h-22.5h-24h-33t-50.5 -0.5t-76.5 -0.5v36v33z" />
    <glyph glyph-name="copyright" unicode="&#xa9;" horiz-adv-x="851" 
d="M576 446q1 -5 1 -8.5v-4.5q0 -11 -9 -11q-5 0 -6.5 3t-5.5 18q-21 100 -101 100q-43 0 -65 -33q-17 -28 -27 -71.5t-10 -94.5q0 -85 27.5 -133.5t77.5 -48.5q83 0 111 106q2 11 4.5 14t6.5 3q8 0 8 -8v-4.5t-1 -5.5q-2 -10 -3 -27t-1 -32q0 -13 0.5 -24t2.5 -26
q1 -3 1 -5.5v-4.5q0 -7 -6 -7q-3 0 -7 6q-13 22 -28 28q-26 -21 -48.5 -29.5t-53.5 -8.5q-45 0 -84 17t-68 46t-46 68.5t-17 84.5q0 46 16 85t44.5 67.5t67.5 45t85 16.5q23 0 40.5 -4t34.5 -14q11 -6 16.5 -8t10.5 -2q12 0 21 12q8 8 10 8q5 0 5 -5q0 -3 -1 -4
q-3 -18 -3 -67v-16v-21zM422 672q-66 0 -124.5 -26.5t-102.5 -72.5t-70 -106.5t-26 -127.5q0 -65 25.5 -121.5t69.5 -98.5t104 -66.5t128 -24.5q67 0 126.5 24t104 66t70 98.5t25.5 121.5q0 69 -26 130t-71 106t-105 71.5t-128 26.5zM430 705q74 0 139 -28.5t113.5 -78
t76.5 -115t28 -140.5q0 -80 -32.5 -149.5t-92.5 -116.5q-23 -18 -51.5 -33.5t-59.5 -26t-63.5 -16.5t-62.5 -6t-62 6t-63 16.5t-59.5 25.5t-51.5 34q-60 47 -92.5 116.5t-32.5 148.5q0 77 28 143.5t77.5 115t116.5 76.5t144 28z" />
    <glyph glyph-name="registered" unicode="&#xae;" horiz-adv-x="851" 
d="M387 378q49 0 70.5 23.5t21.5 76.5q0 78 -63 78q-10 0 -15.5 -1t-8.5 -8.5t-3.5 -23.5t-1.5 -45v-100zM387 231v-47q0 -14 8.5 -18t37.5 -4q11 0 11 -5t-8 -5l-52 1l-54 -1h-12t-17 1h-27h-6t-20 -1q-7 0 -7 5q0 4 4 4.5t21 1.5q19 1 23 6t4 29v309v23t-0.5 12t-2 5.5
l-3.5 3.5q-4 3 -11 4.5t-15 1.5q-13 -1 -16 0t-3 5q0 2 1.5 3.5t9 2t24 0.5h46.5h68.5t38 -0.5t21 -1t17.5 -1.5q32 -3 49 -9t31 -19q14 -14 20.5 -27.5t6.5 -31.5q0 -59 -62 -86q-14 -6 -32 -10t-49 -8v-3q67 -5 98 -35t36 -98q5 -46 13 -63.5t25 -17.5q4 0 7.5 1.5
t3.5 3.5q0 1 -1 1.5t-6 4.5q-6 3 -6 10q0 15 17 15q16 0 16 -19q0 -30 -45 -30q-57 0 -91 35q-9 9 -15 17t-10 19.5t-6 27.5t-5 42q-5 47 -21.5 65t-54.5 17v-136zM422 672q-66 0 -124.5 -26.5t-102.5 -72.5t-70 -106.5t-26 -127.5q0 -65 25.5 -121.5t69.5 -98.5t104 -66.5
t128 -24.5q67 0 126.5 24t104 66t70 98.5t25.5 121.5q0 69 -26 130t-71 106t-105 71.5t-128 26.5zM430 705q74 0 139 -28.5t113.5 -78t76.5 -115t28 -140.5q0 -80 -32.5 -149.5t-92.5 -116.5q-23 -18 -51.5 -33.5t-59.5 -26t-63.5 -16.5t-62.5 -6t-62 6t-63 16.5t-59.5 25.5
t-51.5 34q-60 47 -92.5 116.5t-32.5 148.5q0 77 28 143.5t77.5 115t116.5 76.5t144 28z" />
    <glyph glyph-name="Acircumflex" unicode="&#xc2;" horiz-adv-x="678" 
d="M395 741q-23 25 -43.5 53t-28.5 47q-12 -18 -19.5 -29.5t-13 -19t-10.5 -13.5t-12 -13q-15 -16 -22 -21.5t-12 -5.5q-6 0 -6 5q0 2 1.5 3.5l11.5 11.5q47 42 93 136q10 18 13.5 23t7.5 5q5 0 11 -11q30 -52 62.5 -97.5t58.5 -73.5h-92zM282 482q-7 -17 -12.5 -30.5
t-11 -28t-11.5 -31.5t-14 -41q-9 -27 -15 -44t-9.5 -28t-6.5 -18.5t-6 -16.5h22t22 1h56h21.5t49.5 -1q-4 7 -7 19q-19 54 -33 94.5t-25 68.5q-4 10 -7 19.5t-7 18.5zM356 222l-78 1h-46.5t-42.5 -1q-4 -10 -7.5 -18.5t-7 -18.5t-8 -22.5t-11.5 -30.5l-22 -65q-5 -15 -5 -24
q0 -17 22 -22q4 -1 7 -1.5t7.5 -0.5t12.5 -0.5t22 -1.5q14 0 14 -9t-18 -9l-105 1h-60q-5 -1 -8 -1h-5q-14 0 -14 10q0 5 4 6t27 2q20 1 31.5 3.5t20 12t16 29t19.5 54.5l28 74t27 74q12 31 27 73t31.5 87.5t33 90.5t29.5 82q7 17 13 34t12 35q5 15 9.5 24.5t7.5 9.5
q4 0 8 -9t14 -37q7 -20 17.5 -49t30 -80.5t50.5 -132.5t78 -204q11 -28 20.5 -54t19.5 -52q8 -23 14.5 -35.5t16 -19t24.5 -7.5t41 -1q12 0 12 -9q0 -8 -7.5 -9.5t-38.5 -1.5h-21.5t-23.5 1q-43 1 -70.5 1.5t-31.5 0.5h-26t-32 -1q-20 -1 -39 -1.5t-29 -0.5q-27 0 -27 10
q0 6 10 8t47 3q22 1 29.5 3.5t7.5 10.5v3.5t-1.5 5.5t-4 11.5t-6.5 21.5q-5 17 -10.5 33t-10.5 32q-3 11 -6 20t-5.5 18t-6 19t-8.5 24h-18z" />
    <glyph glyph-name="nonbreakingspace" unicode="&#xa0;" horiz-adv-x="151" 
 />
    <glyph glyph-name="bullet" unicode="&#x2022;" horiz-adv-x="693" 
d="M350 496q29 0 55 -11.5t45.5 -31t30.5 -45.5t11 -56t-11.5 -56.5t-31 -46t-45.5 -30.5t-56 -11t-56.5 11t-46 30.5t-30.5 46t-11 56.5t11.5 56.5t31 46t46 30.5t57.5 11z" />
    <glyph glyph-name="less" unicode="&#x3c;" horiz-adv-x="640" 
d="M536 598l-360 -229l360 -246v-50l-433 293v8l433 274v-50z" />
    <glyph glyph-name="greater" unicode="&#x3e;" horiz-adv-x="640" 
d="M536 374v-8l-433 -293v50l360 246l-360 229v50z" />
    <glyph glyph-name="logicalnot" unicode="&#xac;" 
d="M497 0h-106v205h-333v44h439v-249z" />
    <glyph glyph-name="asciicircum" unicode="^" 
d="M345 317q-20 26 -38.5 55t-35 57.5t-29.5 54.5t-20 46q-21 -40 -33.5 -64t-22 -40t-18 -28t-20.5 -28q-27 -35 -38.5 -46.5t-19.5 -11.5q-4 0 -7.5 3t-3.5 7q0 2 0.5 3.5t2.5 4.5t6.5 8.5t13.5 15.5q23 28 42.5 57t39.5 67t42.5 88t52.5 120q7 21 18 21q3 0 5 -1t6 -7.5
t10.5 -21t18.5 -40.5q39 -74 63.5 -120t44 -79t37 -59.5t42.5 -61.5h-159z" />
    <glyph glyph-name="bar" unicode="|" horiz-adv-x="459" 
d="M273 692v-865h-87v865h87z" />
    <glyph glyph-name="underscore" unicode="_" horiz-adv-x="510" 
d="M500 -94v-66h-491v66h491z" />
    <glyph glyph-name="asciitilde" unicode="~" horiz-adv-x="665" 
d="M542 748q-29 -54 -64.5 -81.5t-74.5 -27.5q-8 0 -14.5 0.5t-16 3t-22.5 6.5t-32 11q-38 13 -55 17t-34 4q-12 0 -21.5 -2t-19 -7.5t-20 -16t-24.5 -26.5l-20 13q32 57 65.5 83.5t74.5 26.5q15 0 32.5 -4t54.5 -17q34 -12 50.5 -16t30.5 -4q49 0 90 50z" />
    <glyph glyph-name="mu" unicode="&#xb5;" horiz-adv-x="543" 
d="M472 109q0 -24 0.5 -36.5t2 -19t5 -8.5t9.5 -3q8 -2 17 -2h37q13 0 13 -8q0 -5 -3 -7t-14 -2q-45 -2 -75 -4t-50.5 -5.5t-34 -9t-26.5 -14.5q-5 -4 -11 -4q-4 0 -4 8v10t1 12q1 7 1 12v9v6.5t-1 9.5q-14 -19 -26 -32t-24 -20.5t-24.5 -10.5t-28.5 -3q-24 0 -40 7t-36 26
q6 -29 10 -48t7 -31q7 -29 11.5 -45t6 -24.5t2 -13t0.5 -10.5q0 -19 -6.5 -37t-16.5 -32.5t-23.5 -23t-26.5 -8.5q-15 0 -29.5 9t-26 24.5t-18 35t-6.5 40.5q0 5 0.5 9.5t1.5 12t3 19t5 30.5q9 51 14.5 105.5t5.5 92.5v71v29.5v29.5t0.5 47.5t0.5 82.5q0 11 -1.5 17t-6 9.5
t-12.5 4.5t-23 2q-16 1 -21 2t-5 6q0 8 14 8h11q21 -2 45.5 -2.5t41.5 -0.5h10h11t19 0.5t35 1.5h19v-108q-1 -47 -1.5 -72.5t-1 -39t-0.5 -19v-12.5q0 -32 0.5 -53.5t2 -36.5t4 -24.5t6.5 -16.5q14 -26 43 -26q15 0 31.5 10t30.5 27q4 6 6.5 10.5t3.5 12t1.5 20.5t0.5 35
v172q0 38 -0.5 60.5t-1.5 27.5q-2 12 -6.5 15t-18.5 4h-28q-14 0 -14 8q0 2 1 3.5t6 2t16 0.5h31h27h25t36.5 0.5t60.5 0.5q0 -14 -0.5 -26.5t-0.5 -26v-30.5v-39v-203z" />
    <glyph glyph-name="mu" unicode="&#x3bc;" horiz-adv-x="543" 
d="M472 109q0 -24 0.5 -36.5t2 -19t5 -8.5t9.5 -3q8 -2 17 -2h37q13 0 13 -8q0 -5 -3 -7t-14 -2q-45 -2 -75 -4t-50.5 -5.5t-34 -9t-26.5 -14.5q-5 -4 -11 -4q-4 0 -4 8v10t1 12q1 7 1 12v9v6.5t-1 9.5q-14 -19 -26 -32t-24 -20.5t-24.5 -10.5t-28.5 -3q-24 0 -40 7t-36 26
q6 -29 10 -48t7 -31q7 -29 11.5 -45t6 -24.5t2 -13t0.5 -10.5q0 -19 -6.5 -37t-16.5 -32.5t-23.5 -23t-26.5 -8.5q-15 0 -29.5 9t-26 24.5t-18 35t-6.5 40.5q0 5 0.5 9.5t1.5 12t3 19t5 30.5q9 51 14.5 105.5t5.5 92.5v71v29.5v29.5t0.5 47.5t0.5 82.5q0 11 -1.5 17t-6 9.5
t-12.5 4.5t-23 2q-16 1 -21 2t-5 6q0 8 14 8h11q21 -2 45.5 -2.5t41.5 -0.5h10h11t19 0.5t35 1.5h19v-108q-1 -47 -1.5 -72.5t-1 -39t-0.5 -19v-12.5q0 -32 0.5 -53.5t2 -36.5t4 -24.5t6.5 -16.5q14 -26 43 -26q15 0 31.5 10t30.5 27q4 6 6.5 10.5t3.5 12t1.5 20.5t0.5 35
v172q0 38 -0.5 60.5t-1.5 27.5q-2 12 -6.5 15t-18.5 4h-28q-14 0 -14 8q0 2 1 3.5t6 2t16 0.5h31h27h25t36.5 0.5t60.5 0.5q0 -14 -0.5 -26.5t-0.5 -26v-30.5v-39v-203z" />
    <glyph glyph-name="Adieresis" unicode="&#xc4;" horiz-adv-x="678" 
d="M433 871q24 0 42 -18t18 -43q0 -26 -17.5 -43.5t-43.5 -17.5q-25 0 -43 18.5t-18 43.5q0 24 18 42t44 18zM257 871q25 0 42.5 -18t17.5 -43q0 -26 -17.5 -43.5t-43.5 -17.5q-25 0 -43 18.5t-18 43.5q0 24 18.5 42t43.5 18zM282 482q-7 -17 -12.5 -30.5t-11 -28
t-11.5 -31.5t-14 -41q-9 -27 -15 -44t-9.5 -28t-6.5 -18.5t-6 -16.5h22t22 1h56h21.5t49.5 -1q-4 7 -7 19q-19 54 -33 94.5t-25 68.5q-4 10 -7 19.5t-7 18.5zM356 222l-78 1h-46.5t-42.5 -1q-4 -10 -7.5 -18.5t-7 -18.5t-8 -22.5t-11.5 -30.5l-22 -65q-5 -15 -5 -24
q0 -17 22 -22q4 -1 7 -1.5t7.5 -0.5t12.5 -0.5t22 -1.5q14 0 14 -9t-18 -9l-105 1h-60q-5 -1 -8 -1h-5q-14 0 -14 10q0 5 4 6t27 2q20 1 31.5 3.5t20 12t16 29t19.5 54.5l28 74t27 74q12 31 27 73t31.5 87.5t33 90.5t29.5 82q7 17 13 34t12 35q5 15 9.5 24.5t7.5 9.5
q4 0 8 -9t14 -37q7 -20 17.5 -49t30 -80.5t50.5 -132.5t78 -204q11 -28 20.5 -54t19.5 -52q8 -23 14.5 -35.5t16 -19t24.5 -7.5t41 -1q12 0 12 -9q0 -8 -7.5 -9.5t-38.5 -1.5h-21.5t-23.5 1q-43 1 -70.5 1.5t-31.5 0.5h-26t-32 -1q-20 -1 -39 -1.5t-29 -0.5q-27 0 -27 10
q0 6 10 8t47 3q22 1 29.5 3.5t7.5 10.5v3.5t-1.5 5.5t-4 11.5t-6.5 21.5q-5 17 -10.5 33t-10.5 32q-3 11 -6 20t-5.5 18t-6 19t-8.5 24h-18z" />
    <glyph glyph-name="Aacute" unicode="&#xc1;" horiz-adv-x="678" 
d="M520 894q-6 -6 -9 -8q-16 -14 -40.5 -36t-57.5 -51q-14 -11 -26.5 -23t-24.5 -23q-20 -18 -24 -18t-4 4q0 1 0.5 3t3.5 9.5t9.5 24t18.5 46.5q3 8 10 26.5t17 46.5q21 -1 45.5 -1h47.5h34zM282 482q-7 -17 -12.5 -30.5t-11 -28t-11.5 -31.5t-14 -41q-9 -27 -15 -44
t-9.5 -28t-6.5 -18.5t-6 -16.5h22t22 1h56h21.5t49.5 -1q-4 7 -7 19q-19 54 -33 94.5t-25 68.5q-4 10 -7 19.5t-7 18.5zM356 222l-78 1h-46.5t-42.5 -1q-4 -10 -7.5 -18.5t-7 -18.5t-8 -22.5t-11.5 -30.5l-22 -65q-5 -15 -5 -24q0 -17 22 -22q4 -1 7 -1.5t7.5 -0.5
t12.5 -0.5t22 -1.5q14 0 14 -9t-18 -9l-105 1h-60q-5 -1 -8 -1h-5q-14 0 -14 10q0 5 4 6t27 2q20 1 31.5 3.5t20 12t16 29t19.5 54.5l28 74t27 74q12 31 27 73t31.5 87.5t33 90.5t29.5 82q7 17 13 34t12 35q5 15 9.5 24.5t7.5 9.5q4 0 8 -9t14 -37q7 -20 17.5 -49t30 -80.5
t50.5 -132.5t78 -204q11 -28 20.5 -54t19.5 -52q8 -23 14.5 -35.5t16 -19t24.5 -7.5t41 -1q12 0 12 -9q0 -8 -7.5 -9.5t-38.5 -1.5h-21.5t-23.5 1q-43 1 -70.5 1.5t-31.5 0.5h-26t-32 -1q-20 -1 -39 -1.5t-29 -0.5q-27 0 -27 10q0 6 10 8t47 3q22 1 29.5 3.5t7.5 10.5v3.5
t-1.5 5.5t-4 11.5t-6.5 21.5q-5 17 -10.5 33t-10.5 32q-3 11 -6 20t-5.5 18t-6 19t-8.5 24h-18z" />
    <glyph glyph-name="Agrave" unicode="&#xc0;" horiz-adv-x="678" 
d="M195 894h47.5t44.5 1q14 -39 26.5 -71t22.5 -58l8 -20q2 -4 2 -7q0 -4 -4 -4q-6 0 -24 18q-26 24 -63 57t-86 76q-3 2 -9 8h35zM282 482q-7 -17 -12.5 -30.5t-11 -28t-11.5 -31.5t-14 -41q-9 -27 -15 -44t-9.5 -28t-6.5 -18.5t-6 -16.5h22t22 1h56h21.5t49.5 -1
q-4 7 -7 19q-19 54 -33 94.5t-25 68.5q-4 10 -7 19.5t-7 18.5zM356 222l-78 1h-46.5t-42.5 -1q-4 -10 -7.5 -18.5t-7 -18.5t-8 -22.5t-11.5 -30.5l-22 -65q-5 -15 -5 -24q0 -17 22 -22q4 -1 7 -1.5t7.5 -0.5t12.5 -0.5t22 -1.5q14 0 14 -9t-18 -9l-105 1h-60q-5 -1 -8 -1h-5
q-14 0 -14 10q0 5 4 6t27 2q20 1 31.5 3.5t20 12t16 29t19.5 54.5l28 74t27 74q12 31 27 73t31.5 87.5t33 90.5t29.5 82q7 17 13 34t12 35q5 15 9.5 24.5t7.5 9.5q4 0 8 -9t14 -37q7 -20 17.5 -49t30 -80.5t50.5 -132.5t78 -204q11 -28 20.5 -54t19.5 -52q8 -23 14.5 -35.5
t16 -19t24.5 -7.5t41 -1q12 0 12 -9q0 -8 -7.5 -9.5t-38.5 -1.5h-21.5t-23.5 1q-43 1 -70.5 1.5t-31.5 0.5h-26t-32 -1q-20 -1 -39 -1.5t-29 -0.5q-27 0 -27 10q0 6 10 8t47 3q22 1 29.5 3.5t7.5 10.5v3.5t-1.5 5.5t-4 11.5t-6.5 21.5q-5 17 -10.5 33t-10.5 32q-3 11 -6 20
t-5.5 18t-6 19t-8.5 24h-18z" />
    <glyph glyph-name="Scaron" unicode="&#x160;" horiz-adv-x="496" 
d="M211 920q23 -25 43 -54t28 -46q12 18 19 29t12.5 18.5t10.5 13.5t13 14q15 16 22 21.5t12 5.5q6 0 6 -5q0 -2 -1.5 -3.5l-11.5 -11.5q-23 -21 -46.5 -54.5t-46.5 -81.5q-10 -19 -13.5 -23.5t-7.5 -4.5q-6 0 -11 11q-31 52 -62.5 97t-58.5 74h93zM411 706q10 0 10 -13
q0 -3 -0.5 -10.5t-1.5 -17.5q-1 -8 -1.5 -16.5t-0.5 -21.5q0 -22 1 -48t3 -40q1 -3 1 -8q0 -9 -8 -9q-6 0 -8 4.5t-10 28.5q-4 15 -12.5 31.5t-19 31t-22 26.5t-23.5 19q-17 10 -32.5 14t-37.5 4q-57 0 -89.5 -27t-32.5 -74q0 -20 7 -37.5t24 -35t46 -37t73 -43.5
q32 -18 54.5 -31t39 -24t28 -21t21.5 -20q24 -25 37.5 -60t13.5 -74q0 -46 -17 -84.5t-47.5 -66.5t-72.5 -43.5t-92 -15.5q-21 0 -36.5 1.5t-33 5.5t-40.5 12t-58 22q-9 3 -14 3q-17 0 -26 -36q-3 -11 -8 -11q-8 0 -8 14q0 6 1.5 18.5t3.5 27.5t3 30.5t1 32.5v21t-1 25
q-1 12 -1.5 23t-0.5 17q0 16 10 16q7 0 10 -6.5t8 -36.5q7 -35 23.5 -66t39.5 -49q25 -21 55 -32.5t59 -11.5q27 0 50.5 9t40.5 24.5t27 37t10 46.5q0 41 -24 67q-6 6 -13 11.5t-19 13t-31.5 18.5t-52.5 28q-61 33 -94.5 59t-53.5 57q-17 25 -26.5 58t-9.5 68q0 43 16 79.5
t45 63t68 41.5t86 15q27 0 51 -5t56 -19q20 -8 27 -8q10 0 13 4.5t7 21.5q1 9 9 9z" />
    <glyph glyph-name="Yacute" unicode="&#xdd;" horiz-adv-x="548" 
d="M459 894q-6 -6 -9 -8q-16 -14 -40.5 -36t-57.5 -51q-14 -11 -26.5 -23t-24.5 -23q-20 -18 -24 -18t-4 4q0 1 0.5 3t3.5 9.5t9.5 24t18.5 46.5q3 8 10 26.5t17 46.5q21 -1 45.5 -1h47.5h34zM253 692q13 1 21 1h10q20 0 20 -8q0 -6 -5 -7t-35 -2q-32 -2 -43.5 -7t-11.5 -17
q0 -8 1 -14t6 -18.5t16 -35t31 -62.5q26 -53 40 -81.5t22 -44t12 -22.5t10 -16q18 32 38 73.5t50 108.5q16 36 25 55.5t13 30t4.5 15.5t0.5 11q0 22 -29 22q-29 -1 -36.5 0.5t-7.5 8.5q0 10 19 10l28 -1h28.5h19.5t19 -0.5t28 -0.5h38q23 0 23 -10q0 -8 -13 -8
q-20 -1 -32 -2t-19.5 -2.5t-11.5 -4t-8 -5.5q-5 -1 -26 -42.5t-50 -106.5q-10 -24 -20.5 -47t-21.5 -45q-18 -35 -27.5 -55t-14 -36t-5 -33t-0.5 -46v-156l1 -45q1 -17 15 -22.5t57 -6.5q22 0 22 -10q0 -8 -19 -8h-10.5h-12.5t-22.5 0.5t-41.5 1.5l-80 1q-6 0 -26.5 -0.5
t-49.5 -1.5l-63 -1q-16 0 -16 8t14 8q33 1 54 4.5t24 8.5q6 6 7 32v68v169q-8 22 -16.5 42t-19 43t-25.5 51.5t-37 69.5q-24 45 -43.5 81t-30.5 59q-9 18 -21 24.5t-36 6.5h-11q-3 -1 -6 -1h-4q-20 0 -20 11q0 5 4 7t17 2h2.5h6t13 -0.5l25.5 -1.5l118 -1h11.5h11t16 0.5
t27.5 0.5h59z" />
    <glyph glyph-name="Zcaron" unicode="&#x17d;" horiz-adv-x="550" 
d="M251 920q23 -25 43 -54t28 -46q12 18 19 29t12.5 18.5t10.5 13.5t13 14q15 16 22 21.5t12 5.5q6 0 6 -5q0 -2 -1.5 -3.5l-11.5 -11.5q-23 -21 -46.5 -54.5t-46.5 -81.5q-10 -19 -13.5 -23.5t-7.5 -4.5q-6 0 -11 11q-31 52 -62.5 97t-58.5 74h93zM120 0h-30.5t-22.5 -2
q-19 -2 -33 -2.5t-20 -0.5q-13 0 -13 7q0 5 4 10q8 13 14.5 24t15 25.5t19.5 35t28 53.5q44 82 75.5 140.5t55.5 102.5t43 79l38 70q13 24 23 42t17 32t12.5 25.5t10.5 22.5q-18 2 -35.5 2h-54.5q-53 0 -83 -8.5t-55 -30.5q-23 -20 -43 -51t-32 -64q-6 -18 -14 -18
q-3 0 -5.5 3t-2.5 6q0 5 3 13q6 27 9.5 43.5t7 33.5t8 40t12.5 62q9 -1 40 -2.5t69 -2.5t76.5 -1.5t61.5 -0.5q38 0 76.5 1t60.5 3q16 1 26.5 1.5t15.5 0.5h11t16 -1q-2 -7 -4 -13.5t-6.5 -15.5l-11.5 -23t-18 -35q-35 -62 -68.5 -123.5t-68.5 -124.5q-42 -77 -87 -160.5
t-95 -175.5q65 0 108 1t71.5 3.5t47 6.5t34.5 11q68 26 101 165q3 15 12 15q8 0 8 -11v-6t-1 -9.5t-3.5 -19.5t-6.5 -36q-3 -20 -5.5 -36t-4.5 -32t-4.5 -34t-5.5 -42q-16 2 -25 2h-28l-233 -1z" />
    <glyph glyph-name="scaron" unicode="&#x161;" horiz-adv-x="354" 
d="M141 685q11 -12 22.5 -26t21 -27.5t17 -25.5t10.5 -21q12 18 19 29.5t12.5 19t10.5 13t13 13.5q15 16 22 21.5t12 5.5q6 0 6 -4q0 -2 -1.5 -4t-11.5 -12q-46 -43 -93 -136q-10 -19 -13.5 -23.5t-7.5 -4.5q-6 0 -11 11q-31 53 -61.5 96.5t-59.5 74.5h93zM306 327
q0 -8 -6 -8q-5 0 -8 9q-29 102 -118 102q-33 0 -54.5 -18t-21.5 -46q0 -13 4 -22.5t14 -18t27 -17t43 -17.5q45 -16 75 -31.5t48 -33t25 -39t7 -49.5q0 -33 -10.5 -61t-30 -47.5t-46.5 -30.5t-60 -11q-34 0 -76 16q-13 4 -20.5 7t-12 4t-7.5 1.5t-7 0.5q-18 0 -25 -15
q-4 -9 -5.5 -11t-3.5 -2q-6 0 -6 7q0 3 0.5 8t1.5 11q2 8 2.5 28t0.5 38v10t-1 22v17q0 11 5 11q6 0 9 -15q4 -26 17.5 -49t33 -39.5t44 -26t50.5 -9.5q33 0 53.5 20.5t20.5 53.5q0 25 -19 44q-6 5 -11 8.5t-12.5 6.5t-20 7.5t-31.5 10.5q-75 25 -108.5 60t-33.5 91
q0 30 10.5 55.5t29.5 44.5t44 30t54 11q7 0 13.5 -0.5t14.5 -2t19.5 -4.5t28.5 -7q8 -2 12 -2q13 0 19.5 5.5t13.5 21.5q2 5 5 5q7 0 7 -12v-3t-1 -16q-1 -4 -1 -14q0 -21 1.5 -42.5t3.5 -41.5v-5z" />
    <glyph glyph-name="yacute" unicode="&#xfd;" horiz-adv-x="393" 
d="M359 659h28l-9 -8l-39 -35l-59 -52l-34 -30l-17 -16q-20 -18 -24 -18t-4 4q0 1 0.5 3t3.5 9.5t9.5 24t18.5 46.5q3 8 9.5 24t17.5 48h99zM198 432q5 1 8.5 1h5.5q11 0 11 -7q0 -5 -4.5 -6.5t-25.5 -1.5q-30 1 -30 -13q0 -8 5 -21q9 -20 15 -43q12 -33 24 -65t22.5 -59.5
t19.5 -49t14 -33.5q16 42 33 87.5t30 84.5t21.5 66t8.5 32q0 11 -23 11q-29 0 -38.5 1.5t-9.5 7.5q0 9 12 9h8t12 -1q8 -1 24.5 -1.5t27.5 -0.5q4 0 12 0.5t18 1t19 1t14 0.5h6q9 0 9 -7t-4 -8t-28 -2q-18 0 -23.5 -0.5t-8.5 -2.5l-6 -11l-12 -35q-8 -26 -17 -50t-19 -47
q-11 -31 -22 -61.5t-22 -61.5q-29 -81 -49 -136.5t-34 -93t-24.5 -62t-20.5 -43.5q-36 -72 -92 -72q-32 0 -51.5 19t-19.5 50q0 23 14.5 36t39.5 13q16 0 24 -7.5t22 -32.5q7 -10 19 -10q10 0 19.5 7.5t19.5 26t22 49t28 77.5q-5 10 -8 17.5t-6 14.5t-7 16t-10 23
q-6 15 -16.5 41.5t-22.5 55.5t-23 56.5t-18 45.5q-16 38 -29.5 71t-24.5 60q-7 17 -12 26.5t-12 14t-17.5 6t-28.5 1.5q-12 0 -12 8q0 5 2 6.5t10 1.5h18q24 -2 46 -2h45z" />
    <glyph glyph-name="zcaron" unicode="&#x17e;" horiz-adv-x="391" 
d="M177 685q11 -12 22.5 -26t21 -27.5t17 -25.5t10.5 -21q12 18 19 29.5t12.5 19t10.5 13t13 13.5q15 16 22 21.5t12 5.5q6 0 6 -4q0 -2 -1.5 -4t-11.5 -12q-46 -43 -93 -136q-10 -19 -13.5 -23.5t-7.5 -4.5q-6 0 -11 11q-31 53 -61.5 96.5t-59.5 74.5h93zM369 436q6 0 6 -4
q0 -3 -1.5 -8t-7.5 -16.5t-18 -32t-32 -56.5q-54 -97 -96 -171.5t-73 -130.5q29 -2 41.5 -2.5t25.5 -0.5q22 0 37.5 1.5t28 5t22.5 10t21 16.5q16 15 28.5 36.5t23.5 53.5q5 13 10 13q6 0 6 -7v-4t-1 -6.5t-3 -13t-6 -23.5q-7 -22 -11 -49q-1 -11 -2.5 -19.5t-3.5 -14.5
l-3 -13h-13l-110 -2l-137 1l-44 -1q-17 -1 -30 -1.5t-17 -0.5q-10 0 -10 6q0 2 0.5 3l1.5 3q31 55 62 110.5t61 112.5q18 32 31.5 55t23 39.5t16.5 29t13 23.5l21 39q-8 2 -13 2h-13q-35 0 -60 -5t-43 -18t-30.5 -34t-22.5 -53q-6 -15 -11 -15t-5 6q0 1 9 48l9 45l5 32l2 12
h-2h17l39 -2l140 -1h24.5t36 0.5t34.5 1t19 0.5h4z" />
    <glyph glyph-name="Eth" unicode="&#xd0;" horiz-adv-x="716" 
d="M243 101q0 -25 0.5 -38.5t1 -20t2 -9t4.5 -5.5q13 -11 53 -11q103 0 155.5 84t52.5 249t-49 241.5t-154 76.5q-41 0 -53.5 -10.5t-12.5 -44.5v-234h24h70q15 0 23.5 -0.5t12.5 -1.5t4.5 -3.5t0.5 -6.5q0 -8 -4 -9.5t-27 -1.5h-79h-25v-255zM73 356h-40q-17 0 -21 1.5
t-4 9.5q0 14 19 14q7 0 23 -0.5t42 -1.5v222q0 24 -2 38t-8 21.5t-17 9.5t-30 2q-22 -1 -22 10q0 9 14 9h18q43 -1 68 -1.5t47.5 -0.5h50h74.5q98 -1 163 -18.5t116 -56.5q62 -48 91.5 -112t29.5 -152q0 -110 -48 -192t-137 -122q-23 -11 -46 -18t-49.5 -11.5t-60 -6
t-77.5 -1.5h-10.5h-12t-20.5 0.5t-37 1.5h-36h-9h-10t-16.5 -0.5t-29.5 -0.5l-63 -1q-15 0 -15 8q0 6 5.5 8t22.5 1q43 0 52 15q1 3 2 5.5t1.5 8.5t0.5 17v30v264h-19z" />
    <glyph glyph-name="Lslash" unicode="&#x141;" horiz-adv-x="564" 
d="M554 -5q-38 1 -80.5 2t-96.5 2t-123.5 1h-162.5h-42q-29 0 -36.5 1.5t-7.5 6.5q0 8 14 8q23 1 40.5 5t23.5 9q5 5 7 15t2 33v227l-52 -32q-8 -5 -10.5 -6.5t-7.5 -1.5q-13 0 -13 12q0 5 3 8.5t12 9.5l68 43v111l-1 120v51q0 20 -1 28.5t-5 13.5q-5 6 -15.5 10t-21.5 4
l-25 -1q-11 0 -11 8t14 8h6t10 -1l87 -1h45h44l50 1h28q5 1 11 1q10 0 10 -8q0 -9 -26 -9q-20 0 -30 -2.5t-14 -7.5q-2 -3 -3.5 -6t-2 -10.5t-0.5 -22v-39.5v-166l128 81q13 9 23 9q11 0 11 -11q0 -5 -4 -9.5t-15 -11.5l-143 -91v-39q0 -22 0.5 -58t1 -80t1 -92.5t1.5 -96.5
q14 -1 25 -1h18q19 0 41.5 0.5t43 2t37 2.5t23.5 3q62 12 86 64q3 7 5.5 13.5t5 15.5t5 21.5l6.5 32.5q1 6 4 11t5 5q3 0 5 -6.5t2 -15.5v-13t-1 -19q0 -4 -0.5 -14.5t-1 -22.5t-1 -21.5t-0.5 -12.5l1 -51v-20z" />
    <glyph glyph-name="Thorn" unicode="&#xde;" horiz-adv-x="570" 
d="M241 210q24 0 40 1t27.5 4t20.5 8t18 13q23 20 33 52.5t10 84.5q0 78 -22 113t-71 35q-30 0 -43 -11t-13 -37v-263zM241 539q17 2 28 2h26q41 0 79 -4t62 -11q25 -7 49 -24t40 -38q26 -33 26 -85q0 -43 -16.5 -78t-47.5 -60t-74 -39t-95 -14h-14t-13.5 1t-19 2t-30.5 4
v-103q0 -27 0.5 -42t6.5 -22t19 -9t37 -3q15 1 21 -1.5t6 -7.5q0 -9 -16 -9h-15q-20 1 -48.5 1.5t-83.5 0.5l-117 -1q-27 0 -35 1.5t-8 6.5q0 8 16 8q24 1 38 2.5t20.5 6.5t8 16t1.5 30v514q0 40 -1 54.5t-3 21.5q-6 14 -52 14q-19 0 -23 1.5t-4 6.5q0 6 4 7.5t21 1.5l225 1
l29 -1l16 1q12 0 12 -8q0 -6 -4.5 -7t-31.5 -3q-25 -1 -32 -7.5t-6 -26.5l-1 -32v-25v-44z" />
    <glyph glyph-name="lslash" unicode="&#x142;" horiz-adv-x="282" 
d="M79 607q0 16 -1 25.5t-5.5 14.5t-14.5 6t-27 1t-21 1t-4 6t3.5 6.5t22.5 2.5q22 1 48 4t51.5 7.5t47.5 10.5t36 12q0 -11 -0.5 -24t-0.5 -39v-70.5v-117.5l56 39q8 5 15 5q9 0 9 -10q0 -5 -2 -7t-9 -7l-69 -47v-322q0 -34 0.5 -52t3 -26.5t8 -10t16.5 -1.5l30 1
q13 0 13 -8q0 -5 -5.5 -6.5t-28.5 -1.5h-24t-36 2q-15 1 -27 1h-20h-17t-25.5 -0.5t-25 -1t-14.5 -0.5l-29 -1q-14 0 -18.5 1t-4.5 6t4.5 6.5t18.5 0.5q36 0 41 8q3 4 4 14t1 45v268l-58 -40q-8 -5 -13 -5q-11 0 -11 11q0 4 2 6t10 8l70 47v139v93z" />
    <glyph glyph-name="eth" unicode="&#xf0;" horiz-adv-x="510" 
d="M252 415q-39 0 -59.5 -48.5t-20.5 -141.5q0 -29 2.5 -57t6.5 -53t9.5 -45t11.5 -32q11 -20 24 -29t33 -9q46 0 61 52q3 9 5.5 27t4.5 40.5t3 46.5t1 44q0 58 -6 105.5t-16 65.5q-19 34 -60 34zM324 613l31 15q53 25 61 25t8 -10q0 -5 -4.5 -7.5t-28.5 -13.5
q-11 -4 -24 -11l-22.5 -10.5t-18.5 -8.5q77 -72 118 -158t41 -176q0 -72 -22 -123.5t-69 -90.5q-32 -27 -70 -42t-75 -15q-32 0 -67 12t-64 32q-46 33 -70 81t-24 108q0 46 16 85t44 67.5t66.5 44.5t83.5 16q30 0 48.5 -7.5t39.5 -27.5q-14 53 -31 94t-34 67q-8 -3 -14 -5.5
t-13.5 -5.5t-18.5 -8.5t-30 -14.5q-14 -6 -27.5 -12t-28.5 -13q-7 -2 -12.5 -5t-10.5 -6t-8 -3q-2 0 -5 3.5t-3 6.5q0 8 17 14q8 3 19.5 8.5t35.5 16.5t38 17.5t22.5 10t14.5 6.5l14 7q-26 36 -54.5 63t-65.5 51q-12 8 -12 11t6 3q5 0 16 -3t24.5 -8t28 -11.5t26.5 -12.5
q32 -18 52.5 -31t41.5 -31z" />
    <glyph glyph-name="thorn" unicode="&#xfe;" horiz-adv-x="528" 
d="M194 328l-1 -100v-87t1 -47t2.5 -22.5t4.5 -13.5q11 -23 30 -36t42 -13q18 0 32.5 8.5t22.5 23.5q14 27 21.5 76t7.5 110q0 193 -88 193q-14 0 -27.5 -6.5t-24 -16.5t-17.5 -22.5t-7 -24.5zM194 8v-79v-52v-60q1 -32 3.5 -39t14.5 -9q5 -1 9.5 -1.5t10 -0.5t13.5 -0.5
t20 -0.5q11 0 11 -9q0 -7 -13 -7h-10.5t-16.5 1h-46h-55h-16.5h-13.5t-17 -0.5t-27 -0.5h-50q-14 0 -18 1.5t-4 6.5t4.5 6t31.5 1q13 0 20.5 0.5t11 4t4.5 10.5t1 21v232v71v120q1 47 1 75.5v54.5l-1 178l1 89q0 26 -10.5 34t-42.5 7q-14 0 -19.5 1t-5.5 6q0 7 12 7
q31 0 57 1t49 4t45 8t45 12q2 -17 2 -28.5v-34.5q0 -30 -0.5 -69.5t-1 -77t-1 -66t-1.5 -37.5q26 32 52 44.5t67 12.5q42 0 77.5 -16.5t61.5 -46t40.5 -69.5t14.5 -88q0 -51 -15.5 -94.5t-42.5 -75.5t-64.5 -50t-80.5 -18q-36 0 -60 11.5t-46 40.5z" />
    <glyph glyph-name="onesuperior" unicode="&#xb9;" horiz-adv-x="348" 
d="M229 372q0 -32 0.5 -50.5t2.5 -22.5q3 -8 23 -8q21 0 29 -2t8 -7t-5 -6t-25 -1h-108h-43q-9 -1 -15.5 -1h-7.5q-14 0 -19 1.5t-5 6.5q0 8 13 8q26 0 34.5 0.5t11.5 2.5q5 2 6 12v38v184v41.5v21.5t-0.5 8.5t-0.5 3.5q-2 4 -6.5 5.5t-15.5 1.5h-17q-17 0 -21.5 1t-4.5 6
t6 6.5t38 5.5q15 2 25 4.5t21.5 7t26.5 12.5t40 23q1 1 3 1q3 0 5 -5t2 -13v-37q-1 -15 -1 -32v-37v-180z" />
    <glyph glyph-name="twosuperior" unicode="&#xb2;" horiz-adv-x="348" 
d="M330 396q-3 -15 -5 -27t-3.5 -25.5t-3 -30t-3.5 -40.5q-7 0 -26 0.5t-42 1t-45 1t-34 0.5h-16t-26 -1l-49 -1l-33 -1h-13q-28 0 -28 10q0 3 0.5 4.5t4 5t11 9t21.5 16.5q42 32 77.5 67t48.5 57q27 45 27 101q0 49 -19.5 75.5t-56.5 26.5q-26 0 -44 -13t-18 -31
q0 -6 4 -7.5t19 -2.5q20 -1 33.5 -14t13.5 -32q0 -20 -12 -32.5t-32 -12.5q-26 0 -41.5 18t-15.5 48q0 49 35.5 77t97.5 28q64 0 104 -33t40 -87q0 -26 -10 -49t-32 -46.5t-57.5 -48.5t-86.5 -54h62q46 0 71.5 1t38.5 5.5t16.5 13.5t6.5 25q5 22 13 22t8 -11z" />
    <glyph glyph-name="threesuperior" unicode="&#xb3;" horiz-adv-x="348" 
d="M116 473q-13 0 -13 8q0 5 3.5 7t23.5 5q24 5 40 27.5t16 53.5q0 32 -19 51.5t-51 19.5q-23 0 -35 -9q-5 -3 -9.5 -9t-4.5 -8q0 -3 4.5 -4.5t17.5 -4.5q16 -2 25 -12.5t9 -25.5q0 -17 -11 -27.5t-29 -10.5q-23 0 -37 13t-14 36q0 39 34 63.5t89 24.5q63 0 101 -25t38 -66
q0 -58 -91 -90q61 -11 88.5 -34t27.5 -64q0 -27 -13.5 -49.5t-37.5 -39.5t-56.5 -26.5t-70.5 -9.5q-54 0 -85 19.5t-31 53.5q0 23 15 37.5t39 14.5q22 0 34.5 -11t12.5 -28q0 -15 -12.5 -27.5t-30.5 -15.5q-11 -2 -11 -6q0 -7 16 -13t33 -6q43 0 67 28t24 79q0 75 -67 81
h-29z" />
    <glyph glyph-name="periodcentered" unicode="&#x2219;" horiz-adv-x="292" 
d="M147 301q32 0 53.5 -22t21.5 -54t-21 -53.5t-53 -21.5t-54.5 21.5t-22.5 53.5t22 54t54 22z" />
    <glyph glyph-name="sfthyphen" unicode="&#xad;" horiz-adv-x="296" 
d="M269 176h-42q-31 1 -52 1.5t-23 0.5q-8 -1 -19 -1q-10 0 -24 -0.5t-34 -0.5h-48v103h48l73 -2h25q17 0 37.5 0.5t58.5 1.5v-103z" />
    <glyph glyph-name="minus" unicode="&#x2212;" 
d="M497 309h-432v44h432v-44z" />
    <glyph glyph-name="multiply" unicode="&#xd7;" 
d="M449 466l-139 -137l147 -145l-32 -31l-145 146l-137 -138l-31 32l138 137l-146 145l31 30l145 -146l137 139z" />
    <glyph glyph-name="onehalf" unicode="&#xbd;" horiz-adv-x="822" 
d="M779 121q-3 -15 -5 -27t-3.5 -25t-3 -29.5t-3.5 -41.5q-7 0 -26 0.5t-42 1t-45 1t-34 0.5h-16t-26 -1l-49 -1l-33 -1h-14q-27 0 -27 11q0 6 11 14q53 40 87.5 71.5t54.5 59t28 55t8 59.5q0 50 -20 76.5t-56 26.5q-26 0 -44 -13t-18 -31q0 -6 4 -7.5t19 -2.5
q21 -2 34.5 -14.5t13.5 -32.5t-12.5 -32t-32.5 -12q-26 0 -41.5 18t-15.5 47q0 50 35.5 78t97.5 28q65 0 105 -33.5t40 -87.5q0 -26 -10 -49t-32 -46.5t-57.5 -48.5t-87.5 -54h63q46 0 71.5 1t38 5.5t16.5 13.5t7 25q5 22 13 22t8 -11zM622 705l-383 -705h-57l387 705h53z
M205 372q0 -32 0.5 -50.5t2.5 -22.5q3 -8 23 -8q21 0 29 -2t8 -7t-5 -6t-25 -1h-108h-43q-9 -1 -15.5 -1h-7.5q-14 0 -19 1.5t-5 6.5q0 8 13 8q26 0 34.5 0.5t11.5 2.5q5 2 6 12v38v184v41.5v21.5t-0.5 8.5t-0.5 3.5q-2 4 -6.5 5.5t-15.5 1.5h-17q-17 0 -21.5 1t-4.5 6
t6 6.5t38 5.5q15 2 25 4.5t21.5 7t26.5 12.5t40 23q1 1 3 1q3 0 5 -5t2 -13v-37q-1 -15 -1 -32v-37v-180z" />
    <glyph glyph-name="onequarter" unicode="&#xbc;" horiz-adv-x="822" 
d="M582 273q-5 -6 -15.5 -18t-28.5 -35q-11 -14 -21.5 -26.5t-21.5 -25.5q-20 -23 -29 -34t-15 -20h36.5h27.5t27 -0.5t35 -0.5q1 35 2 78.5t3 81.5zM677 61v-29q0 -12 6.5 -14.5t36.5 -2.5q19 0 19 -8q0 -3 -1 -4t-7.5 -2t-20.5 -1h-40h-39h-27.5t-24.5 -0.5t-29 -1.5h-26
q-14 0 -14 8q0 3 0.5 4.5t4.5 2.5t13 1.5t25 0.5q14 1 17.5 2t5.5 6l1 19v28v21h-96t-49.5 1t-18 3t-2.5 6q0 5 10 18q81 95 128 151t63 73q9 9 17.5 18.5t16.5 19.5q13 17 21 17q10 0 9 -23v-41q1 -7 1 -22.5v-37.5v-161q26 1 32 1t12 2q5 3 5.5 7t0.5 24q0 14 2 19t7 5
q3 0 5 -1t3 -7t1 -19.5v-37.5q1 -21 1 -32v-15q1 -4 1 -11q0 -10 -7 -10t-8.5 5t-3.5 27q-1 15 -5 18.5t-19 4.5h-18h-9v-32zM646 705l-382 -705h-57l387 705h52zM228 372q0 -32 0.5 -50.5t2.5 -22.5q3 -8 23 -8q21 0 29 -2t8 -7t-5 -6t-25 -1h-108h-43q-9 -1 -15.5 -1h-7.5
q-14 0 -19 1.5t-5 6.5q0 8 13 8q26 0 34.5 0.5t11.5 2.5q5 2 6 12v38v184v41.5v21.5t-0.5 8.5t-0.5 3.5q-2 4 -6.5 5.5t-15.5 1.5h-17q-17 0 -21.5 1t-4.5 6t6 6.5t38 5.5q15 2 25 4.5t21.5 7t26.5 12.5t40 23q1 1 3 1q3 0 5 -5t2 -13v-37q-1 -15 -1 -32v-37v-180z" />
    <glyph glyph-name="threequarters" unicode="&#xbe;" horiz-adv-x="822" 
d="M612 114q0 19 0.5 41.5t1.5 44.5t2 41t2 32q-6 -5 -16.5 -17.5t-28.5 -35.5q-11 -14 -21.5 -26.5t-21.5 -24.5l-27 -33t-16 -20q21 -1 41 -1.5t45 -0.5h39zM712 61v-28q0 -11 7 -13.5t36 -2.5q19 0 19 -9q0 -3 -1 -4.5t-7.5 -2.5t-20.5 -1h-40h-67l-53 -2h-26
q-14 0 -14 8q0 3 0.5 5t4.5 3t13 1.5t25 1.5q13 0 17 1.5t6 6.5l1 17v28v21h-96t-49.5 1t-18 3t-2.5 6q0 5 10 18l12 14t12 15l38 45q12 15 28 34t33.5 39.5t35 40.5t32.5 36q12 14 20.5 23.5t13.5 14.5q13 17 21 17q12 0 9 -27l1 -37v-60v-159q1 -1 2 -1h1q11 -1 25.5 1
t16.5 4t2 5.5v21.5q1 15 3 20t7 5q6 0 8 -4t3 -18v-35v-10.5t1 -25.5v-18q1 -3 1 -5.5v-4.5q0 -11 -9 -11q-7 0 -9.5 7t-2.5 25q-1 14 -5 17.5t-18 4.5h-17h-9v-32zM655 705l-383 -705h-57l388 705h52zM203 490q61 -11 88.5 -34t27.5 -64q0 -27 -13.5 -49.5t-37.5 -39.5
t-56.5 -26.5t-70.5 -9.5q-54 0 -85 19.5t-31 53.5q0 23 15 37.5t39 14.5q22 0 34.5 -11t12.5 -28q0 -16 -13 -28.5t-30 -15.5q-11 -2 -11 -5q0 -6 16 -11.5t33 -5.5q43 0 67 27.5t24 77.5q0 26 -7 41.5t-21 25.5q-10 7 -22 11t-22 3q-12 -1 -17.5 -1h-8.5q-11 0 -11 8
q0 7 3.5 8.5t23.5 5.5q24 4 40 27t16 53q0 32 -19 50.5t-51 18.5q-22 0 -35 -8q-5 -3 -9.5 -8.5t-4.5 -7.5t4 -4t18 -4q16 -3 25 -13.5t9 -25.5q0 -17 -11 -27.5t-29 -10.5q-23 0 -37 13t-14 36q0 39 34 63.5t89 24.5q63 0 101 -25t38 -66q0 -58 -91 -90z" />
    <glyph glyph-name="brokenbar" unicode="&#xa6;" horiz-adv-x="459" 
d="M273 159v-332h-87v332h87zM273 692v-360h-87v360h87z" />
    </font>
</defs>
</svg>
